<svg xmlns="http://www.w3.org/2000/svg" xmlns:xlink="http://www.w3.org/1999/xlink" version="1.1" width="256" height="256" viewBox="0 0 256 256" xml:space="preserve">
<g style="stroke: none; stroke-width: 0; stroke-dasharray: none; stroke-linecap: butt; stroke-linejoin: miter; stroke-miterlimit: 10; fill: none; fill-rule: nonzero; opacity: 1;" transform="translate(1.4065934065934016 1.4065934065934016) scale(2.81 2.81)">
	<path d="M 73.319 90 H 16.681 C 7.468 90 0 82.532 0 73.319 V 16.681 C 0 7.468 7.468 0 16.681 0 h 56.638 C 82.532 0 90 7.468 90 16.681 v 56.638 C 90 82.532 82.532 90 73.319 90 z" style="stroke: none; stroke-width: 1; stroke-dasharray: none; stroke-linecap: butt; stroke-linejoin: miter; stroke-miterlimit: 10; fill: rgb(0,186,22); fill-rule: nonzero; opacity: 1;" transform=" matrix(1 0 0 1 0 0) " stroke-linecap="round"/>
	<path d="M 69.518 45.034 L 46.157 21.673 c -0.639 -0.639 -1.674 -0.639 -2.313 0 L 20.482 45.034 c -1.03 1.03 -0.301 2.792 1.157 2.792 h 3.519 c 0.903 0 1.636 0.732 1.636 1.636 V 67.17 c 0 0.903 0.732 1.636 1.636 1.636 h 33.141 c 0.903 0 1.636 -0.732 1.636 -1.636 V 49.462 c 0 -0.903 0.732 -1.636 1.636 -1.636 h 3.519 C 69.818 47.827 70.548 46.065 69.518 45.034 z" style="stroke: none; stroke-width: 1; stroke-dasharray: none; stroke-linecap: butt; stroke-linejoin: miter; stroke-miterlimit: 10; fill: rgb(255,255,255); fill-rule: nonzero; opacity: 1;" transform=" matrix(1 0 0 1 0 0) " stroke-linecap="round"/>
</g>
</svg>