<?xml version="1.0" standalone="no"?>
<!DOCTYPE svg PUBLIC "-//W3C//DTD SVG 20010904//EN"
 "http://www.w3.org/TR/2001/REC-SVG-20010904/DTD/svg10.dtd">
<svg version="1.0" xmlns="http://www.w3.org/2000/svg"
 width="800.000000pt" height="400.000000pt" viewBox="0 0 800.000000 400.000000"
 preserveAspectRatio="xMidYMid meet">

<g transform="translate(0.000000,400.000000) scale(0.100000,-0.100000)"
fill="#000000" stroke="none">
<path d="M3190 2495 c0 -90 4 -145 10 -145 6 0 10 31 10 74 0 70 1 75 23 78
25 3 25 23 -1 23 -14 0 -18 11 -20 58 -2 31 -7 57 -12 57 -6 0 -10 -60 -10
-145z"/>
<path d="M3320 2630 c0 -5 20 -10 44 -10 25 0 48 5 51 10 4 6 -13 10 -44 10
-28 0 -51 -4 -51 -10z"/>
<path d="M3680 2551 c0 -74 3 -91 15 -91 11 0 15 12 15 45 0 25 4 45 9 45 5 0
16 3 25 6 11 4 16 0 16 -13 0 -45 81 -73 110 -38 7 8 25 15 41 15 24 0 29 -4
29 -25 0 -14 5 -25 10 -25 6 0 10 35 10 85 0 80 -11 111 -23 65 -6 -24 -43
-26 -71 -5 -38 29 -106 7 -106 -33 0 -7 -11 -12 -24 -12 -20 0 -25 6 -28 32
-2 17 -9 33 -15 36 -10 3 -13 -19 -13 -87z m175 39 c24 -26 13 -68 -20 -76
-32 -8 -55 11 -55 45 0 50 42 67 75 31z m85 -30 c0 -15 -7 -20 -25 -20 -18 0
-25 5 -25 20 0 15 7 20 25 20 18 0 25 -5 25 -20z"/>
<path d="M4490 2535 c0 -63 4 -105 10 -105 6 0 10 42 10 105 0 63 -4 105 -10
105 -6 0 -10 -42 -10 -105z"/>
<path d="M4770 2495 c0 -90 4 -145 10 -145 6 0 10 31 10 74 0 71 1 74 26 79
16 3 28 0 31 -9 9 -23 153 -16 153 7 0 4 -29 6 -65 2 l-65 -6 0 27 c0 24 3 26
45 26 l45 0 0 40 0 40 -54 0 c-69 0 -84 -18 -19 -22 40 -3 48 -6 48 -23 0 -16
-8 -21 -45 -25 -27 -3 -45 -10 -45 -17 0 -7 -3 -13 -7 -13 -5 0 -17 0 -28 0
-18 0 -20 7 -20 55 0 30 -4 55 -10 55 -6 0 -10 -55 -10 -145z"/>
<path d="M5020 2544 c0 -61 4 -93 10 -89 6 3 10 17 10 31 0 17 5 24 20 24 11
0 20 4 20 9 0 5 -9 11 -20 14 -12 3 -20 14 -20 26 0 14 6 21 20 21 11 0 20 5
20 10 0 6 -9 10 -20 10 -13 0 -20 7 -20 20 0 11 -4 20 -10 20 -6 0 -10 -39
-10 -96z"/>
<path d="M5770 2495 c0 -90 4 -145 10 -145 6 0 10 55 10 145 0 90 -4 145 -10
145 -6 0 -10 -55 -10 -145z"/>
<path d="M6068 2603 c-2 -31 -7 -39 -25 -41 -31 -5 -29 -22 2 -22 24 0 25 -3
25 -60 0 -33 4 -60 10 -60 6 0 10 43 10 110 0 62 -4 110 -9 110 -6 0 -11 -17
-13 -37z"/>
<path d="M6560 2610 c0 -25 -4 -30 -24 -30 -14 0 -30 10 -40 25 -12 18 -25 25
-50 25 -40 0 -66 -26 -66 -66 0 -38 17 -61 53 -70 23 -5 33 0 60 28 39 41 67
40 67 -3 0 -16 5 -29 10 -29 6 0 10 32 10 75 0 43 -4 75 -10 75 -5 0 -10 -13
-10 -30z m-79 -21 c17 -33 -3 -69 -40 -69 -29 0 -41 14 -41 49 0 42 61 57 81
20z"/>
<path d="M6760 2581 c0 -52 -2 -59 -22 -65 l-23 -7 23 -9 c20 -8 22 -16 22
-80 0 -40 4 -70 10 -70 6 0 10 55 10 145 0 90 -4 145 -10 145 -6 0 -10 -26
-10 -59z"/>
<path d="M6810 2495 c0 -90 4 -145 10 -145 6 0 10 55 10 145 0 90 -4 145 -10
145 -6 0 -10 -55 -10 -145z"/>
<path d="M2160 2626 c0 -7 85 -86 93 -86 19 0 3 28 -33 58 -34 28 -60 40 -60
28z"/>
<path d="M3510 2560 l0 -70 60 0 60 0 0 70 c0 40 -4 70 -10 70 -5 0 -10 -11
-10 -25 0 -22 -4 -25 -40 -25 -36 0 -40 3 -40 25 0 14 -4 25 -10 25 -6 0 -10
-30 -10 -70z m98 -27 c3 -21 -1 -23 -37 -23 -37 0 -41 2 -41 26 0 23 3 25 38
22 30 -2 38 -7 40 -25z"/>
<path d="M4080 2570 l0 -60 85 0 85 0 0 60 0 60 -85 0 -85 0 0 -60z m150 0 l0
-40 -60 0 -60 0 0 40 0 40 60 0 60 0 0 -40z"/>
<path d="M4327 2610 c-53 -42 -25 -130 41 -130 38 0 62 28 62 71 0 67 -54 97
-103 59z m80 -36 c19 -50 -37 -94 -69 -54 -23 29 -23 45 2 70 17 17 24 18 41
10 11 -6 23 -18 26 -26z"/>
<path d="M4620 2620 c0 -5 18 -10 40 -10 22 0 40 5 40 10 0 6 -18 10 -40 10
-22 0 -40 -4 -40 -10z"/>
<path d="M5196 2623 c-3 -3 -6 -17 -6 -31 0 -24 -51 -84 -80 -94 -12 -4 -12
-8 -3 -18 9 -10 21 -4 54 28 l44 40 43 -39 c61 -57 71 -38 11 20 -39 38 -49
54 -45 69 7 20 -5 37 -18 25z"/>
<path d="M5364 2616 c-3 -8 -4 -29 -2 -48 3 -30 6 -33 41 -36 29 -3 37 -7 37
-23 0 -17 -7 -19 -60 -19 -33 0 -60 -4 -60 -10 0 -6 48 -10 124 -10 73 0 127
4 131 10 4 6 -17 10 -54 10 -54 0 -61 2 -61 20 0 17 7 20 40 20 22 0 40 5 40
10 0 6 -32 10 -75 10 l-75 0 0 30 0 30 70 0 c40 0 70 4 70 10 0 17 -160 13
-166 -4z"/>
<path d="M6160 2580 l0 -50 80 0 80 0 0 50 0 50 -80 0 -80 0 0 -50z m140 0 l0
-30 -60 0 -60 0 0 30 0 30 60 0 60 0 0 -30z"/>
<path d="M6640 2620 c0 -5 16 -10 36 -10 21 0 33 4 29 10 -3 6 -19 10 -36 10
-16 0 -29 -4 -29 -10z"/>
<path d="M2103 2602 c10 -10 17 -33 17 -52 0 -28 2 -31 15 -20 21 17 19 46 -5
70 -25 25 -49 27 -27 2z"/>
<path d="M3063 2613 c-59 -6 -54 -23 6 -23 l50 0 -9 -31 c-13 -43 -36 -79 -73
-110 -18 -16 -26 -29 -19 -33 31 -19 128 123 120 177 -3 24 -11 26 -75 20z"/>
<path d="M5633 2613 c-60 -6 -54 -23 8 -23 48 0 50 -1 43 -22 -17 -57 -28 -74
-65 -109 -26 -24 -36 -40 -29 -44 17 -11 97 79 109 122 16 57 14 83 -6 81 -10
-1 -37 -3 -60 -5z"/>
<path d="M5890 2610 c0 -5 20 -10 45 -10 25 0 45 -3 45 -7 0 -20 -42 -73 -69
-89 -17 -10 -31 -22 -31 -26 0 -16 29 -7 58 17 l30 25 27 -25 c15 -13 32 -22
37 -19 6 4 -4 19 -21 34 -30 28 -30 29 -16 64 8 19 15 38 15 41 0 3 -27 5 -60
5 -33 0 -60 -4 -60 -10z"/>
<path d="M2052 2598 c-23 -23 -9 -88 19 -88 5 0 3 14 -3 30 -5 17 -8 39 -5 50
6 23 5 24 -11 8z"/>
<path d="M3290 2590 c0 -5 26 -10 58 -10 53 -1 56 -2 37 -16 -11 -8 -39 -20
-62 -27 -24 -6 -43 -15 -43 -19 0 -12 27 -10 65 6 31 13 39 13 70 0 40 -16 55
-18 55 -5 0 5 -13 12 -30 16 -36 8 -37 12 -8 42 l21 23 -81 0 c-48 0 -82 -4
-82 -10z"/>
<path d="M1940 2563 c5 -10 21 -31 35 -48 24 -28 25 -29 25 -7 0 12 -4 22 -8
22 -5 0 -14 11 -20 25 -6 14 -19 25 -27 25 -12 0 -13 -4 -5 -17z"/>
<path d="M4595 2570 c-4 -6 13 -10 44 -10 28 0 51 -2 51 -5 0 -20 -45 -88 -70
-107 -17 -12 -30 -25 -30 -30 0 -18 28 -6 55 22 l29 30 27 -26 c38 -36 54 -21
19 16 -28 30 -28 32 -14 72 8 22 14 42 14 44 0 9 -119 3 -125 -6z"/>
<path d="M6620 2570 c0 -5 16 -10 35 -10 25 0 35 -4 35 -16 0 -23 -19 -55 -53
-91 -40 -43 -26 -56 16 -15 l33 32 21 -27 c11 -16 24 -25 28 -21 4 4 -3 19
-15 35 -21 27 -22 60 -3 109 4 11 -6 14 -46 14 -28 0 -51 -4 -51 -10z"/>
<path d="M1880 2553 c0 -5 13 -25 29 -46 23 -29 30 -34 35 -21 9 23 7 36 -3
30 -5 -3 -16 5 -25 19 -16 24 -36 34 -36 18z"/>
<path d="M1823 2528 c2 -7 10 -30 18 -51 11 -33 32 -48 29 -22 -4 36 -25 85
-38 85 -8 0 -12 -6 -9 -12z"/>
<path d="M2178 2530 c-2 -7 -17 -13 -33 -14 -94 -8 -383 -125 -524 -213 -65
-40 -71 -47 -53 -54 16 -6 44 5 116 47 116 66 293 137 401 159 109 22 259 22
332 -1 75 -24 146 -90 163 -154 29 -108 -24 -247 -152 -401 -26 -32 -50 -70
-53 -86 -5 -24 4 -18 65 47 222 233 280 456 151 580 -69 67 -128 85 -276 85
-66 0 -123 4 -126 9 -4 4 -8 3 -11 -4z"/>
<path d="M1737 2503 c-7 -6 61 -72 76 -73 16 -1 5 22 -25 50 -35 31 -41 34
-51 23z"/>
<path d="M3250 2480 c0 -5 25 -10 55 -10 48 0 55 -2 55 -20 0 -16 -7 -20 -34
-20 -19 0 -38 -4 -41 -10 -4 -6 23 -10 74 -10 l81 0 0 -36 c0 -21 4 -33 10
-29 6 3 10 24 10 46 0 38 -1 39 -34 39 -20 0 -36 6 -39 14 -8 22 2 26 60 26
29 0 53 5 53 10 0 6 -48 10 -125 10 -77 0 -125 -4 -125 -10z"/>
<path d="M5197 2483 c-4 -3 -7 -21 -7 -40 l0 -33 -55 0 c-30 0 -55 -4 -55 -10
0 -6 47 -10 120 -10 73 0 120 4 120 10 0 6 -22 10 -50 10 -27 0 -50 3 -51 8
-1 4 -2 19 -3 34 -1 29 -9 42 -19 31z"/>
<path d="M6115 2480 c3 -5 31 -10 61 -10 53 0 54 0 54 -30 0 -20 5 -30 15 -30
10 0 15 10 15 30 0 30 1 30 55 30 30 0 55 5 55 10 0 6 -50 10 -131 10 -84 0
-128 -4 -124 -10z"/>
<path d="M1660 2457 c0 -24 58 -79 73 -70 9 6 1 19 -30 47 -30 27 -43 34 -43
23z"/>
<path d="M4040 2460 c0 -5 26 -10 58 -12 l57 -3 3 -47 c4 -64 22 -62 22 2 l0
50 55 0 c30 0 55 5 55 10 0 6 -48 10 -125 10 -72 0 -125 -4 -125 -10z"/>
<path d="M6420 2410 l0 -60 80 0 80 0 0 60 c0 33 -4 60 -10 60 -5 0 -10 -9
-10 -20 0 -18 -7 -20 -60 -20 -53 0 -60 2 -60 20 0 11 -4 20 -10 20 -6 0 -10
-27 -10 -60z m140 -20 c0 -18 -7 -20 -60 -20 -53 0 -60 2 -60 20 0 18 7 20 60
20 53 0 60 -2 60 -20z"/>
<path d="M3562 2434 c-36 -25 -26 -65 21 -83 81 -30 166 33 107 81 -28 23 -97
24 -128 2z m113 -21 c16 -16 16 -18 -5 -35 -12 -10 -30 -18 -40 -18 -32 0 -70
19 -70 34 0 35 86 49 115 19z"/>
<path d="M3795 2440 c-4 -6 22 -10 69 -10 l76 0 0 -39 c0 -22 5 -43 10 -46 6
-4 10 15 10 49 l0 56 -79 0 c-44 0 -83 -4 -86 -10z"/>
<path d="M4903 2440 c-33 -13 -39 -48 -14 -74 16 -16 33 -21 71 -20 55 1 80
16 80 50 0 44 -75 69 -137 44z m102 -24 c39 -28 -13 -66 -70 -52 -54 14 -38
66 19 66 18 0 41 -6 51 -14z"/>
<path d="M1585 2430 c3 -5 8 -10 11 -10 2 0 4 5 4 10 0 6 -5 10 -11 10 -5 0
-7 -4 -4 -10z"/>
<path d="M2090 2421 c-47 -10 -128 -35 -180 -55 -118 -46 -271 -126 -264 -138
3 -5 15 -1 25 8 13 12 23 14 30 7 13 -13 8 -168 -6 -167 -5 1 -20 21 -33 45
-25 48 -50 79 -65 79 -13 0 -137 -92 -137 -101 0 -5 47 -33 105 -64 57 -31
114 -68 125 -82 93 -118 2 -273 -161 -273 -19 0 -60 7 -89 16 -51 15 -55 15
-67 -2 -24 -32 -34 -2 -31 91 2 49 8 90 13 92 6 1 24 -25 40 -60 35 -73 79
-107 137 -107 77 0 128 90 79 139 -10 10 -60 40 -110 66 -50 26 -100 59 -111
73 -20 25 -20 25 -41 6 -42 -37 -110 -135 -140 -198 -163 -347 216 -467 717
-227 120 58 242 134 308 191 l33 29 -46 131 c-25 71 -48 130 -51 130 -3 0 -37
-82 -76 -183 -39 -100 -77 -182 -84 -182 -7 0 -31 53 -54 120 -23 66 -64 182
-90 258 -40 115 -53 140 -73 148 -48 18 -11 29 103 29 113 0 142 -10 89 -30
-14 -5 -25 -15 -25 -23 0 -10 74 -239 96 -297 3 -9 25 35 50 103 44 115 45
119 31 160 -9 28 -23 46 -40 55 -51 25 -28 32 99 32 96 0 125 -3 122 -12 -3
-7 -13 -15 -24 -16 -10 -2 -23 -8 -28 -12 -4 -4 13 -76 40 -159 26 -83 49
-149 52 -146 8 8 92 270 92 288 0 11 -12 22 -30 28 -47 17 -25 29 51 29 55 0
69 -3 69 -15 0 -8 -6 -15 -14 -15 -20 0 -19 2 -70 -146 l-45 -129 30 35 c16
19 48 70 69 114 34 67 40 87 40 144 0 91 -30 141 -107 179 -51 24 -71 28 -163
30 -73 2 -131 -3 -190 -16z"/>
<path d="M4347 2433 c-3 -5 -4 -24 -3 -43 l1 -35 79 -3 c46 -2 84 2 90 8 7 7
-13 10 -67 10 l-77 0 0 35 c0 32 -12 46 -23 28z"/>
<path d="M5360 2430 c0 -6 32 -10 75 -10 l75 0 0 -34 c0 -19 5 -38 10 -41 6
-4 10 13 10 44 l0 51 -85 0 c-50 0 -85 -4 -85 -10z"/>
<path d="M5938 2434 c-5 -4 -8 -25 -8 -46 l0 -38 79 0 c44 0 83 5 86 10 4 6
-21 10 -69 10 l-75 0 -3 36 c-2 20 -6 32 -10 28z"/>
<path d="M6160 2396 l0 -46 85 0 c50 0 85 4 85 10 0 6 -32 10 -75 10 l-75 0 0
29 c0 17 -4 33 -10 36 -6 4 -10 -12 -10 -39z"/>
<path d="M1544 2397 c3 -10 6 -21 6 -23 0 -2 13 -4 30 -4 16 0 33 -7 38 -16 7
-12 11 -13 16 -5 11 18 -13 41 -43 41 -15 0 -33 6 -40 13 -11 10 -13 9 -7 -6z"/>
<path d="M1570 2330 c0 -6 7 -10 15 -10 8 0 15 2 15 4 0 2 -7 6 -15 10 -8 3
-15 1 -15 -4z"/>
<path d="M1465 2195 c-14 -13 -25 -33 -25 -45 0 -18 6 -16 55 21 30 23 55 43
55 45 0 2 -14 4 -30 4 -19 0 -40 -9 -55 -25z"/>
<path d="M4520 2142 c0 -4 13 -18 30 -30 l30 -22 2 -168 3 -167 27 -3 c49 -6
68 27 68 113 l0 75 49 0 c51 0 67 13 54 46 -5 13 -16 15 -55 12 l-48 -5 0 68
0 68 -32 5 c-90 14 -128 16 -128 8z"/>
<path d="M5270 2136 c0 -7 11 -18 25 -24 33 -15 36 -34 33 -202 l-3 -145 -82
2 c-46 1 -83 -2 -83 -5 0 -4 8 -17 18 -29 14 -18 29 -23 82 -25 63 -3 65 -4
68 -31 3 -26 6 -28 40 -25 58 5 62 22 62 260 0 237 7 221 -97 231 -49 5 -63 4
-63 -7z"/>
<path d="M5990 2136 c0 -7 11 -18 25 -24 l25 -11 2 -313 3 -313 35 -3 c60 -6
60 -3 60 345 l0 313 -22 4 c-67 14 -128 15 -128 2z"/>
<path d="M6725 2141 c-3 -6 8 -17 25 -26 32 -17 43 -44 38 -96 -3 -34 -3 -34
-59 -37 l-56 -3 -24 48 c-55 110 -214 127 -305 32 -23 -24 -29 -40 -32 -93 -4
-59 -2 -65 28 -100 45 -50 79 -66 145 -66 86 0 153 43 178 113 6 15 16 18 64
15 l58 -3 3 -72 3 -73 32 0 c54 0 57 8 57 187 0 161 0 163 -22 167 -60 12
-127 16 -133 7z m-198 -86 c28 -20 47 -77 39 -120 -17 -89 -104 -117 -141 -44
-50 96 26 217 102 164z"/>
<path d="M4948 2109 c-44 -23 -58 -45 -58 -94 0 -127 255 -157 319 -38 27 51
-2 113 -65 139 -49 21 -151 17 -196 -7z m146 -40 c65 -52 -1 -148 -75 -108
-45 24 -43 100 3 119 34 13 43 12 72 -11z"/>
<path d="M3207 2113 c-4 -3 3 -19 14 -34 19 -28 24 -29 100 -29 43 0 79 -4 79
-9 0 -24 -86 -113 -150 -156 -111 -74 -62 -86 75 -18 28 14 64 36 82 49 17 13
35 24 40 24 5 0 32 -16 62 -36 71 -48 129 -74 169 -74 91 0 16 104 -87 121
-25 4 -58 12 -74 18 l-27 11 22 34 c23 35 23 35 108 38 77 3 85 5 85 23 0 19
-8 20 -235 25 -129 3 -240 8 -246 12 -6 4 -14 5 -17 1z"/>
<path d="M3029 2085 c-75 -55 -117 -135 -126 -236 -10 -116 37 -223 129 -289
65 -48 79 -35 29 28 -94 120 -95 357 -2 473 17 21 31 40 31 43 0 13 -29 4 -61
-19z"/>
<path d="M3830 2105 c0 -3 15 -25 34 -49 73 -96 88 -279 32 -403 -16 -34 -37
-70 -47 -79 -19 -18 -26 -44 -11 -44 5 0 28 14 50 30 90 65 139 172 129 286
-5 63 -39 150 -74 189 -40 45 -113 90 -113 70z"/>
<path d="M4190 2107 c0 -3 16 -14 35 -26 24 -14 35 -28 35 -43 0 -42 -54 -132
-118 -196 -35 -35 -61 -67 -57 -70 11 -11 110 45 163 93 l53 47 57 -54 c62
-60 106 -78 129 -55 13 13 13 19 -1 45 -17 34 -52 62 -76 62 -8 0 -29 9 -47
20 l-32 19 31 66 c20 44 27 70 21 76 -11 11 -193 26 -193 16z"/>
<path d="M1296 2049 c-176 -195 -250 -362 -218 -487 63 -237 451 -256 887 -43
114 56 268 151 309 191 34 33 7 43 -32 12 -133 -105 -304 -197 -471 -252 -308
-103 -533 -72 -613 84 -17 33 -20 53 -16 112 6 94 52 191 142 303 51 63 66 89
64 109 -3 25 -5 24 -52 -29z"/>
<path d="M5606 2071 c-3 -4 6 -19 20 -34 23 -25 30 -27 115 -27 89 0 90 0 83
-22 -26 -85 -111 -213 -193 -291 -91 -87 -80 -103 28 -39 127 75 270 256 288
365 l6 37 -146 0 c-80 0 -157 4 -171 10 -14 5 -27 6 -30 1z"/>
<path d="M4826 1871 c-3 -5 4 -20 15 -35 19 -24 27 -26 90 -26 l69 0 0 -50 0
-50 34 0 c40 0 66 28 66 71 0 25 3 27 66 33 66 7 126 26 137 43 3 5 -86 7
-212 5 -149 -3 -225 -1 -239 7 -11 6 -23 7 -26 2z"/>
<path d="M3120 1772 c0 -1 7 -14 16 -27 16 -24 19 -25 145 -25 l129 0 0 -125
0 -125 34 0 c58 0 66 17 66 141 l0 109 140 0 c118 0 142 2 147 16 3 8 2 19 -3
24 -8 8 -674 20 -674 12z"/>
<path d="M6740 1748 c0 -8 9 -21 20 -31 11 -9 20 -26 20 -37 0 -19 -6 -20
-120 -20 l-120 0 0 34 c0 34 -1 35 -47 41 -27 4 -56 9 -65 12 -22 6 -24 -20
-3 -37 11 -9 15 -33 15 -91 0 -43 4 -89 10 -104 l10 -25 202 2 203 3 3 122 3
122 -48 6 c-26 4 -56 9 -65 12 -11 2 -18 -1 -18 -9z m38 -175 l-3 -38 -115 0
-115 0 -3 38 -3 37 121 0 121 0 -3 -37z"/>
<path d="M4210 1714 c0 -4 11 -17 25 -30 23 -21 25 -31 25 -103 0 -69 3 -82
19 -91 11 -6 92 -10 190 -10 141 0 172 3 185 16 13 12 16 38 16 120 l0 104
-230 0 c-126 0 -230 -3 -230 -6z m360 -102 c0 -40 -5 -73 -12 -80 -17 -17
-173 -16 -190 1 -9 9 -13 35 -11 78 1 35 2 65 2 67 1 1 48 2 106 2 l105 0 0
-68z"/>
<path d="M4940 1673 c0 -5 13 -16 30 -25 26 -15 29 -22 32 -74 4 -83 9 -85
238 -81 178 2 185 3 185 22 0 19 -8 20 -160 23 -112 2 -161 6 -167 15 -4 6 -8
35 -8 63 0 50 -1 52 -31 58 -43 8 -119 8 -119 -1z"/>
</g>
</svg>
