<?xml version="1.0" standalone="no"?>
<!DOCTYPE svg PUBLIC "-//W3C//DTD SVG 20010904//EN"
 "http://www.w3.org/TR/2001/REC-SVG-20010904/DTD/svg10.dtd">
<svg version="1.0" xmlns="http://www.w3.org/2000/svg"
 width="3024.000000pt" height="1512.000000pt" viewBox="0 0 3024.000000 1512.000000"
 preserveAspectRatio="xMidYMid meet">

<g transform="translate(0.000000,1512.000000) scale(0.100000,-0.100000)"
fill="#000000" stroke="none">
<path d="M5927 14153 c-4 -3 -7 -15 -7 -25 0 -16 10 -18 105 -18 l105 0 0 25
c0 25 0 25 -98 25 -54 0 -102 -3 -105 -7z"/>
<path d="M3577 14143 c-4 -3 0 -11 7 -17 8 -6 17 -35 21 -65 l7 -55 -69 62
c-54 48 -77 62 -101 62 -35 0 -39 -6 -18 -29 8 -9 19 -52 24 -96 9 -66 8 -83
-4 -96 -8 -8 -11 -19 -7 -22 3 -4 -1 -7 -9 -7 -9 0 -30 -3 -49 -7 l-33 -6 21
27 c63 80 20 192 -79 203 -85 9 -150 -68 -127 -152 12 -42 53 -85 81 -85 31 0
12 -17 -27 -24 -60 -12 -276 -83 -391 -130 -229 -93 -409 -186 -629 -325
l-119 -75 63 -12 64 -11 106 65 c568 349 1215 511 1624 406 160 -41 301 -145
359 -264 118 -246 9 -592 -301 -950 -76 -88 -94 -116 -115 -177 -13 -40 -21
-73 -17 -73 12 0 241 238 308 321 151 186 266 395 308 563 77 303 -20 535
-272 653 -117 54 -216 74 -400 80 l-163 6 -5 31 c-23 141 -24 181 -8 194 15
10 13 12 -13 12 -17 0 -34 -3 -37 -7z m-279 -76 c42 -44 56 -151 26 -182 -45
-44 -101 11 -111 108 -5 47 -2 58 16 76 27 27 42 27 69 -2z m309 -158 c-6 -4
-46 -9 -87 -12 -46 -3 -62 -2 -40 3 19 4 27 8 18 9 -24 2 -25 7 -33 91 l-7 75
81 -80 c53 -52 77 -82 68 -86z"/>
<path d="M5630 13830 l0 -320 30 0 30 0 0 170 0 170 50 0 c47 0 50 2 50 25 0
23 -3 25 -50 25 l-50 0 0 125 0 125 -30 0 -30 0 0 -320z"/>
<path d="M6700 13950 l0 -200 25 0 25 0 0 100 0 100 45 0 c43 0 45 1 45 30 0
29 -2 30 -45 30 l-45 0 0 70 c0 68 -1 70 -25 70 l-25 0 0 -200z"/>
<path d="M7260 14110 l0 -40 -69 0 c-50 0 -72 4 -82 16 -54 65 -175 57 -226
-16 -63 -90 -11 -236 90 -255 50 -10 80 -1 121 36 32 28 40 30 98 27 l63 -3 3
-52 c3 -49 5 -53 28 -53 l24 0 0 190 0 190 -25 0 c-22 0 -25 -4 -25 -40z
m-199 -59 c53 -53 35 -157 -32 -180 -65 -23 -119 27 -119 109 0 53 42 100 90
100 22 0 41 -9 61 -29z m199 -76 l0 -45 -57 0 -58 0 0 45 -1 45 58 0 58 0 0
-45z"/>
<path d="M8430 13915 l0 -235 25 0 25 0 0 235 0 235 -25 0 -25 0 0 -235z"/>
<path d="M9040 13830 l0 -320 25 0 25 0 0 170 0 170 50 0 c47 0 50 2 50 25 0
23 -3 25 -50 25 l-50 0 0 125 0 125 -25 0 -25 0 0 -320z"/>
<path d="M9570 13944 l0 -205 28 3 c26 3 27 6 30 66 l3 62 39 0 c36 0 40 3 40
25 0 23 -4 25 -46 25 l-45 0 3 48 3 47 43 3 c37 3 42 6 42 28 0 21 -4 24 -40
24 l-40 0 0 40 c0 38 -2 40 -30 40 l-30 0 0 -206z"/>
<path d="M11190 13830 l0 -320 25 0 25 0 0 320 0 320 -25 0 -25 0 0 -320z"/>
<path d="M11830 14065 l0 -85 -50 0 c-47 0 -50 -2 -50 -25 0 -23 3 -25 50 -25
l50 0 0 -130 0 -130 30 0 30 0 0 240 0 240 -30 0 -30 0 0 -85z"/>
<path d="M12890 14080 l0 -70 -53 0 c-51 0 -53 1 -65 33 -7 19 -24 44 -38 58
-22 21 -35 24 -94 24 -62 0 -72 -3 -98 -28 -61 -59 -62 -163 -2 -230 27 -30
32 -32 100 -32 68 0 73 1 101 33 16 18 32 46 36 63 5 28 8 29 59 29 l54 0 0
-70 0 -70 30 0 30 0 0 165 0 165 -30 0 -30 0 0 -70z m-199 -13 c24 -18 39 -52
39 -87 0 -61 -35 -99 -90 -99 -55 0 -90 38 -90 99 0 61 35 99 90 99 19 0 42
-5 51 -12z"/>
<path d="M13430 13830 l0 -320 30 0 30 0 0 320 0 320 -30 0 -30 0 0 -320z"/>
<path d="M13318 14013 l-3 -128 -37 -3 c-33 -3 -38 -7 -38 -28 0 -21 4 -24 40
-24 l40 0 0 -155 0 -155 25 0 25 0 0 310 0 310 -25 0 -24 0 -3 -127z"/>
<path d="M6324 14117 c-2 -7 -3 -78 -2 -157 l3 -145 133 -3 132 -3 0 161 0
161 -27 -3 c-26 -3 -28 -7 -31 -55 l-3 -53 -75 0 -74 0 0 55 c0 52 -1 55 -25
55 -14 0 -28 -6 -31 -13z m206 -197 l0 -50 -75 0 -75 0 0 50 0 50 75 0 75 0 0
-50z"/>
<path d="M7560 13995 l0 -135 185 0 186 0 -3 133 -3 132 -182 3 -183 2 0 -135z
m310 -5 l0 -80 -130 0 -130 0 0 80 0 80 130 0 130 0 0 -80z"/>
<path d="M8717 14123 c-4 -3 -7 -17 -7 -30 0 -22 2 -23 90 -23 l90 0 0 30 0
30 -83 0 c-46 0 -87 -3 -90 -7z"/>
<path d="M10320 14020 l0 -110 75 0 75 0 0 -40 0 -40 -120 0 -120 0 0 -25 0
-25 275 0 275 0 0 25 0 25 -125 0 -125 0 0 40 0 40 85 0 c84 0 85 0 85 25 l0
25 -165 0 -165 0 0 60 0 60 160 0 160 0 0 25 0 25 -185 0 -185 0 0 -110z"/>
<path d="M12020 14015 l0 -115 185 0 185 0 0 115 0 115 -185 0 -185 0 0 -115z
m310 0 l0 -65 -125 0 -125 0 0 65 0 65 125 0 125 0 0 -65z"/>
<path d="M8100 14098 c-57 -39 -75 -72 -74 -136 0 -105 54 -162 151 -162 44 0
58 5 86 30 19 16 40 43 47 60 18 44 8 130 -20 170 -43 60 -131 78 -190 38z
m119 -44 c32 -23 53 -77 45 -119 -17 -93 -127 -116 -169 -35 -50 96 42 211
124 154z"/>
<path d="M9200 14095 l0 -25 100 0 100 0 0 -40 0 -40 -100 0 -100 0 0 -96 0
-96 148 5 c174 6 192 10 192 44 0 22 -3 24 -22 18 -13 -3 -78 -9 -146 -12
l-123 -6 3 44 3 44 98 3 97 3 0 89 0 90 -125 0 -125 0 0 -25z"/>
<path d="M9946 14068 c-13 -98 -74 -179 -169 -224 l-37 -18 21 -22 c20 -21 24
-22 48 -10 46 25 105 76 137 122 l32 45 21 -34 c26 -43 98 -110 141 -132 33
-17 34 -17 51 6 18 24 18 24 -19 43 -61 31 -98 64 -137 121 -32 46 -37 59 -33
102 3 45 2 48 -23 51 -25 3 -27 0 -33 -50z"/>
<path d="M13060 14095 c0 -24 2 -25 75 -25 73 0 75 1 75 25 0 24 -2 25 -75 25
-73 0 -75 -1 -75 -25z"/>
<path d="M11450 14085 c0 -25 0 -25 95 -25 107 0 110 -2 75 -70 -30 -59 -75
-105 -147 -152 -63 -41 -64 -42 -45 -61 18 -17 22 -18 49 -4 16 9 55 37 87 62
l57 47 61 -57 62 -57 19 23 c19 24 19 24 -9 44 -16 11 -46 36 -66 56 l-37 35
24 51 c13 27 27 69 31 91 l7 42 -132 0 -131 0 0 -25z"/>
<path d="M5260 14065 l0 -25 111 0 111 0 -7 -37 c-18 -100 -96 -221 -180 -278
-52 -36 -54 -39 -38 -57 9 -10 22 -18 29 -18 8 0 45 29 82 65 96 90 148 193
167 328 l7 47 -141 0 -141 0 0 -25z"/>
<path d="M10800 14065 l0 -25 111 0 c100 0 110 -2 105 -17 -3 -10 -8 -31 -12
-48 -20 -89 -101 -200 -197 -270 -27 -19 -27 -21 -12 -43 l17 -23 36 27 c61
45 101 86 137 140 37 55 79 173 88 242 l5 42 -139 0 -139 0 0 -25z"/>
<path d="M5850 14045 l0 -25 131 0 132 0 -26 -20 c-40 -32 -129 -69 -206 -87
-65 -16 -68 -18 -59 -38 9 -20 14 -21 61 -13 29 6 78 20 109 33 l58 23 86 -31
c64 -23 90 -28 103 -20 32 20 16 36 -54 55 -38 11 -71 21 -74 23 -2 3 15 23
38 45 22 22 41 49 41 60 0 19 -7 20 -170 20 l-170 0 0 -25z"/>
<path d="M3072 14053 c-20 -4 -21 -6 -6 -20 11 -12 14 -27 10 -52 -3 -20 -6
-47 -6 -61 0 -21 -5 -17 -39 30 -29 40 -37 58 -29 67 13 16 10 16 -33 2 -19
-6 -41 -13 -49 -15 -10 -4 -7 -8 10 -17 27 -14 38 -64 22 -106 -8 -22 -10 -20
-47 34 -32 46 -37 58 -25 65 8 6 11 10 5 10 -15 0 -102 -29 -89 -29 6 -1 42
-44 79 -96 38 -52 72 -95 75 -95 4 0 11 37 16 83 l9 82 48 -62 c27 -35 52 -63
58 -63 5 0 9 49 9 113 0 75 4 117 12 125 12 12 10 13 -30 5z"/>
<path d="M8660 13989 l0 -31 100 7 100 7 0 -24 c0 -54 -112 -202 -187 -249
-36 -22 -41 -40 -18 -59 12 -10 23 -5 64 24 27 20 65 54 85 77 l37 40 22 -28
c12 -15 39 -46 59 -68 l38 -40 20 25 20 25 -33 29 c-17 17 -46 48 -63 69 l-32
40 24 51 c13 28 26 70 30 94 l7 42 -137 0 -136 0 0 -31z"/>
<path d="M13020 13995 c0 -25 1 -25 79 -25 l79 0 -10 -42 c-14 -65 -57 -137
-120 -199 -56 -57 -56 -57 -36 -76 20 -18 21 -17 85 52 59 63 66 68 76 50 6
-11 27 -38 48 -60 37 -39 37 -39 58 -21 l21 19 -44 47 c-67 72 -70 81 -48 148
11 31 23 74 26 95 l7 37 -111 0 -110 0 0 -25z"/>
<path d="M24927 13979 c-21 -11 -40 -26 -43 -34 -3 -7 -22 -16 -43 -20 -49 -8
-99 -39 -112 -69 -6 -13 -22 -29 -35 -35 -27 -12 -64 -66 -64 -93 0 -15 -9
-18 -49 -18 -38 0 -56 -6 -79 -25 -17 -14 -35 -25 -41 -25 -34 0 -90 -42 -108
-79 -10 -22 -23 -41 -30 -41 -21 0 -85 -63 -99 -97 -19 -43 -18 -107 2 -144
10 -21 13 -43 9 -69 -6 -36 8 -80 44 -140 5 -8 16 -32 25 -53 9 -21 29 -45 45
-54 28 -17 28 -17 13 -56 -13 -32 -14 -46 -4 -83 7 -24 12 -58 12 -74 0 -40
23 -94 47 -111 11 -8 23 -30 27 -50 8 -47 43 -98 85 -126 26 -18 48 -23 96
-23 37 0 75 -7 94 -16 24 -12 45 -15 79 -9 26 3 73 10 104 14 38 4 65 14 81
29 23 22 24 22 42 3 20 -24 75 -44 107 -40 13 1 42 -4 65 -11 37 -11 48 -11
90 6 30 11 67 17 98 16 93 -5 184 68 185 149 0 15 12 37 30 54 32 30 53 81 49
117 -1 13 3 42 10 64 11 34 11 49 1 80 -11 32 -11 39 1 43 25 8 68 58 75 87 4
15 18 43 31 62 24 36 27 52 24 114 -2 20 5 50 13 67 20 37 21 101 2 144 -14
34 -78 97 -99 97 -7 0 -20 18 -29 40 -13 32 -27 45 -65 63 -26 13 -64 33 -83
45 -22 14 -51 22 -77 22 -40 0 -43 2 -52 36 -7 24 -34 60 -84 109 -59 59 -81
74 -114 80 -23 3 -49 16 -60 27 -44 50 -148 63 -216 27z m162 -64 c16 -14 33
-34 36 -45 5 -15 12 -18 40 -13 42 7 82 -16 91 -52 4 -14 13 -25 23 -25 27 0
61 -38 61 -69 0 -17 -10 -37 -27 -53 -41 -39 -131 -81 -183 -86 l-45 -4 -35
71 -34 71 -33 -71 -33 -72 -49 6 c-95 11 -211 87 -211 137 0 29 39 70 65 70 7
0 18 13 24 29 16 36 51 55 90 48 25 -5 33 -2 42 16 34 69 121 89 178 42z
m-466 -283 c22 -24 47 -125 47 -189 0 -61 -23 -93 -67 -93 -16 0 -45 -3 -66
-7 l-39 -6 57 -57 57 -57 -21 -41 c-25 -50 -111 -135 -152 -152 -27 -11 -34
-11 -57 7 -18 13 -28 31 -30 54 -2 18 -14 44 -28 58 -29 28 -32 76 -7 104 17
18 17 19 0 28 -23 13 -47 62 -47 94 0 58 55 115 110 115 15 0 20 6 20 24 0 38
41 79 78 79 18 0 32 4 32 9 0 4 9 17 20 28 25 25 72 26 93 2z m875 -8 c12 -8
22 -21 22 -28 0 -7 12 -13 30 -13 40 0 80 -38 80 -75 0 -19 5 -28 16 -28 55 0
114 -59 114 -115 0 -32 -24 -81 -46 -93 -16 -9 -16 -11 0 -33 22 -32 20 -71
-4 -97 -12 -12 -24 -22 -28 -22 -4 0 -7 -16 -7 -36 0 -28 -6 -41 -28 -58 l-28
-21 -45 24 c-49 27 -109 88 -139 145 l-19 36 58 59 58 58 -73 11 c-49 7 -78
17 -86 28 -26 35 -6 192 31 249 19 29 60 33 94 9z m-190 -107 l-10 -57 -32 27
c-17 16 -32 33 -33 38 -2 8 78 57 83 52 1 -1 -3 -28 -8 -60z m-536 32 l42 -21
-25 -19 c-52 -41 -56 -41 -63 -1 -7 46 -8 62 -1 62 3 0 24 -10 47 -21z m389
-67 c196 -96 260 -341 137 -519 -63 -92 -168 -145 -286 -144 -100 0 -173 30
-243 100 -181 182 -114 484 129 576 59 23 206 16 263 -13z m-543 -424 c6 -18
13 -41 17 -52 7 -15 4 -17 -11 -13 -10 3 -36 8 -58 12 l-39 6 39 40 c21 21 39
39 41 39 1 0 6 -15 11 -32z m872 -52 c-3 -2 -27 -7 -54 -11 -53 -8 -52 -11
-24 64 l9 25 36 -37 c21 -20 35 -38 33 -41z m-849 -81 c75 -27 79 -34 63 -118
-8 -40 -14 -73 -14 -75 0 -1 31 14 70 33 l69 35 34 -29 c62 -55 117 -186 94
-227 -6 -11 -15 -22 -21 -26 -16 -11 -74 -10 -81 2 -4 6 -18 1 -35 -11 -34
-26 -70 -20 -102 16 -19 22 -23 23 -42 10 -26 -19 -79 -19 -114 -1 -37 19 -57
60 -55 112 1 37 -1 43 -23 48 -32 8 -58 65 -45 98 7 18 4 29 -10 47 -26 32
-24 57 7 88 24 24 30 25 93 19 38 -3 88 -13 112 -21z m945 -11 c20 -19 24 -31
19 -52 -3 -15 -12 -33 -19 -40 -9 -9 -12 -29 -9 -56 5 -38 2 -45 -22 -64 -15
-12 -33 -22 -39 -22 -7 0 -10 -16 -8 -44 5 -53 -9 -81 -51 -106 -39 -24 -85
-26 -115 -4 -22 15 -24 14 -47 -10 -27 -30 -78 -35 -105 -11 -13 12 -22 13
-48 3 -28 -11 -35 -10 -59 9 -22 16 -28 28 -27 56 2 66 94 217 131 217 9 0 45
-16 79 -35 l63 -34 -5 27 c-23 126 -23 122 -1 143 11 10 23 19 26 19 3 1 29 7
56 15 28 7 74 14 103 14 44 1 57 -3 78 -25z m-529 -164 c-33 -70 -43 -90 -48
-90 -4 0 -49 84 -49 93 0 1 22 2 50 2 27 0 49 -2 47 -5z"/>
<path d="M25117 13444 c-4 -4 -7 -20 -7 -36 0 -24 -4 -28 -30 -28 -20 0 -30
-5 -30 -15 0 -10 10 -15 30 -15 27 0 30 -3 30 -30 0 -28 3 -30 35 -30 l36 0
-3 78 c-3 74 -4 77 -28 80 -14 2 -29 0 -33 -4z"/>
<path d="M24840 13425 c0 -11 11 -15 39 -15 34 0 38 -2 34 -20 -7 -25 -59 -70
-81 -70 -15 0 -15 -1 0 -16 15 -15 20 -14 66 9 l50 25 51 -26 c49 -23 53 -24
69 -9 15 16 15 17 -1 17 -21 0 -87 58 -87 76 0 10 12 14 40 14 29 0 40 4 40
15 0 12 -19 15 -110 15 -91 0 -110 -3 -110 -15z"/>
<path d="M24935 13274 c-74 -18 -97 -44 -69 -75 38 -42 213 -51 284 -14 40 21
38 54 -5 74 -30 15 -172 24 -210 15z m178 -43 c16 -16 -5 -28 -61 -37 -84 -13
-166 22 -110 46 30 13 156 6 171 -9z"/>
<path d="M24850 13061 c0 -44 4 -60 16 -65 9 -3 81 -6 160 -6 l144 0 0 65 0
65 -30 0 c-20 0 -30 -5 -30 -15 0 -12 -18 -15 -100 -15 -82 0 -100 3 -100 15
0 10 -10 15 -30 15 -30 0 -30 0 -30 -59z m260 -21 c0 -19 -7 -20 -100 -20 -93
0 -100 1 -100 20 0 19 7 20 100 20 93 0 100 -1 100 -20z"/>
<path d="M24820 12945 c0 -12 16 -15 80 -15 l80 0 0 -45 c0 -43 1 -45 30 -45
29 0 30 2 30 45 l0 45 80 0 c64 0 80 3 80 15 0 13 -28 15 -190 15 -162 0 -190
-2 -190 -15z"/>
<path d="M2713 13935 l-33 -14 0 -88 0 -87 -63 62 c-62 61 -62 62 -99 50 -35
-10 -36 -12 -18 -27 27 -24 81 -173 68 -188 -14 -18 10 -16 42 2 24 14 24 14
3 15 -17 0 -26 12 -41 53 -11 28 -25 66 -32 82 -9 24 5 15 69 -50 l81 -80 0
115 c0 127 4 128 46 12 23 -62 25 -75 13 -83 -22 -14 1 -10 48 7 40 16 41 17
24 33 -24 21 -75 156 -68 181 6 23 3 24 -40 5z"/>
<path d="M27715 13820 c-255 -55 -450 -229 -532 -475 -24 -71 -27 -95 -28
-220 0 -156 17 -235 78 -349 38 -72 152 -195 213 -231 61 -36 67 -25 10 16
-25 18 -46 37 -46 42 0 6 10 1 23 -10 32 -30 145 -84 152 -74 6 10 -46 51 -65
51 -16 0 -82 41 -76 47 2 3 14 0 25 -7 30 -16 27 6 -4 26 -14 9 -22 20 -19 25
3 5 -9 27 -26 49 -17 22 -27 40 -21 40 5 0 22 -16 37 -35 15 -21 33 -34 41
-31 16 6 17 -6 2 -21 -8 -8 3 -21 37 -47 32 -25 50 -33 55 -25 4 6 12 8 18 5
6 -4 11 -3 11 3 0 16 -22 25 -30 12 -5 -9 -10 -8 -20 4 -7 8 -10 18 -6 22 3 3
-1 14 -10 24 -17 19 -26 81 -10 76 5 -2 16 -14 25 -27 10 -14 11 -21 4 -16 -8
4 -13 2 -13 -7 0 -16 89 -79 128 -91 12 -4 22 -13 22 -20 0 -7 11 -18 25 -24
36 -17 43 -14 20 6 -11 9 -27 26 -35 36 -14 18 -14 19 7 8 12 -7 25 -12 29
-12 12 0 -28 40 -40 40 -13 1 -66 46 -66 57 0 4 -19 27 -42 50 -23 24 -38 43
-32 43 6 0 26 -16 44 -35 46 -48 135 -108 151 -103 7 2 -3 16 -26 34 -42 31
-136 126 -174 175 -37 48 -15 47 28 -2 26 -29 40 -38 41 -28 0 9 -6 22 -14 28
-16 14 -52 123 -67 208 -30 161 67 322 231 384 108 41 260 11 351 -69 45 -39
96 -130 77 -137 -7 -2 -101 -25 -208 -50 -107 -25 -199 -47 -205 -48 -5 -2 35
-14 90 -26 55 -13 104 -26 108 -30 4 -4 -40 -18 -99 -31 -77 -17 -102 -26 -88
-32 10 -4 100 -26 199 -49 99 -22 181 -42 183 -44 9 -9 -43 -67 -95 -107 -31
-24 -64 -59 -74 -78 -36 -66 -15 -174 42 -227 97 -89 224 -61 354 79 83 89
133 170 165 270 14 40 25 74 26 76 1 2 38 -5 83 -16 l81 -19 0 234 c0 219 -1
234 -17 229 -76 -23 -155 -37 -162 -30 -4 5 -16 29 -26 54 -53 123 -144 237
-248 309 -64 44 -179 97 -252 116 -97 26 -235 28 -340 5z"/>
<path d="M11930 13800 l0 -30 130 0 130 0 0 -65 0 -65 30 0 30 0 0 65 0 65
115 0 115 0 0 30 0 30 -275 0 -275 0 0 -30z"/>
<path d="M5760 13795 l0 -25 125 0 125 0 0 -40 0 -40 -86 0 c-83 0 -85 -1 -82
-22 3 -23 6 -23 166 -26 l162 -2 0 -70 c0 -68 1 -70 25 -70 25 0 25 0 25 95
l0 94 -77 3 -78 3 -3 38 -3 37 125 0 126 0 0 25 0 25 -275 0 -275 0 0 -25z"/>
<path d="M9940 13730 l0 -80 -120 0 -120 0 0 -25 0 -25 270 0 270 0 0 25 0 25
-120 0 -120 0 0 80 0 80 -30 0 -30 0 0 -80z"/>
<path d="M2338 13658 l-3 -134 27 10 c22 8 25 12 13 19 -28 15 -18 52 19 70
32 15 35 15 51 -3 15 -16 15 -22 5 -35 -9 -11 0 -10 38 6 l50 21 -47 41 c-25
22 -69 63 -98 91 l-52 49 -3 -135z m52 17 c25 -27 25 -27 -6 -43 -19 -10 -23
-8 -28 11 -8 31 -7 57 2 57 5 0 19 -11 32 -25z"/>
<path d="M7470 13755 l0 -25 125 0 125 0 0 -110 0 -110 25 0 25 0 0 110 0 110
120 0 120 0 0 25 0 25 -270 0 -270 0 0 -25z"/>
<path d="M12590 13650 l0 -130 180 0 180 0 0 130 0 130 -30 0 c-28 0 -30 -2
-30 -40 l0 -40 -125 0 -125 0 0 40 c0 36 -2 40 -25 40 l-25 0 0 -130z m300
-40 l0 -40 -125 0 -125 0 0 40 0 40 125 0 125 0 0 -40z"/>
<path d="M6478 13724 c-59 -18 -88 -53 -88 -106 0 -72 72 -118 185 -118 113 0
185 46 185 118 0 54 -29 88 -92 107 -63 18 -128 18 -190 -1z m165 -45 c47 -13
73 -49 57 -79 -34 -63 -199 -66 -250 -6 -12 16 -12 21 1 44 25 45 112 64 192
41z"/>
<path d="M6940 13715 l0 -24 158 -3 157 -3 3 -92 c3 -91 3 -93 27 -93 l25 0 0
120 0 120 -185 0 -185 0 0 -25z"/>
<path d="M9348 13724 c-59 -18 -88 -53 -88 -106 0 -72 72 -118 185 -118 113 0
185 46 185 118 0 54 -29 88 -92 107 -63 18 -128 18 -190 -1z m196 -57 c32 -22
35 -66 5 -93 -15 -14 -39 -19 -92 -22 -76 -3 -110 8 -133 43 -19 29 2 67 46
82 47 17 141 11 174 -10z"/>
<path d="M2190 13712 c0 -4 -14 -12 -32 -17 -43 -14 -71 -53 -62 -89 8 -34 54
-56 118 -56 37 0 46 -4 52 -22 5 -16 1 -27 -16 -40 -28 -23 -41 -23 -73 2 -35
28 -39 25 -20 -15 16 -33 33 -46 33 -25 0 6 12 10 26 10 30 0 84 50 84 78 0
11 -9 31 -21 46 -18 23 -28 26 -79 26 -65 0 -92 18 -73 48 14 24 57 26 88 6
l26 -17 -17 36 c-16 34 -34 49 -34 29z"/>
<path d="M3490 13714 c-176 -22 -416 -84 -611 -158 -182 -69 -454 -204 -564
-280 l-29 -20 24 -6 c36 -9 56 -1 69 26 7 16 19 24 36 24 l25 0 0 -185 0 -185
-24 0 c-20 0 -27 8 -41 49 -30 92 -129 221 -169 221 -11 0 -187 -126 -276
-199 l-25 -20 24 -25 c13 -14 110 -69 214 -122 212 -108 262 -146 310 -239 28
-54 31 -69 32 -150 0 -77 -4 -98 -26 -146 -52 -110 -148 -183 -277 -210 -85
-17 -231 -7 -328 25 -88 28 -111 26 -125 -10 -6 -17 -16 -24 -34 -24 l-25 0 0
210 0 210 24 0 c21 0 27 -8 41 -57 39 -135 105 -227 197 -272 52 -26 73 -31
135 -31 40 0 88 6 106 14 95 40 139 170 89 263 -21 39 -73 73 -242 158 -128
65 -182 98 -223 138 -30 28 -59 61 -66 72 -10 19 -15 16 -72 -44 -161 -168
-308 -412 -350 -580 -28 -110 -23 -251 10 -326 81 -181 281 -275 588 -275 478
0 1087 236 1596 618 73 55 138 106 144 113 9 11 -10 72 -78 264 -120 337 -120
338 -129 328 -7 -6 -201 -501 -292 -740 -17 -46 -23 -53 -46 -53 -27 0 -30 8
-216 541 -105 298 -198 552 -208 564 -10 13 -32 26 -48 30 -23 5 -30 12 -30
31 l0 24 250 0 250 0 0 -25 c0 -20 -5 -25 -26 -25 -47 0 -83 -28 -84 -65 -1
-31 213 -676 221 -668 4 5 50 121 103 259 l95 251 -31 86 c-36 101 -55 125
-108 133 -34 6 -40 10 -40 30 l0 24 265 0 265 0 0 -24 c0 -20 -6 -24 -45 -28
-55 -7 -75 -22 -75 -57 0 -15 45 -169 100 -342 56 -172 102 -318 104 -324 3
-12 196 575 203 622 11 68 -19 103 -88 103 -26 0 -30 3 -27 23 3 22 6 22 156
25 l152 3 0 -25 c0 -16 -7 -26 -23 -30 -53 -13 -73 -53 -162 -326 -48 -146
-90 -272 -92 -280 -7 -25 54 49 116 140 270 394 257 735 -33 882 -102 51 -193
70 -366 73 -85 2 -171 1 -190 -1z"/>
<path d="M8120 13621 l0 -101 185 0 185 0 0 25 0 25 -155 0 -154 0 -3 73 c-3
70 -4 72 -30 75 l-28 3 0 -100z"/>
<path d="M10310 13685 l0 -25 160 0 159 0 3 -77 c3 -77 3 -78 31 -81 l27 -3 0
105 0 106 -190 0 -190 0 0 -25z"/>
<path d="M11530 13616 l0 -96 185 0 185 0 0 25 0 25 -155 0 -154 0 -3 68 c-3
65 -4 67 -30 70 l-28 3 0 -95z"/>
<path d="M12020 13616 l0 -96 195 0 195 0 0 25 0 25 -165 0 -164 0 -3 68 c-3
65 -4 67 -30 70 l-28 3 0 -95z"/>
<path d="M2005 13243 c-11 -3 -41 -21 -67 -40 -47 -34 -68 -74 -68 -130 0 -26
22 -30 40 -8 7 8 59 50 117 92 92 69 101 79 81 85 -27 7 -75 8 -103 1z"/>
<path d="M8506 13083 c-19 -19 -2 -45 42 -67 81 -41 76 -17 82 -420 l5 -361
69 -3 c63 -3 71 -1 98 24 40 39 48 79 48 237 l0 137 105 0 105 0 11 27 c13 35
3 90 -19 102 -9 5 -59 6 -109 2 l-93 -6 0 135 c0 74 -4 141 -8 148 -5 8 -58
18 -138 27 -71 8 -143 17 -161 19 -17 2 -34 2 -37 -1z"/>
<path d="M10110 13075 c-16 -19 -7 -31 41 -56 84 -42 79 -15 79 -410 l0 -350
-137 4 c-76 3 -152 8 -169 12 -60 13 -58 -36 4 -103 l39 -42 131 0 132 0 0
-49 c0 -79 2 -81 85 -81 71 0 74 1 104 35 l31 36 0 488 0 489 -37 6 c-21 3
-85 10 -143 16 -58 6 -115 13 -126 15 -12 3 -27 -2 -34 -10z"/>
<path d="M11659 13074 c-15 -18 -5 -30 49 -60 26 -15 53 -34 60 -42 9 -12 12
-163 12 -677 0 -501 3 -664 12 -673 7 -7 37 -12 69 -12 43 0 63 5 84 22 56 44
55 31 55 747 0 435 -3 662 -10 666 -6 4 -80 14 -165 24 -126 14 -158 15 -166
5z"/>
<path d="M13249 13074 c-15 -19 -12 -22 74 -74 l47 -30 0 -120 0 -120 -124 0
-124 0 -6 33 c-10 54 -63 134 -116 176 -203 161 -524 96 -628 -127 -38 -80
-38 -192 0 -274 103 -222 425 -288 628 -127 50 39 104 120 116 171 l6 28 124
0 124 0 0 -149 c0 -82 3 -156 6 -165 5 -13 22 -16 79 -16 71 0 74 1 104 35
l31 36 0 348 0 349 -37 6 c-21 3 -85 10 -143 16 -58 6 -115 13 -126 15 -12 3
-28 -2 -35 -11z m-438 -186 c21 -14 45 -46 64 -83 77 -154 -3 -365 -139 -365
-95 0 -166 100 -166 235 0 177 127 288 241 213z"/>
<path d="M9553 13050 c-113 -21 -212 -83 -244 -155 -43 -93 -15 -197 68 -261
78 -59 143 -78 273 -78 129 0 195 19 272 77 118 90 117 256 -1 343 -88 64
-245 96 -368 74z m175 -127 c95 -71 89 -199 -12 -247 -127 -60 -257 63 -197
186 39 82 141 112 209 61z"/>
<path d="M5675 13009 c-11 -17 3 -52 40 -94 l34 -40 175 -5 176 -5 -29 -50
c-37 -65 -155 -191 -234 -251 -34 -25 -97 -66 -139 -91 -79 -45 -83 -49 -72
-77 24 -64 320 58 541 223 l32 24 68 -50 c149 -111 286 -180 396 -203 50 -10
61 -9 82 4 57 38 35 110 -57 187 -60 50 -85 60 -201 79 -71 11 -200 57 -195
69 2 4 23 37 48 74 l44 67 166 0 c177 0 212 8 218 47 2 12 -2 31 -7 42 -11 19
-25 20 -498 23 -430 4 -493 6 -532 21 -51 20 -48 20 -56 6z"/>
<path d="M7813 13013 c-7 -3 -13 -13 -13 -24 0 -14 18 -28 64 -50 38 -18 68
-40 74 -53 14 -32 0 -91 -44 -179 -63 -126 -122 -203 -235 -310 -102 -97 -109
-106 -94 -121 22 -22 26 -21 103 18 91 46 192 119 282 203 l75 70 93 -88 c105
-99 169 -145 224 -159 93 -26 136 36 89 128 -32 61 -80 100 -146 117 -56 15
-127 48 -170 81 -17 12 -18 17 -7 35 31 49 91 178 102 217 22 85 22 84 -205
102 -77 6 -149 13 -160 14 -11 2 -26 2 -32 -1z"/>
<path d="M5324 12970 c-231 -151 -349 -433 -300 -720 20 -120 90 -267 167
-353 51 -57 186 -147 220 -147 35 0 28 30 -21 87 -62 72 -110 162 -145 273
-33 105 -45 312 -25 437 26 167 97 320 188 407 17 15 28 35 25 42 -9 24 -46
15 -109 -26z"/>
<path d="M7005 13001 c-4 -7 10 -30 32 -54 126 -137 182 -288 191 -520 9 -245
-49 -440 -178 -590 -54 -63 -58 -93 -11 -82 49 12 159 85 205 137 245 272 244
708 -2 970 -98 103 -216 172 -237 139z"/>
<path d="M1570 12873 c-233 -238 -379 -459 -450 -679 -68 -214 -56 -385 40
-533 108 -167 347 -261 665 -261 529 1 1235 273 1792 691 l92 69 -11 33 c-6
17 -12 33 -13 35 -2 2 -50 -32 -107 -76 -589 -447 -1290 -704 -1787 -654 -263
26 -436 122 -516 287 -85 172 -64 362 67 616 64 125 174 280 282 396 l67 72
-3 61 -3 62 -115 -119z"/>
<path d="M10834 12915 c-7 -17 23 -62 71 -104 l36 -31 190 0 190 0 -6 -22
c-48 -161 -189 -398 -327 -554 -35 -39 -102 -106 -150 -148 -49 -43 -88 -81
-88 -85 0 -13 24 -31 41 -31 31 0 179 81 260 142 105 79 251 226 333 335 82
109 158 255 186 357 20 72 20 79 6 102 l-16 24 -299 0 c-235 0 -308 3 -347 15
-61 19 -73 19 -80 0z"/>
<path d="M27675 12521 c-6 -10 53 -46 62 -38 2 3 -9 14 -26 26 -17 12 -32 17
-36 12z"/>
<path d="M9157 12493 c-16 -15 -5 -43 34 -86 l40 -46 147 -3 147 -3 5 -110 5
-110 59 -3 c62 -3 106 9 128 36 7 8 15 53 18 101 l5 86 130 6 c177 9 325 59
325 111 0 18 -4 19 -42 13 -24 -3 -237 -9 -474 -11 -377 -5 -436 -4 -469 10
-42 18 -49 19 -58 9z"/>
<path d="M5484 12289 c-3 -6 11 -36 32 -67 l39 -57 273 -3 272 -2 0 -256 c0
-157 4 -263 10 -275 9 -16 21 -19 73 -19 70 1 100 14 128 56 17 27 19 49 19
262 l0 232 296 0 c184 0 303 4 315 10 13 7 19 21 19 45 0 24 -6 38 -19 45 -13
6 -244 10 -681 10 -565 0 -666 2 -697 15 -42 18 -69 19 -79 4z"/>
<path d="M13275 12223 c-5 -13 5 -28 36 -54 37 -32 42 -43 47 -88 l5 -51 -252
0 -251 0 0 70 c0 64 -2 71 -22 80 -28 11 -259 40 -270 34 -19 -12 -5 -43 31
-72 l40 -32 3 -205 c3 -197 4 -205 26 -227 l23 -23 387 -3 c213 -2 402 0 420
3 18 3 42 15 53 26 18 18 19 35 19 269 l0 250 -22 5 c-24 5 -242 35 -257 35
-5 0 -12 -8 -16 -17z m85 -369 c0 -110 15 -104 -248 -104 -164 0 -231 3 -240
12 -7 7 -12 42 -12 85 l0 73 250 0 250 0 0 -66z"/>
<path d="M7833 12143 c-4 -11 0 -21 12 -27 10 -6 32 -23 49 -38 l31 -26 5
-175 c6 -196 10 -208 79 -227 21 -6 181 -10 379 -10 370 0 394 3 426 53 14 21
16 56 14 243 l-3 219 -493 3 c-455 2 -493 1 -499 -15z m777 -225 c0 -118 -3
-145 -17 -160 -15 -16 -35 -18 -211 -18 -168 0 -198 2 -214 17 -16 14 -18 33
-18 160 l0 143 230 0 230 0 0 -142z"/>
<path d="M23610 12075 c0 -43 -1 -45 -30 -45 -20 0 -30 -5 -30 -15 0 -10 10
-15 30 -15 29 0 30 -1 30 -50 0 -43 3 -50 20 -50 19 0 20 7 20 110 0 103 -1
110 -20 110 -17 0 -20 -7 -20 -45z"/>
<path d="M24570 12030 c0 -83 1 -90 20 -90 16 0 20 7 20 35 0 28 4 35 20 35
13 0 20 7 20 20 0 13 -7 20 -20 20 -16 0 -20 7 -20 35 0 28 -4 35 -20 35 -19
0 -20 -7 -20 -90z"/>
<path d="M24960 11984 c0 -124 2 -135 18 -132 14 3 18 16 20 66 3 54 6 62 22
62 13 0 20 7 20 20 0 13 -7 20 -20 20 -17 0 -20 7 -20 50 0 43 -3 50 -20 50
-19 0 -20 -7 -20 -136z"/>
<path d="M25280 11935 c0 -178 1 -185 20 -185 19 0 20 7 20 95 0 95 0 95 25
95 18 0 25 5 25 20 0 15 -7 20 -25 20 -24 0 -25 2 -25 70 0 63 -2 70 -20 70
-19 0 -20 -7 -20 -185z"/>
<path d="M25630 11935 c0 -178 1 -185 20 -185 19 0 20 7 20 185 0 178 -1 185
-20 185 -19 0 -20 -7 -20 -185z"/>
<path d="M25930 12009 c0 -100 2 -110 18 -107 10 2 18 14 20 31 2 19 9 27 23
27 10 0 19 7 19 15 0 8 -9 15 -20 15 -15 0 -20 7 -20 25 0 18 5 25 20 25 11 0
20 7 20 15 0 8 -9 15 -20 15 -15 0 -20 7 -20 25 0 18 -5 25 -20 25 -19 0 -20
-7 -20 -111z"/>
<path d="M26210 12056 c0 -64 -1 -66 -25 -66 -16 0 -25 -6 -25 -15 0 -9 9 -15
25 -15 25 0 25 0 25 -95 0 -89 1 -95 20 -95 20 0 20 5 18 172 -3 155 -5 173
-20 176 -16 3 -18 -5 -18 -62z"/>
<path d="M26280 11935 c0 -158 2 -185 15 -185 13 0 15 27 15 185 0 158 -2 185
-15 185 -13 0 -15 -27 -15 -185z"/>
<path d="M27650 12095 c0 -22 -4 -25 -40 -25 -33 0 -40 -3 -40 -20 0 -19 7
-20 95 -20 88 0 95 1 95 20 0 17 -7 20 -40 20 -36 0 -40 3 -40 25 0 16 -6 25
-15 25 -9 0 -15 -9 -15 -25z"/>
<path d="M27810 12045 c0 -73 -1 -75 -25 -75 -32 0 -34 -27 -2 -32 21 -3 22
-8 25 -95 2 -85 4 -93 22 -93 19 0 20 8 20 185 0 178 -1 185 -20 185 -18 0
-20 -7 -20 -75z"/>
<path d="M28250 12100 c0 -19 7 -20 95 -20 78 0 95 -3 95 -15 0 -12 -17 -15
-95 -15 l-95 0 0 -50 0 -50 50 0 c38 0 50 -4 50 -15 0 -12 -14 -15 -70 -15
-56 0 -70 -3 -70 -15 0 -13 24 -15 155 -15 131 0 155 2 155 15 0 12 -14 15
-70 15 -54 0 -70 3 -70 14 0 11 15 16 53 18 38 2 52 7 52 18 0 12 -19 16 -97
18 -78 2 -98 6 -98 17 0 12 18 15 95 15 l95 0 0 50 0 50 -115 0 c-108 0 -115
-1 -115 -20z"/>
<path d="M23730 12030 l0 -80 115 0 115 0 0 80 c0 64 -3 80 -15 80 -9 0 -15
-9 -15 -25 0 -25 -1 -25 -80 -25 -79 0 -80 0 -80 25 0 18 -5 25 -20 25 -18 0
-20 -7 -20 -80z m200 -25 c0 -25 -1 -25 -80 -25 -79 0 -80 0 -80 25 0 25 1 25
80 25 79 0 80 0 80 -25z"/>
<path d="M25560 12065 c0 -38 -3 -45 -20 -45 -16 0 -20 7 -20 30 l0 30 -66 0
c-57 0 -65 -2 -62 -17 2 -14 15 -19 49 -21 l47 -3 -8 -32 c-10 -46 -27 -77
-67 -118 -29 -30 -32 -38 -20 -48 12 -9 23 -2 60 39 25 28 48 64 52 80 5 23
12 30 31 30 20 0 24 -5 24 -30 0 -25 -4 -30 -25 -30 -18 0 -25 -5 -25 -20 0
-15 7 -20 25 -20 24 0 25 -3 25 -60 0 -53 2 -60 20 -60 19 0 20 7 20 170 0
163 -1 170 -20 170 -17 0 -20 -7 -20 -45z"/>
<path d="M26380 12095 c0 -9 9 -15 25 -15 22 0 25 -4 25 -35 0 -31 -3 -35 -25
-35 -16 0 -25 -6 -25 -15 0 -13 21 -15 125 -15 104 0 125 2 125 15 0 9 -9 15
-25 15 -22 0 -25 4 -25 35 0 31 3 35 25 35 16 0 25 6 25 15 0 13 -21 15 -125
15 -104 0 -125 -2 -125 -15z m160 -50 c0 -34 -1 -35 -40 -35 -39 0 -40 1 -40
35 0 34 1 35 40 35 39 0 40 -1 40 -35z"/>
<path d="M27280 12035 l0 -75 115 0 c96 0 115 3 115 15 0 12 -17 15 -95 15
-78 0 -95 3 -95 15 0 12 17 15 90 15 73 0 90 3 90 15 0 12 -17 15 -90 15 -73
0 -90 3 -90 15 0 12 17 15 95 15 78 0 95 3 95 15 0 12 -19 15 -115 15 l-115 0
0 -75z"/>
<path d="M27930 12045 l0 -65 115 0 c96 0 115 3 115 15 0 12 -17 15 -95 15
l-95 0 0 35 0 35 95 0 c78 0 95 3 95 15 0 12 -19 15 -115 15 l-115 0 0 -65z"/>
<path d="M23390 12080 c0 -16 7 -20 35 -20 19 0 35 -2 35 -5 0 -21 -36 -84
-58 -102 -22 -17 -25 -24 -14 -35 16 -16 39 -3 68 39 l21 31 27 -34 c15 -19
33 -34 41 -34 28 0 25 21 -10 55 -21 22 -35 45 -35 60 0 21 5 25 30 25 23 0
30 4 30 20 0 18 -7 20 -85 20 -78 0 -85 -2 -85 -20z"/>
<path d="M24360 12025 l0 -75 68 0 c82 0 112 8 112 27 0 13 -12 14 -70 8 l-70
-7 0 46 0 46 55 0 c42 0 55 3 55 15 0 12 -15 15 -75 15 l-75 0 0 -75z"/>
<path d="M25735 12075 c-33 -32 -33 -84 -1 -122 19 -22 32 -28 65 -28 55 0 86
31 86 84 0 83 -93 123 -150 66z m93 -21 c41 -28 19 -94 -32 -94 -30 0 -46 18
-46 51 0 24 30 59 50 59 3 0 16 -7 28 -16z"/>
<path d="M24050 12075 c0 -11 12 -15 50 -15 43 0 50 -3 50 -19 0 -27 -43 -76
-80 -91 -16 -7 -30 -19 -30 -27 0 -26 61 -6 101 33 l36 35 15 -23 c20 -30 81
-63 102 -55 26 10 19 20 -28 46 -38 20 -76 67 -76 95 0 3 25 6 55 6 42 0 55 3
55 15 0 13 -21 15 -125 15 -104 0 -125 -2 -125 -15z"/>
<path d="M24750 12005 l0 -85 68 0 c82 0 112 8 112 27 0 13 -12 14 -70 8 l-70
-7 0 56 0 56 55 0 c42 0 55 3 55 15 0 12 -15 15 -75 15 l-75 0 0 -85z"/>
<path d="M9410 12065 c-16 -19 -9 -27 50 -55 58 -27 57 -26 63 -160 2 -53 9
-106 16 -118 6 -12 31 -32 54 -44 41 -23 49 -23 436 -26 347 -3 396 -1 418 13
17 12 23 24 21 43 -6 49 -26 52 -374 52 -298 0 -322 1 -337 18 -14 15 -17 40
-17 126 0 59 -4 116 -10 126 -10 19 -32 22 -232 34 -57 3 -80 1 -88 -9z"/>
<path d="M25070 12065 c0 -12 13 -15 60 -15 71 0 74 -8 34 -88 -20 -41 -64
-87 -102 -108 -6 -3 11 -34 19 -34 5 0 29 18 53 40 50 47 81 105 91 173 l7 47
-81 0 c-65 0 -81 -3 -81 -15z"/>
<path d="M26030 12065 c0 -10 10 -15 30 -15 29 0 30 -2 30 -45 0 -52 -19 -104
-48 -133 -18 -18 -19 -22 -6 -33 18 -15 36 -1 59 48 l18 37 15 -30 c8 -16 22
-37 30 -47 15 -17 17 -17 28 -2 10 13 8 21 -12 42 -26 28 -44 81 -44 131 0 29
3 32 30 32 20 0 30 5 30 15 0 12 -16 15 -80 15 -64 0 -80 -3 -80 -15z"/>
<path d="M27633 11995 c-35 -15 -43 -31 -43 -85 0 -71 76 -104 125 -55 27 26
34 80 15 115 -15 28 -61 40 -97 25z m61 -41 c19 -18 20 -38 6 -65 -12 -21 -50
-25 -68 -7 -26 26 -3 88 33 88 7 0 21 -7 29 -16z"/>
<path d="M26350 11930 c0 -18 6 -20 65 -20 58 0 65 -2 65 -20 0 -17 -7 -20
-45 -20 l-45 0 0 -55 0 -55 115 0 115 0 0 54 0 55 -47 3 c-36 2 -49 7 -51 21
-3 15 5 17 68 17 63 0 71 2 68 18 -3 15 -20 17 -156 20 -147 2 -152 2 -152
-18z m230 -115 c0 -24 -2 -25 -75 -25 -73 0 -75 1 -75 25 0 24 2 25 75 25 73
0 75 -1 75 -25z"/>
<path d="M27890 11930 c0 -19 7 -20 150 -20 143 0 150 1 150 20 0 19 -7 20
-150 20 -143 0 -150 -1 -150 -20z"/>
<path d="M27240 11910 c0 -20 5 -20 152 -18 136 3 153 5 156 21 3 16 -9 17
-152 17 -150 0 -156 -1 -156 -20z"/>
<path d="M24150 11875 l0 -45 -65 0 c-51 0 -65 -3 -65 -15 0 -13 24 -15 155
-15 131 0 155 2 155 15 0 12 -14 15 -70 15 l-70 0 0 45 c0 38 -3 45 -20 45
-17 0 -20 -7 -20 -45z"/>
<path d="M24390 11905 c0 -12 17 -15 90 -15 83 0 90 -1 90 -20 0 -19 -7 -20
-90 -20 l-90 0 0 -45 0 -45 115 0 c96 0 115 3 115 15 0 12 -17 15 -95 15 -77
0 -95 3 -95 15 0 11 19 15 88 17 l87 3 3 48 3 47 -110 0 c-92 0 -111 -3 -111
-15z"/>
<path d="M23700 11890 c0 -18 7 -20 65 -20 l65 0 0 -60 c0 -53 2 -60 20 -60
18 0 20 7 20 60 l0 60 65 0 c58 0 65 2 65 20 0 19 -7 20 -150 20 -143 0 -150
-1 -150 -20z"/>
<path d="M23480 11883 c-52 -20 -66 -75 -29 -109 16 -15 36 -19 89 -19 77 0
110 19 110 65 0 42 -32 63 -98 67 -31 1 -64 0 -72 -4z m121 -42 c22 -18 23
-21 8 -36 -36 -36 -139 -26 -139 14 0 42 89 56 131 22z"/>
<path d="M25750 11870 c0 -19 6 -20 90 -20 l90 0 0 -50 c0 -44 3 -50 20 -50
19 0 21 5 18 68 l-3 67 -107 3 c-103 3 -108 2 -108 -18z"/>
<path d="M27980 11877 c-44 -15 -65 -53 -46 -82 28 -43 106 -58 175 -34 68 24
58 98 -16 118 -47 13 -69 13 -113 -2z m130 -43 c22 -26 -11 -49 -70 -49 -59 0
-92 23 -70 49 8 11 30 16 70 16 40 0 62 -5 70 -16z"/>
<path d="M24780 11820 l0 -60 115 0 c96 0 115 3 115 15 0 12 -17 15 -95 15
l-95 0 0 45 c0 38 -3 45 -20 45 -18 0 -20 -7 -20 -60z"/>
<path d="M27280 11845 c0 -12 17 -15 95 -15 l95 0 0 -40 c0 -33 3 -40 20 -40
18 0 20 7 20 55 l0 55 -115 0 c-96 0 -115 -3 -115 -15z"/>
<path d="M28250 11845 c0 -12 17 -15 94 -15 l95 0 3 -37 c2 -27 8 -39 21 -41
14 -3 17 5 17 52 l0 56 -115 0 c-96 0 -115 -3 -115 -15z"/>
<path d="M10670 10636 c0 -2 7 -7 16 -10 8 -3 12 -2 9 4 -6 10 -25 14 -25 6z"/>
<path d="M10180 10560 c-6 -11 -8 -20 -6 -20 3 0 10 9 16 20 6 11 8 20 6 20
-3 0 -10 -9 -16 -20z"/>
<path d="M10776 10495 c-3 -9 -11 -13 -17 -9 -8 4 -9 3 -5 -5 4 -6 11 -9 16
-6 5 3 14 -4 20 -15 6 -11 15 -18 20 -15 4 3 22 -13 40 -34 21 -28 36 -38 47
-34 10 4 14 2 10 -4 -3 -5 0 -10 8 -10 8 0 14 3 13 6 -2 21 5 22 28 0 24 -22
26 -22 16 -3 -23 44 -71 86 -94 82 -14 -2 -22 -9 -20 -18 2 -8 0 -12 -4 -7 -4
4 -9 18 -11 30 -2 16 0 18 6 8 5 -8 11 -9 15 -3 6 11 -18 25 -47 26 -10 1 -21
7 -26 14 -7 11 -9 10 -15 -3z m44 -20 c9 2 16 -5 16 -16 0 -12 -4 -15 -12 -9
-6 6 -13 8 -15 5 -3 -2 -11 6 -18 18 -12 19 -12 20 0 11 8 -6 21 -10 29 -9z
m102 -74 c4 -18 -39 -22 -53 -5 -8 10 -5 12 16 8 23 -4 26 -2 21 13 -5 12 -4
15 3 8 5 -5 11 -16 13 -24z"/>
<path d="M12290 10335 l0 -165 -265 0 -265 0 0 -40 0 -40 266 0 266 0 -7 -82
c-43 -532 -211 -910 -458 -1033 -39 -19 -76 -35 -83 -35 -10 0 -14 -13 -14
-41 0 -41 0 -41 33 -35 17 3 64 21 103 40 169 80 324 288 405 544 13 39 25 72
28 71 4 0 132 -148 286 -330 154 -181 283 -329 286 -329 3 0 17 12 31 28 l26
27 -235 275 c-129 151 -265 311 -303 355 l-69 81 19 109 c10 61 21 151 25 200
3 50 8 105 11 123 l5 32 249 0 250 0 0 40 0 40 -250 0 -250 0 0 165 0 165 -45
0 -45 0 0 -165z"/>
<path d="M13167 10493 c-4 -3 -7 -402 -7 -885 l0 -878 45 0 45 0 0 455 0 455
140 0 140 0 0 40 0 40 -140 0 -140 0 0 390 0 390 -38 0 c-21 0 -42 -3 -45 -7z"/>
<path d="M15060 9971 l0 -531 45 0 45 0 0 140 0 140 135 0 135 0 0 40 0 40
-135 0 -135 0 0 180 0 180 135 0 135 0 0 40 0 40 -135 0 -134 0 -3 128 -3 127
-42 3 -43 3 0 -530z"/>
<path d="M20800 9616 l0 -886 45 0 45 0 -2 883 -3 882 -42 3 -43 3 0 -885z"/>
<path d="M9790 10460 c-6 -11 -8 -20 -6 -20 3 0 10 9 16 20 6 11 8 20 6 20 -3
0 -10 -9 -16 -20z"/>
<path d="M16407 10409 c-70 -292 -274 -609 -492 -764 -108 -78 -258 -134 -357
-135 -26 0 -28 -3 -28 -40 l0 -40 43 0 c24 0 79 9 123 20 216 55 416 210 580
450 l60 88 385 -279 c211 -153 388 -278 393 -276 13 4 51 56 45 60 -2 2 -177
129 -389 282 -212 152 -387 279 -389 281 -2 2 14 47 37 101 44 109 92 254 92
282 0 12 -10 21 -27 25 -16 4 -35 9 -44 12 -12 3 -19 -12 -32 -67z"/>
<path d="M17540 10150 l0 -310 340 0 340 0 0 -130 0 -130 -410 0 -410 0 0 -40
0 -40 865 0 865 0 0 40 0 40 -410 0 -410 0 0 130 0 130 350 0 350 0 0 40 0 40
-690 0 -690 0 0 230 0 230 680 0 680 0 0 40 0 40 -725 0 -725 0 0 -310z"/>
<path d="M9871 10405 c-56 -61 -52 -70 5 -11 25 26 44 50 41 52 -2 2 -23 -16
-46 -41z"/>
<path d="M13680 10395 l0 -35 458 -2 457 -3 3 -162 2 -163 -460 0 -460 0 0
-240 0 -240 363 0 c200 0 413 5 473 11 124 12 291 43 341 64 30 13 33 18 33
54 l0 39 -52 -18 c-154 -54 -327 -70 -739 -70 l-329 0 0 160 0 160 455 0 455
0 0 240 0 240 -500 0 -500 0 0 -35z"/>
<path d="M19390 10370 l0 -40 425 0 425 0 0 -231 c0 -272 -15 -395 -66 -548
-63 -191 -155 -332 -281 -432 -128 -101 -264 -155 -420 -166 l-83 -6 0 -43 c0
-29 4 -44 13 -44 6 0 53 5 102 11 418 51 697 341 796 826 19 93 23 151 27 411
l4 302 -471 0 -471 0 0 -40z"/>
<path d="M10504 9995 c0 -181 2 -257 3 -168 2 89 2 237 0 330 -1 92 -3 20 -3
-162z"/>
<path d="M10330 10149 c-14 -11 -37 -30 -52 -42 -15 -12 -27 -26 -28 -30 0 -5
25 11 55 35 30 23 55 46 55 50 0 11 -2 10 -30 -13z"/>
<path d="M10999 9923 c-13 -16 -12 -17 4 -4 9 7 17 15 17 17 0 8 -8 3 -21 -13z"/>
<path d="M9690 9881 c0 -12 -7 -24 -15 -27 -18 -7 -19 -43 -4 -99 22 -86 55
-118 44 -42 -3 23 -8 73 -9 110 -2 37 -6 71 -10 74 -3 4 -6 -4 -6 -16z"/>
<path d="M11110 9891 c0 -5 -12 -14 -27 -20 l-28 -11 26 3 c25 4 26 2 23 -53
-1 -31 -5 -75 -9 -98 -7 -43 0 -52 24 -29 11 10 13 9 7 -5 -8 -25 -14 -45 -9
-35 3 4 15 7 28 7 20 0 26 7 35 43 6 23 15 58 20 78 15 53 13 69 -9 69 -12 0
-24 -11 -30 -27 l-11 -28 4 28 c2 18 -2 31 -10 34 -8 3 -14 16 -14 29 0 13 -4
24 -10 24 -5 0 -10 -4 -10 -9z m27 -183 c-3 -8 -6 -5 -6 6 -1 11 2 17 5 13 3
-3 4 -12 1 -19z"/>
<path d="M9796 9857 c4 -10 16 -22 28 -29 18 -9 19 -8 6 3 -8 8 -20 21 -27 29
-11 13 -12 13 -7 -3z"/>
<path d="M11068 9843 c6 -2 18 -2 25 0 6 3 1 5 -13 5 -14 0 -19 -2 -12 -5z"/>
<path d="M9605 9798 c12 -73 38 -173 43 -160 2 7 11 12 19 12 11 0 14 7 10 23
-3 12 -13 55 -23 95 -14 58 -21 72 -37 72 -17 0 -18 -5 -12 -42z"/>
<path d="M10959 9813 c-13 -16 -12 -17 4 -4 9 7 17 15 17 17 0 8 -8 3 -21 -13z"/>
<path d="M11060 9820 c-12 -8 -11 -10 8 -10 12 0 22 5 22 10 0 13 -11 13 -30
0z"/>
<path d="M9810 9791 c0 -6 4 -13 10 -16 6 -3 7 1 4 9 -7 18 -14 21 -14 7z"/>
<path d="M10851 9744 c0 -11 3 -14 6 -6 3 7 2 16 -1 19 -3 4 -6 -2 -5 -13z"/>
<path d="M9887 9719 c7 -7 15 -10 18 -7 3 3 -2 9 -12 12 -14 6 -15 5 -6 -5z"/>
<path d="M10910 9720 c-9 -6 -10 -10 -3 -10 6 0 15 5 18 10 8 12 4 12 -15 0z"/>
<path d="M10940 9673 c-22 -23 -23 -25 -4 -15 12 6 24 18 28 27 7 20 5 19 -24
-12z"/>
<path d="M9850 9686 c0 -2 8 -10 18 -17 15 -13 16 -12 3 4 -13 16 -21 21 -21
13z"/>
<path d="M10102 9670 c0 -14 2 -19 5 -12 2 6 2 18 0 25 -3 6 -5 1 -5 -13z"/>
<path d="M10806 9663 c-6 -14 -5 -15 5 -6 7 7 10 15 7 18 -3 3 -9 -2 -12 -12z"/>
<path d="M10701 9654 c0 -11 3 -14 6 -6 3 7 2 16 -1 19 -3 4 -6 -2 -5 -13z"/>
<path d="M9910 9646 c0 -2 7 -7 16 -10 8 -3 12 -2 9 4 -6 10 -25 14 -25 6z"/>
<path d="M9832 9588 c14 -19 24 -45 23 -61 -1 -16 2 -26 9 -24 6 3 10 11 8 18
-2 8 0 10 4 6 17 -16 11 -34 -10 -33 -11 1 -20 7 -18 14 1 7 -5 15 -14 19 -13
5 -13 7 -2 15 10 7 8 12 -9 27 -12 10 -19 22 -15 26 4 5 1 5 -6 1 -9 -6 -10
-11 -3 -20 6 -7 8 -16 4 -20 -4 -4 1 -4 11 0 16 6 17 5 5 -14 -11 -18 -10 -24
5 -41 11 -12 23 -21 28 -21 6 0 21 -9 35 -20 21 -16 29 -18 40 -8 13 10 12 15
-8 31 -13 11 -24 22 -24 26 0 9 -75 111 -82 111 -3 0 6 -15 19 -32z m91 -117
c5 -5 4 -12 -4 -16 -8 -6 -10 -4 -4 5 6 10 4 12 -8 7 -8 -3 -21 0 -27 8 -10
12 -8 13 11 10 12 -3 27 -9 32 -14z"/>
<path d="M10110 9615 c0 -5 5 -17 10 -25 5 -8 10 -10 10 -5 0 6 -5 17 -10 25
-5 8 -10 11 -10 5z"/>
<path d="M10013 9553 c9 -2 25 -2 35 0 9 3 1 5 -18 5 -19 0 -27 -2 -17 -5z"/>
<path d="M10768 9553 c12 -2 30 -2 40 0 9 3 -1 5 -23 4 -22 0 -30 -2 -17 -4z"/>
<path d="M9990 9531 c0 -6 4 -13 10 -16 6 -3 7 1 4 9 -7 18 -14 21 -14 7z"/>
<path d="M10975 9503 l-17 -28 23 22 c12 12 20 25 17 28 -3 3 -13 -7 -23 -22z"/>
<path d="M10800 9509 c0 -5 5 -7 10 -4 6 3 10 8 10 11 0 2 -4 4 -10 4 -5 0
-10 -5 -10 -11z"/>
<path d="M10027 9489 c7 -7 15 -10 18 -7 3 3 -2 9 -12 12 -14 6 -15 5 -6 -5z"/>
<path d="M16320 9210 l0 -290 -410 0 -410 0 0 -45 0 -45 868 2 867 3 0 40 0
40 -412 3 -413 2 0 290 0 290 -45 0 -45 0 0 -290z"/>
<path d="M10078 9473 c7 -3 16 -2 19 1 4 3 -2 6 -13 5 -11 0 -14 -3 -6 -6z"/>
<path d="M10718 9473 c7 -3 16 -2 19 1 4 3 -2 6 -13 5 -11 0 -14 -3 -6 -6z"/>
<path d="M9905 9364 c178 -159 443 -228 665 -174 44 11 97 25 130 34 16 4 12
0 -11 -12 -42 -22 -93 -35 -206 -53 -71 -11 -94 -10 -185 6 -105 18 -211 54
-283 96 -42 25 -44 26 -90 62 -37 30 -98 42 -83 18 18 -29 138 -112 206 -143
37 -16 76 -34 87 -39 40 -18 197 -49 248 -49 66 0 257 36 294 55 15 8 32 15
36 15 39 0 229 118 250 155 14 25 -41 18 -77 -10 -48 -39 -48 -39 -99 -69 -27
-15 -50 -26 -53 -23 -2 2 17 16 43 30 52 28 143 100 156 123 16 27 -22 14 -75
-26 -29 -22 -65 -46 -80 -53 -16 -6 -28 -15 -28 -19 0 -5 -5 -8 -10 -8 -6 0
-29 -9 -53 -19 -69 -32 -116 -41 -237 -47 -145 -7 -250 11 -353 60 -41 19 -81
41 -88 48 -8 7 -27 22 -44 32 -16 11 -34 25 -38 33 -4 7 -20 13 -35 13 -27 -1
-27 -1 13 -36z"/>
<path d="M14225 9349 c-354 -36 -528 -169 -474 -362 25 -90 153 -169 339 -209
94 -20 133 -22 370 -22 237 0 276 2 370 22 186 40 314 119 339 209 33 116 -19
216 -143 280 -148 76 -506 112 -801 82z m565 -93 c128 -27 196 -54 246 -99 39
-36 47 -49 51 -89 17 -154 -204 -238 -627 -238 -423 0 -644 84 -627 238 4 40
12 53 52 89 65 59 150 85 380 117 70 10 453 -4 525 -18z"/>
<path d="M10456 9253 c-6 -14 -5 -15 5 -6 7 7 10 15 7 18 -3 3 -9 -2 -12 -12z"/>
<path d="M10888 9256 c-27 -27 -184 -103 -248 -121 -36 -10 -96 -22 -135 -28
-38 -6 -71 -11 -73 -12 -1 -1 7 -60 18 -131 12 -71 28 -176 36 -234 9 -58 17
-107 19 -108 2 -2 19 11 38 29 30 28 33 36 26 63 -4 17 -12 49 -18 71 -24 93
-40 303 -19 245 14 -40 30 -121 40 -213 6 -56 14 -105 17 -109 4 -4 36 22 73
57 l67 64 81 -41 c44 -22 83 -39 85 -36 4 4 -17 148 -35 231 -12 60 -13 107
-1 107 5 0 12 -12 15 -27 9 -46 27 -152 39 -243 12 -83 14 -85 47 -102 19 -9
38 -17 41 -18 3 0 2 21 -2 48 -8 43 -43 268 -71 450 -11 74 -17 82 -40 58z"/>
<path d="M9915 9250 c-3 -5 -17 -85 -30 -177 -14 -92 -32 -208 -40 -258 -20
-121 -20 -116 14 -104 17 6 35 16 41 23 5 7 17 66 25 130 16 132 36 226 47
226 5 0 8 -9 8 -19 0 -38 -21 -177 -37 -244 -9 -37 -13 -70 -10 -73 3 -3 43
13 89 35 l83 41 66 -66 c51 -50 68 -62 72 -50 4 9 13 69 22 133 18 128 33 193
47 193 4 0 8 -3 8 -7 0 -12 -28 -187 -43 -275 l-13 -78 31 -30 32 -31 6 38 c8
52 47 286 57 348 16 95 19 91 -61 99 -113 10 -261 61 -355 121 -29 19 -56 30
-59 25z"/>
<path d="M10422 9240 c0 -14 2 -19 5 -12 2 6 2 18 0 25 -3 6 -5 1 -5 -13z"/>
<path d="M17510 9210 l0 -40 700 0 700 0 0 -210 0 -210 40 0 40 0 0 250 0 250
-740 0 -740 0 0 -40z"/>
<path d="M15095 7959 c-215 -23 -404 -85 -490 -160 -49 -44 -85 -119 -85 -183
0 -184 157 -295 492 -348 133 -21 667 -17 788 5 205 39 349 105 409 188 35 47
55 132 45 186 -28 153 -166 243 -454 294 -134 24 -550 35 -705 18z m563 -269
c102 -13 147 -27 178 -53 23 -20 25 -27 16 -44 -23 -43 -135 -67 -362 -78
-149 -8 -402 9 -482 31 -144 41 -106 111 76 139 97 15 470 18 574 5z"/>
<path d="M12870 7830 l0 -120 -220 0 -220 0 0 -175 0 -175 221 0 221 0 -7 -72
c-18 -206 -68 -396 -138 -533 -70 -137 -200 -250 -310 -270 l-37 -7 0 -186 0
-185 73 6 c86 6 194 41 275 89 89 52 238 207 297 310 28 48 52 87 55 87 3 0
80 -95 172 -212 92 -117 180 -227 196 -246 l29 -35 140 124 141 123 -274 327
-273 326 14 95 c7 52 16 131 20 177 l7 82 209 0 209 0 0 175 0 175 -205 0
-204 0 -3 118 -3 117 -192 3 -193 2 0 -120z"/>
<path d="M22987 7943 c-4 -3 -7 -55 -7 -115 l0 -108 -140 0 -140 0 0 -170 0
-170 142 0 141 0 -6 -152 c-6 -153 -33 -339 -63 -446 -42 -148 -128 -278 -200
-304 l-34 -12 0 -178 0 -178 36 0 c56 0 182 47 247 93 76 53 145 138 200 244
23 46 44 83 47 83 3 0 54 -83 113 -183 59 -101 113 -191 120 -201 11 -15 26
-8 151 64 77 44 141 80 143 80 2 0 3 -54 3 -120 l0 -120 175 0 175 0 0 940 0
940 -175 0 -175 0 0 -360 0 -360 -100 0 -100 0 0 -180 0 -180 100 0 100 0 0
-262 c0 -144 -2 -259 -5 -256 -3 3 -98 155 -211 339 l-205 333 10 105 c6 57
11 142 11 188 l0 83 140 0 140 0 0 170 0 170 -140 0 -140 0 0 115 0 115 -173
0 c-96 0 -177 -3 -180 -7z"/>
<path d="M7090 7735 l0 -205 -125 0 -125 0 0 -165 0 -165 125 0 125 0 0 -345
0 -345 190 0 190 0 0 715 0 715 -190 0 -190 0 0 -205z"/>
<path d="M7790 7780 l0 -160 660 0 660 0 0 -165 0 -165 190 0 190 0 0 325 0
325 -850 0 -850 0 0 -160z"/>
<path d="M11770 7860 l0 -80 -175 0 -175 0 0 -165 0 -165 175 0 175 0 0 -235
0 -235 188 2 187 3 3 478 2 477 -190 0 -190 0 0 -80z"/>
<path d="M13822 6978 l3 -963 188 -3 187 -2 0 965 0 965 -190 0 -190 0 2 -962z"/>
<path d="M19480 6980 l0 -960 190 0 190 0 0 960 0 960 -190 0 -190 0 0 -960z"/>
<path d="M21120 7934 c-79 -10 -179 -38 -247 -70 -191 -90 -295 -281 -266
-489 38 -266 265 -425 608 -425 265 0 474 100 559 268 l26 52 145 0 145 0 0
-165 0 -165 190 0 190 0 0 500 0 500 -190 0 -190 0 0 -160 0 -160 -147 0 -148
0 -29 55 c-56 107 -192 201 -346 239 -67 16 -238 27 -300 20z m196 -319 c49
-14 99 -56 123 -102 20 -39 14 -126 -12 -164 -47 -69 -149 -108 -250 -94 -128
16 -199 83 -199 185 0 143 163 227 338 175z"/>
<path d="M24230 6975 l0 -965 175 0 175 0 0 965 0 965 -175 0 -175 0 0 -965z"/>
<path d="M10786 7899 c-3 -19 -8 -56 -11 -83 -31 -236 -215 -450 -431 -499
l-59 -14 -3 -167 -2 -168 52 7 c140 18 264 59 378 126 70 40 180 130 205 167
9 12 21 22 27 22 6 0 114 -65 238 -145 125 -80 230 -145 233 -145 7 0 199 252
195 255 -2 2 -113 71 -248 155 -135 83 -247 154 -249 156 -2 2 5 36 17 76 19
66 42 201 42 247 0 16 -13 19 -102 25 -57 3 -142 9 -190 12 l-87 6 -5 -33z"/>
<path d="M5670 7755 l0 -165 210 0 210 0 0 -23 c0 -35 -29 -126 -60 -187 -77
-153 -187 -236 -362 -274 l-28 -6 0 -172 0 -171 63 7 c102 10 175 33 287 88
94 46 116 62 207 153 l101 101 227 -163 c125 -90 231 -162 236 -161 8 3 209
255 209 262 0 2 -115 84 -255 181 -140 97 -257 180 -260 186 -5 7 3 66 21 157
4 22 5 22 209 22 l205 0 0 165 0 165 -610 0 -610 0 0 -165z"/>
<path d="M18472 7900 c-243 -65 -392 -249 -392 -485 0 -223 122 -389 348 -473
91 -34 293 -43 404 -18 239 53 394 219 414 444 21 235 -114 436 -347 519 -64
23 -93 27 -214 30 -115 2 -153 -1 -213 -17z m304 -305 c83 -41 124 -122 110
-217 -27 -182 -301 -235 -410 -80 -77 109 -26 266 99 310 57 20 147 14 201
-13z"/>
<path d="M16990 7705 l0 -175 160 0 160 0 0 -740 0 -740 200 0 200 0 0 915 0
915 -360 0 -360 0 0 -175z"/>
<path d="M7680 7060 l0 -160 390 0 391 0 -3 -107 -3 -108 -337 -3 -338 -2 0
-155 0 -155 668 -2 667 -3 3 -187 2 -188 190 0 190 0 0 345 0 345 -330 0 -330
0 0 110 0 110 390 0 390 0 0 160 0 160 -970 0 -970 0 0 -160z"/>
<path d="M14420 7065 l0 -135 210 0 210 0 0 -50 0 -50 -155 0 -155 0 0 -120 0
-120 676 0 675 0 -3 -32 -3 -33 -673 -3 -672 -2 2 -253 3 -252 765 -1 c421 0
809 2 863 4 l97 5 0 113 0 114 -82 1 c-192 3 -349 4 -800 7 l-478 2 0 30 0 30
478 2 c458 3 632 4 790 7 l72 1 0 250 0 250 -155 0 -155 0 0 50 0 50 210 0
210 0 0 135 0 135 -965 0 -965 0 0 -135z m1140 -185 l0 -50 -175 0 -175 0 0
43 c0 24 3 47 7 50 3 4 82 7 175 7 l168 0 0 -50z"/>
<path d="M10430 6790 l0 -130 670 0 670 0 0 -40 0 -40 -670 0 -670 0 2 -282 3
-283 865 0 865 0 0 130 0 130 -677 3 -678 2 0 35 0 35 670 0 670 0 -2 283 -3
282 -857 3 -858 2 0 -130z"/>
<path d="M20918 6873 l-138 -4 0 -423 0 -423 203 -6 c111 -4 491 -7 845 -7
l642 0 0 435 0 435 -185 0 -185 0 0 -65 0 -65 -475 0 -475 0 0 65 0 65 -47 -2
c-27 -1 -110 -4 -185 -5z m1182 -488 l0 -65 -475 0 -475 0 0 65 0 65 475 0
475 0 0 -65z"/>
<path d="M19307 6845 c-105 -39 -228 -47 -774 -52 l-533 -5 0 -164 0 -164 235
0 235 0 0 -220 0 -220 190 0 190 0 2 218 3 217 140 6 c148 7 236 20 323 46
l52 17 0 168 c0 184 3 177 -63 153z"/>
<path d="M5760 6350 l0 -340 870 0 870 0 0 175 0 175 -680 0 -680 0 0 165 0
165 -190 0 -190 0 0 -340z"/>
<path d="M24358 5283 l-3 -58 -147 -3 -148 -3 0 -124 0 -124 148 -3 147 -3 3
-30 c5 -40 -16 -142 -38 -185 -39 -77 -134 -142 -227 -156 l-43 -6 0 -134 0
-134 43 6 c157 22 248 64 341 156 l69 69 15 -23 c71 -106 214 -181 385 -202
l47 -6 0 135 c0 126 -1 135 -19 135 -10 0 -48 9 -83 20 -126 39 -195 133 -205
279 l-6 81 147 0 146 0 0 125 0 124 -142 3 -143 3 -3 58 -3 57 -139 0 -139 0
-3 -57z"/>
<path d="M3650 5220 l0 -100 -145 0 -145 0 0 -140 0 -140 146 0 147 0 -6 -152
c-4 -126 -10 -169 -32 -243 -46 -155 -119 -264 -224 -336 l-50 -34 -1 -173 0
-173 23 6 c47 14 160 89 222 147 76 71 118 126 173 227 l40 73 41 -78 c78
-149 192 -265 331 -338 37 -20 71 -36 74 -36 3 0 6 78 6 173 l0 172 -35 24
c-20 13 -62 52 -95 87 -112 120 -166 278 -177 517 l-6 137 151 0 152 0 0 140
0 140 -150 0 -150 0 0 100 0 100 -145 0 -145 0 0 -100z"/>
<path d="M4360 4485 l0 -815 140 0 140 0 0 359 0 360 90 3 90 3 0 -28 c0 -26
2 -28 33 -23 17 3 222 20 455 38 l422 32 0 119 0 120 -102 -7 c-57 -4 -199
-15 -315 -25 l-213 -17 0 63 0 63 255 0 255 0 0 270 0 270 -395 0 -395 0 0
-115 0 -115 255 0 255 0 0 -50 0 -50 -255 0 -255 0 0 -122 0 -123 -90 3 -90 3
0 300 0 299 -140 0 -140 0 0 -815z"/>
<path d="M5820 4810 l0 -490 140 0 140 0 0 100 0 100 85 0 85 0 0 125 0 125
-85 0 -85 0 0 65 0 65 85 0 85 0 0 125 0 125 -85 0 -85 0 0 75 0 75 -140 0
-140 0 0 -490z"/>
<path d="M7760 5000 l0 -300 248 -2 247 -3 3 -77 3 -78 -281 0 -280 0 0 -125
0 -125 695 0 695 0 0 125 0 125 -280 0 -281 0 3 78 3 77 253 3 252 2 0 115 0
115 -490 0 -490 0 0 70 0 70 485 0 485 0 0 115 0 115 -635 0 -635 0 0 -300z"/>
<path d="M10230 4485 l0 -815 145 0 145 0 0 815 0 815 -145 0 -145 0 0 -815z"/>
<path d="M12270 4485 l0 -815 120 0 120 0 0 365 0 365 60 0 60 0 0 -365 0
-365 125 0 125 0 0 815 0 815 -125 0 -125 0 0 -305 0 -305 -60 0 -60 0 0 305
0 305 -120 0 -120 0 0 -815z"/>
<path d="M13273 5285 c-117 -32 -197 -94 -245 -193 l-33 -67 0 -215 c0 -215 0
-215 28 -271 33 -69 109 -142 181 -175 84 -38 203 -51 299 -31 43 9 100 26
125 38 67 33 145 116 174 186 21 54 23 72 23 258 l0 200 -31 65 c-52 108 -145
182 -265 209 -62 15 -195 12 -256 -4z m223 -260 c46 -30 56 -73 52 -231 -3
-142 -3 -143 -32 -173 -69 -72 -189 -61 -232 20 -20 39 -20 298 0 337 40 77
134 98 212 47z"/>
<path d="M14020 4705 l0 -596 148 3 147 3 3 593 2 592 -150 0 -150 0 0 -595z"/>
<path d="M15930 5000 l0 -300 245 0 245 0 0 -80 0 -80 -275 0 -275 0 0 -125 0
-125 695 0 696 0 -3 123 -3 122 -277 3 -278 2 0 80 0 80 250 0 250 0 0 115 0
115 -490 0 -491 0 3 68 3 67 483 3 482 2 0 115 0 115 -630 0 -630 0 0 -300z"/>
<path d="M18390 4485 l0 -815 150 0 150 0 0 815 0 815 -150 0 -150 0 0 -815z"/>
<path d="M21427 5290 c-106 -27 -196 -99 -243 -196 -25 -54 -28 -71 -32 -195
-3 -104 0 -149 11 -190 35 -120 117 -202 240 -240 57 -18 86 -21 171 -17 88 4
112 9 167 35 82 39 134 90 172 170 25 55 30 80 35 173 8 185 -25 290 -121 375
-70 63 -140 88 -262 91 -55 2 -117 -1 -138 -6z m202 -247 c49 -36 63 -78 59
-183 -4 -108 -14 -128 -71 -160 -64 -36 -143 -16 -184 47 -14 22 -18 49 -18
129 0 88 3 107 21 131 46 62 134 79 193 36z"/>
<path d="M22150 4865 l0 -435 140 0 140 0 0 155 0 155 85 0 85 0 0 140 0 139
-82 3 -83 3 -3 138 -3 137 -139 0 -140 0 0 -435z"/>
<path d="M23390 5020 l0 -280 -110 0 -110 0 0 -145 0 -145 110 0 110 0 0 -390
0 -390 120 0 120 0 0 815 0 815 -120 0 -120 0 0 -280z"/>
<path d="M23710 4485 l0 -815 125 0 125 0 0 815 0 815 -125 0 -125 0 0 -815z"/>
<path d="M25108 5108 l-3 -193 -117 -3 -118 -3 0 -129 0 -130 120 0 120 0 0
-180 0 -180 145 0 145 0 0 505 0 505 -145 0 -145 0 -2 -192z"/>
<path d="M26560 4485 l0 -815 145 0 145 0 0 815 0 815 -145 0 -145 0 0 -815z"/>
<path d="M6789 5168 c-4 -117 -6 -127 -40 -198 -78 -163 -246 -289 -422 -315
l-47 -7 0 -139 0 -139 28 0 c15 0 70 9 122 20 187 38 382 163 470 300 18 27
35 50 39 50 3 0 15 -16 26 -36 42 -78 175 -193 292 -252 56 -29 194 -68 271
-77 l62 -7 0 139 0 139 -72 17 c-116 27 -193 70 -279 156 -116 116 -159 225
-159 404 l0 67 -144 0 -144 0 -3 -122z"/>
<path d="M14960 5205 c0 -111 -14 -175 -59 -260 -72 -140 -229 -255 -388 -286
l-63 -12 0 -138 c0 -158 -10 -146 100 -129 98 16 207 55 295 106 84 50 197
156 230 217 11 20 23 37 26 37 4 0 18 -17 30 -37 61 -100 179 -197 317 -260
72 -34 225 -73 285 -73 l27 0 0 139 0 139 -67 12 c-98 19 -211 79 -286 153
-114 112 -157 217 -157 379 l0 98 -145 0 -145 0 0 -85z"/>
<path d="M19712 5133 l3 -138 489 -3 489 -2 -7 -153 c-4 -83 -15 -293 -24
-464 l-17 -313 142 0 c130 0 143 2 143 18 0 9 14 264 30 567 17 302 30 567 30
587 l0 38 -640 0 -641 0 3 -137z"/>
<path d="M22817 4948 c-10 -506 -42 -650 -181 -820 l-46 -56 2 -172 3 -173 78
63 c100 80 166 162 222 273 l45 89 20 -47 c51 -118 175 -269 283 -344 l47 -32
0 177 0 176 -47 52 c-86 94 -139 236 -162 431 -6 50 -13 228 -17 398 l-7 307
-117 0 -117 0 -6 -322z"/>
<path d="M9187 5243 c-4 -3 -7 -69 -7 -145 l0 -138 299 0 c165 0 302 -3 305
-8 10 -17 -16 -247 -39 -339 -29 -114 -95 -254 -159 -335 -87 -109 -234 -210
-363 -250 l-43 -13 0 -152 c0 -135 2 -153 16 -153 32 0 230 72 290 105 296
166 475 439 546 835 15 87 22 174 25 358 l5 242 -434 0 c-239 0 -438 -3 -441
-7z"/>
<path d="M11530 4490 l0 -760 26 0 c32 0 601 59 632 66 22 4 22 7 22 145 l0
140 -47 -6 c-187 -22 -313 -35 -345 -35 l-38 0 0 465 0 465 193 2 192 3 0 135
0 135 -317 3 -318 2 0 -760z"/>
<path d="M17350 5105 l0 -145 300 0 300 0 0 -59 c0 -223 -89 -495 -207 -632
-95 -111 -177 -169 -318 -226 l-80 -32 -3 -151 c-2 -118 0 -150 10 -150 33 0
170 45 244 79 298 140 489 389 577 751 38 153 49 269 51 500 l1 205 -437 3
-438 2 0 -145z"/>
<path d="M25520 5105 l0 -145 298 -2 297 -3 -3 -85 c-11 -327 -144 -600 -362
-745 -66 -44 -198 -105 -226 -105 -11 0 -14 -31 -14 -155 0 -141 2 -155 18
-155 9 0 68 17 129 39 334 114 560 363 666 731 47 162 59 261 64 523 l5 247
-436 0 -436 0 0 -145z"/>
<path d="M10890 4500 l0 -150 130 0 130 0 0 150 0 150 -130 0 -130 0 0 -150z"/>
<path d="M19060 4500 l0 -150 125 0 125 0 0 150 0 150 -125 0 -125 0 0 -150z"/>
<path d="M20107 4643 c-4 -3 -7 -152 -7 -330 l0 -323 -220 0 -220 0 0 -145 0
-145 695 0 695 0 0 145 0 145 -330 0 -330 0 0 330 0 330 -138 0 c-76 0 -142
-3 -145 -7z"/>
<path d="M21210 4030 l0 -360 23 0 c12 0 191 9 397 19 547 29 514 29 518 3 3
-21 7 -22 143 -22 l139 0 0 360 0 360 -140 0 -140 0 0 -55 0 -55 -325 0 -325
0 0 55 0 55 -145 0 -145 0 0 -360z m935 -30 l0 -45 -105 -6 c-58 -4 -203 -10
-322 -14 l-218 -8 0 55 c0 30 3 58 7 61 4 4 149 6 322 5 l316 -3 0 -45z"/>
<path d="M6790 4180 l0 -190 -275 0 -275 0 0 -145 0 -145 695 0 695 0 0 145 0
145 -275 0 -275 0 0 190 0 190 -145 0 -145 0 0 -190z"/>
<path d="M14960 4180 l0 -190 -275 0 -275 0 0 -145 0 -145 695 0 695 0 0 145
0 145 -275 0 -275 0 0 190 0 190 -145 0 -145 0 0 -190z"/>
<path d="M5081 4274 c-62 -17 -97 -39 -145 -96 -52 -60 -69 -122 -64 -227 6
-129 53 -206 162 -264 40 -22 47 -22 466 -22 l425 0 55 31 c64 36 122 107 142
173 18 63 15 177 -6 226 -43 100 -104 154 -203 180 -81 21 -752 21 -832 -1z
m724 -238 c58 -25 58 -104 -1 -126 -14 -6 -147 -10 -305 -10 -325 0 -338 3
-339 76 0 30 19 56 50 67 8 3 138 6 288 6 216 1 280 -2 307 -13z"/>
<path d="M24120 4110 l0 -130 490 0 490 0 0 -165 0 -165 150 0 150 0 0 295 0
295 -640 0 -640 0 0 -130z"/>
<path d="M13057 4223 c-4 -3 -7 -129 -7 -280 l0 -273 645 0 645 0 0 130 0 130
-497 2 -498 3 -3 148 -3 147 -138 0 c-76 0 -141 -3 -144 -7z"/>
<path d="M7760 4070 l0 -120 490 0 490 0 0 -150 0 -150 145 0 145 0 0 270 0
270 -635 0 -635 0 0 -120z"/>
<path d="M15930 4070 l0 -120 490 0 490 0 0 -150 0 -150 140 0 140 0 0 270 0
270 -630 0 -630 0 0 -120z"/>
<path d="M0 1320 l0 -1320 15120 0 15120 0 0 1320 0 1320 -15120 0 -15120 0 0
-1320z m5293 580 c90 -103 173 -271 204 -414 25 -111 22 -328 -6 -441 -28
-115 -94 -251 -172 -354 l-60 -81 -65 0 c-35 0 -64 2 -64 5 0 3 16 25 35 50
85 112 162 293 185 437 20 125 8 343 -24 453 -34 113 -89 230 -149 318 -26 37
-47 69 -47 72 0 3 27 5 59 5 59 0 60 0 104 -50z m979 -1 c101 -22 172 -70 211
-144 17 -31 22 -58 22 -115 0 -91 -22 -138 -90 -198 -43 -38 -45 -41 -24 -47
33 -11 108 -84 132 -130 26 -50 29 -171 5 -226 -21 -49 -82 -114 -132 -144
-102 -59 -306 -71 -429 -25 -130 49 -192 131 -191 254 1 90 33 157 103 217
l50 43 -46 40 c-61 54 -83 103 -83 191 0 178 136 292 352 294 37 1 91 -4 120
-10z m1938 -16 c106 -47 152 -119 152 -237 -1 -106 -32 -171 -106 -216 l-29
-18 41 -21 c49 -25 95 -79 111 -130 16 -56 14 -170 -6 -226 -36 -108 -150
-180 -302 -192 -128 -9 -352 41 -351 79 1 20 37 168 43 174 3 3 18 -1 34 -9
52 -26 127 -42 200 -42 87 0 121 20 142 85 12 38 12 50 0 84 -21 60 -76 86
-186 86 l-83 0 0 89 0 88 83 5 c91 6 137 24 163 63 34 52 11 135 -42 155 -45
17 -145 11 -217 -14 l-67 -23 -6 26 c-3 14 -12 51 -20 82 -19 77 -19 78 24 96
108 45 337 54 422 16z m1550 -503 l0 -531 -112 3 -113 3 -3 399 -2 399 -43 -6
c-23 -4 -57 -9 -74 -13 l-33 -6 0 76 0 76 128 64 c115 59 133 65 190 65 l62 1
0 -530z m810 0 l0 -530 -110 0 -110 0 0 404 0 404 -37 -8 c-21 -4 -55 -11 -75
-14 l-38 -7 0 79 0 79 128 61 c109 52 135 61 185 61 l57 1 0 -530z m1720 0 l0
-530 -110 0 -110 0 0 404 0 404 -37 -8 c-21 -4 -55 -11 -75 -14 l-38 -7 0 79
0 79 128 61 c108 52 136 61 185 61 l57 1 0 -530z m1980 519 c73 -16 139 -65
173 -130 27 -50 29 -61 25 -140 -5 -98 -25 -143 -89 -189 l-38 -27 48 -31 c31
-19 59 -47 77 -78 27 -45 29 -57 29 -149 0 -92 -2 -104 -30 -154 -73 -132
-236 -185 -454 -147 -51 9 -114 26 -141 37 l-47 20 23 92 c12 51 23 93 23 93
1 1 32 -9 70 -22 99 -34 179 -41 236 -20 55 21 75 55 75 123 -1 87 -42 115
-180 123 l-95 5 -3 88 -3 87 64 0 c83 0 160 23 186 57 23 28 28 91 11 124 -28
51 -140 64 -252 29 -34 -11 -68 -20 -73 -20 -9 0 -45 135 -45 168 0 48 279 89
410 61z m-11387 -27 c98 -44 168 -137 203 -272 21 -77 24 -355 5 -432 -33
-140 -98 -235 -195 -286 -46 -24 -61 -27 -156 -27 -97 0 -109 2 -158 29 -98
55 -158 145 -187 283 -19 88 -19 309 -1 406 32 165 130 283 263 317 57 14 175
5 226 -18z m4507 -312 l0 -340 65 0 65 0 0 -95 0 -95 -65 0 -65 0 0 -85 0 -85
-105 0 -105 0 0 85 0 85 -205 0 -205 0 0 70 0 71 227 364 226 365 84 0 83 0 0
-340z m4140 0 l0 -340 65 0 65 0 0 -95 0 -95 -65 0 -65 0 0 -85 0 -85 -105 0
-105 0 0 85 0 85 -205 0 -205 0 0 72 0 71 226 364 226 363 84 0 84 0 0 -340z
m-6718 -17 l3 -348 73 -3 72 -3 0 -64 0 -65 -75 0 -75 0 0 -100 0 -100 -70 0
-70 0 0 100 0 100 -220 0 -220 0 0 56 0 57 232 358 232 359 58 0 58 0 2 -347z
m-862 272 l0 -65 -190 0 c-144 0 -192 -3 -195 -12 -2 -7 -6 -66 -10 -131 l-6
-118 28 8 c15 4 64 8 108 7 134 -1 226 -58 277 -169 34 -76 33 -210 -3 -285
-37 -78 -81 -125 -152 -160 -76 -37 -158 -47 -254 -30 -73 12 -193 61 -193 79
0 10 39 113 45 119 2 2 25 -8 52 -21 120 -61 239 -58 312 9 61 54 78 150 41
231 -46 102 -206 129 -359 62 -24 -11 -45 -18 -46 -17 -2 3 32 549 34 556 1 1
116 2 256 2 l255 0 0 -65z m13108 -45 c159 -85 231 -263 219 -540 -9 -195 -49
-303 -144 -390 -79 -73 -142 -93 -273 -88 -90 3 -112 8 -158 31 -139 72 -206
202 -219 427 -10 185 21 338 92 444 42 64 88 101 164 133 49 21 69 23 156 20
92 -2 105 -6 163 -37z m952 -490 l0 -530 -110 0 -110 0 0 401 0 402 -47 -6
c-27 -3 -63 -9 -80 -13 l-33 -6 0 76 0 76 128 64 c115 59 133 65 190 65 l62 1
0 -530z m1009 496 c102 -53 171 -147 208 -286 24 -90 24 -339 0 -427 -36 -135
-108 -232 -206 -280 -52 -26 -65 -28 -176 -28 -112 0 -124 2 -172 27 -76 40
-115 79 -153 149 -47 89 -60 148 -67 294 -13 313 75 497 275 572 25 9 70 12
137 10 86 -3 108 -7 154 -31z m2990 0 c102 -53 171 -147 208 -286 24 -90 24
-339 0 -427 -36 -135 -108 -232 -206 -280 -52 -26 -65 -28 -176 -28 -112 0
-124 2 -172 27 -76 40 -115 79 -153 149 -47 89 -60 148 -67 294 -13 313 75
497 275 572 25 9 70 12 137 10 86 -3 108 -7 154 -31z m961 -496 l0 -531 -112
3 -113 3 -3 401 -2 401 -63 -13 c-94 -20 -88 -24 -85 63 l3 78 125 62 c111 55
132 62 188 62 l62 1 0 -530z m2670 0 l0 -530 -110 0 -110 0 0 404 0 404 -37
-8 c-21 -4 -55 -11 -75 -14 l-38 -7 0 79 0 79 128 61 c108 52 136 61 185 61
l57 1 0 -530z m900 0 l0 -530 -110 0 -110 0 0 401 0 402 -52 -7 c-29 -3 -63
-9 -75 -12 -22 -6 -23 -4 -23 73 l0 80 128 61 c110 54 135 62 185 62 l57 0 0
-530z m1953 500 c27 -12 62 -36 78 -52 53 -54 64 -85 64 -183 0 -81 -3 -95
-28 -138 -16 -27 -45 -58 -65 -70 -31 -19 -33 -22 -18 -31 99 -59 136 -117
144 -225 16 -232 -169 -370 -447 -333 -90 12 -216 46 -225 60 -5 9 37 183 44
184 3 0 36 -9 75 -21 184 -57 290 -28 302 83 12 103 -44 146 -190 146 l-87 0
0 89 0 88 83 5 c128 8 187 47 187 123 0 100 -102 133 -264 85 -42 -13 -78 -21
-80 -19 -2 2 -12 43 -23 91 l-20 86 36 16 c33 14 86 28 151 40 14 2 72 3 130
2 85 -2 114 -7 153 -26z m-7483 -320 l0 -340 65 0 65 0 0 -95 0 -95 -65 0 -65
0 0 -85 0 -85 -105 0 -105 0 0 85 0 85 -205 0 -205 0 0 70 0 69 227 366 228
365 82 0 83 0 0 -340z m3000 0 l0 -340 65 0 65 0 0 -95 0 -95 -65 0 -65 0 0
-85 0 -85 -105 0 -105 0 0 85 0 85 -205 0 -205 0 0 72 0 71 226 364 226 363
84 0 84 0 0 -340z m3570 0 l0 -340 65 0 65 0 0 -95 0 -95 -65 0 -65 0 0 -85 0
-85 -105 0 -105 0 0 85 0 85 -205 0 -205 0 0 69 0 70 228 365 227 366 83 0 82
0 0 -340z m-14498 95 c25 -16 71 -47 102 -69 36 -25 70 -40 99 -43 38 -5 47
-2 75 26 17 18 37 50 43 72 14 45 12 45 115 -2 l63 -28 -11 -38 c-24 -89 -76
-158 -150 -198 -45 -25 -64 -29 -123 -29 -84 1 -136 22 -215 86 -72 59 -91 68
-138 68 -49 0 -84 -27 -106 -80 l-16 -40 -69 35 c-38 19 -72 39 -76 45 -11 17
23 103 57 144 17 21 54 49 82 63 44 20 63 23 137 21 76 -3 91 -6 131 -33z
m-3952 -130 l0 -85 -235 0 -235 0 0 85 0 85 235 0 235 0 0 -85z m-7353 40 c87
-57 81 -195 -11 -239 -96 -45 -196 17 -196 122 0 58 26 100 75 124 45 21 93
18 132 -7z m14121 -49 c62 -32 94 -98 78 -160 -10 -41 -54 -85 -98 -97 -55
-14 -122 10 -149 55 -25 41 -25 111 1 154 34 55 112 77 168 48z m4152 -91 l0
-85 -235 0 -235 0 0 85 0 85 235 0 235 0 0 -85z m4880 0 l0 -85 -235 0 -235 0
0 85 0 85 235 0 235 0 0 -85z"/>
<path d="M6083 1715 c-74 -32 -72 -139 3 -186 61 -37 93 -41 136 -17 70 39 98
115 62 167 -34 47 -134 66 -201 36z"/>
<path d="M6073 1271 c-61 -44 -83 -77 -83 -127 0 -74 65 -124 162 -124 75 0
151 46 161 97 12 63 -28 121 -108 159 -65 31 -84 30 -132 -5z"/>
<path d="M2665 1746 c-46 -20 -82 -69 -106 -144 -17 -55 -21 -93 -22 -217 -1
-208 23 -298 97 -362 41 -37 81 -47 144 -38 69 10 123 69 148 161 29 107 27
363 -4 459 -25 78 -43 103 -93 134 -40 24 -117 28 -164 7z"/>
<path d="M7103 1340 l-72 -120 74 0 75 0 0 120 c0 66 -1 120 -2 120 -2 -1 -35
-55 -75 -120z"/>
<path d="M11244 1342 l-72 -117 70 -3 c39 -2 72 -1 75 1 2 2 2 57 1 120 l-3
116 -71 -117z"/>
<path d="M4540 1409 c-69 -106 -126 -198 -128 -205 -3 -11 22 -14 127 -14
l131 0 0 205 c0 113 -1 205 -2 205 -2 0 -59 -86 -128 -191z"/>
<path d="M16835 1615 c-89 -31 -120 -121 -120 -340 0 -167 16 -240 60 -294 49
-57 137 -63 195 -14 50 42 72 120 77 273 5 151 -11 256 -48 316 -35 58 -100
81 -164 59z"/>
<path d="M18805 1615 c-91 -32 -120 -114 -120 -340 0 -175 13 -237 61 -295 51
-60 141 -62 198 -5 54 54 71 125 71 300 0 172 -15 242 -66 299 -27 32 -41 39
-89 51 -8 2 -33 -2 -55 -10z"/>
<path d="M21795 1615 c-91 -32 -120 -114 -120 -340 0 -175 13 -237 61 -295 51
-60 141 -62 198 -5 45 45 67 119 73 255 14 281 -71 434 -212 385z"/>
<path d="M20726 1241 c-36 -59 -66 -111 -66 -115 0 -3 32 -6 70 -6 l70 0 0
115 c0 63 -2 115 -4 115 -2 0 -33 -49 -70 -109z"/>
<path d="M23724 1242 l-72 -117 70 -3 c39 -2 72 -1 75 1 2 2 2 57 1 120 l-3
116 -71 -117z"/>
<path d="M27297 1241 c-37 -60 -67 -112 -67 -115 0 -3 32 -6 70 -6 l70 0 0
115 c0 63 -2 115 -3 115 -2 0 -34 -49 -70 -109z"/>
</g>
</svg>
