<?xml version="1.0" standalone="no"?>
<!DOCTYPE svg PUBLIC "-//W3C//DTD SVG 20010904//EN"
 "http://www.w3.org/TR/2001/REC-SVG-20010904/DTD/svg10.dtd">
<svg version="1.0" xmlns="http://www.w3.org/2000/svg"
 width="310.000000pt" height="310.000000pt" viewBox="0 0 310.000000 310.000000"
 preserveAspectRatio="xMidYMid meet">

<g transform="translate(0.000000,310.000000) scale(0.100000,-0.100000)"
fill="#000000" stroke="none">
<path d="M2180 2830 c0 -5 5 -10 10 -10 6 0 10 5 10 10 0 6 -4 10 -10 10 -5 0
-10 -4 -10 -10z"/>
<path d="M2057 2823 c-6 -11 19 -54 26 -46 4 3 17 -5 30 -18 13 -13 40 -40 60
-58 l37 -35 0 37 c0 21 -5 37 -11 37 -7 0 -34 20 -60 45 -45 42 -73 55 -82 38z"/>
<path d="M1952 2783 c41 -50 50 -121 18 -151 -11 -10 -57 -29 -102 -41 -85
-24 -157 -47 -193 -61 -11 -5 -67 -27 -125 -50 -201 -80 -565 -284 -537 -302
32 -20 80 -7 170 47 238 144 505 252 757 306 136 30 360 37 471 15 349 -69
461 -340 287 -691 -42 -85 -125 -207 -203 -298 -43 -49 -72 -94 -81 -122 -7
-25 -9 -45 -5 -45 12 0 170 168 235 249 178 223 263 427 254 611 -7 157 -83
267 -232 336 -119 55 -202 67 -411 61 -99 -3 -197 -11 -218 -17 -47 -14 -57
-7 -31 21 30 33 25 95 -9 125 -34 29 -69 34 -45 7z"/>
<path d="M1855 2760 c-25 -48 -15 -97 24 -127 31 -24 45 -15 25 15 -12 18 -18
46 -19 84 0 32 -3 58 -7 58 -4 0 -14 -13 -23 -30z"/>
<path d="M1667 2734 c-7 -7 14 -41 49 -83 13 -14 32 -37 43 -51 l20 -25 1 37
c0 26 -6 40 -18 47 -10 5 -27 26 -37 45 -18 33 -42 45 -58 30z"/>
<path d="M1570 2699 c0 -14 91 -139 102 -139 14 0 9 58 -6 63 -8 3 -24 24 -37
46 -21 38 -59 57 -59 30z"/>
<path d="M1483 2673 c-18 -7 -16 -21 12 -78 13 -27 25 -60 25 -72 0 -24 19
-30 37 -12 7 7 5 21 -7 47 -10 20 -24 56 -31 80 -12 43 -14 44 -36 35z"/>
<path d="M2080 2660 c0 -5 5 -10 11 -10 5 0 7 5 4 10 -3 6 -8 10 -11 10 -2 0
-4 -4 -4 -10z"/>
<path d="M1333 2612 c-8 -5 11 -28 57 -70 66 -60 89 -66 75 -21 -4 11 -9 18
-12 16 -2 -3 -23 15 -45 39 -41 44 -53 50 -75 36z"/>
<path d="M1190 2527 c0 -15 10 -31 25 -41 14 -9 25 -23 25 -31 0 -8 7 -15 15
-15 8 0 20 -9 27 -19 9 -15 16 -17 34 -9 21 10 19 13 -43 72 -77 72 -83 75
-83 43z"/>
<path d="M1070 2492 c0 -12 19 -26 26 -19 2 2 -2 10 -11 17 -9 8 -15 8 -15 2z"/>
<path d="M2005 2481 c-217 -39 -431 -113 -642 -223 -131 -68 -186 -102 -191
-116 -7 -21 18 -13 42 13 25 27 51 32 59 12 3 -7 5 -69 6 -137 1 -95 -2 -130
-13 -145 -11 -16 -17 -17 -29 -7 -8 7 -18 24 -22 39 -8 33 -65 121 -99 152
-32 30 -39 27 -161 -66 -58 -44 -90 -76 -90 -88 0 -15 40 -40 170 -107 181
-93 221 -125 256 -206 25 -58 25 -156 0 -215 -29 -67 -82 -120 -153 -152 -53
-24 -75 -28 -157 -28 -63 -1 -117 5 -156 17 -33 9 -68 19 -77 22 -10 3 -27 -6
-42 -22 -20 -22 -27 -25 -39 -15 -22 17 -24 297 -3 326 12 16 16 17 30 6 9 -7
16 -19 16 -27 0 -34 45 -126 82 -168 57 -65 102 -86 185 -86 114 0 171 57 161
162 -7 66 -27 85 -166 154 -137 67 -183 97 -238 154 l-41 42 -60 -67 c-120
-130 -223 -305 -258 -437 -26 -98 -18 -207 21 -278 57 -104 159 -160 341 -186
372 -52 982 170 1416 516 55 43 77 67 74 78 -3 10 -24 69 -47 132 -23 63 -56
156 -72 205 -34 101 -44 117 -54 89 -10 -28 -81 -214 -164 -426 -65 -166 -76
-188 -96 -188 -16 0 -25 9 -34 33 -11 31 -99 280 -180 512 -116 334 -114 329
-151 347 -19 10 -34 26 -34 35 0 16 17 18 194 21 194 2 230 -3 203 -30 -7 -7
-27 -17 -44 -22 -22 -8 -34 -18 -36 -33 -4 -24 157 -523 168 -523 9 0 150 369
150 391 0 18 -31 105 -48 136 -7 13 -29 27 -53 33 -29 8 -39 16 -37 28 3 15
25 17 211 20 184 2 208 1 214 -14 7 -18 -12 -34 -42 -34 -55 -1 -59 -34 -22
-150 14 -41 48 -148 77 -237 28 -90 55 -161 60 -158 4 3 10 15 12 27 3 13 35
115 72 228 83 254 83 278 3 295 -20 4 -27 11 -25 23 3 15 19 17 121 20 103 2
118 1 124 -15 4 -11 0 -20 -12 -27 -49 -28 -64 -58 -130 -255 -37 -111 -65
-205 -62 -207 8 -9 93 117 141 207 67 128 81 178 81 294 0 115 -17 157 -86
225 -112 109 -357 148 -624 101z"/>
<path d="M1380 2449 c0 -5 5 -7 10 -4 6 3 10 8 10 11 0 2 -4 4 -10 4 -5 0 -10
-5 -10 -11z"/>
<path d="M1000 2428 c0 -31 24 -48 69 -48 43 0 61 -9 61 -32 0 -10 5 -16 10
-13 16 10 11 51 -8 68 -11 10 -36 17 -62 17 -29 0 -47 6 -56 18 -12 15 -13 15
-14 -10z"/>
<path d="M1201 2424 c0 -11 3 -14 6 -6 3 7 2 16 -1 19 -3 4 -6 -2 -5 -13z"/>
<path d="M1196 2375 c-3 -8 -1 -15 4 -15 6 0 10 7 10 15 0 8 -2 15 -4 15 -2 0
-6 -7 -10 -15z"/>
<path d="M1052 2311 c4 -13 18 -16 19 -4 0 4 -5 9 -11 12 -7 2 -11 -2 -8 -8z"/>
<path d="M925 2123 c-53 -14 -120 -101 -101 -132 8 -12 174 109 175 127 1 12
-35 15 -74 5z"/>
<path d="M588 1842 c-204 -210 -333 -416 -379 -607 -65 -273 55 -463 341 -541
90 -25 368 -25 495 0 386 75 796 259 1133 508 81 60 92 72 86 91 -3 12 -8 24
-10 26 -1 2 -29 -18 -61 -44 -89 -73 -295 -206 -423 -273 -484 -255 -965 -332
-1251 -200 -195 90 -267 305 -182 538 46 126 155 296 269 420 53 58 64 76 64
104 0 19 -4 37 -8 40 -5 3 -38 -25 -74 -62z"/>
</g>
</svg>
