<?xml version="1.0" standalone="no"?>
<!DOCTYPE svg PUBLIC "-//W3C//DTD SVG 20010904//EN"
 "http://www.w3.org/TR/2001/REC-SVG-20010904/DTD/svg10.dtd">
<svg version="1.0" xmlns="http://www.w3.org/2000/svg"
 width="192.000000pt" height="192.000000pt" viewBox="0 0 192.000000 192.000000"
 preserveAspectRatio="xMidYMid meet">

<g transform="translate(0.000000,192.000000) scale(0.100000,-0.100000)"
fill="#000000" stroke="none">
<path d="M1276 1738 c4 -7 26 -30 50 -52 l44 -39 0 27 c0 15 -6 26 -13 26 -8
0 -24 11 -37 25 -24 26 -54 34 -44 13z"/>
<path d="M1209 1726 c8 -10 18 -36 21 -59 l6 -42 14 28 c12 25 11 31 -6 54
-11 15 -27 29 -35 31 -12 5 -12 3 0 -12z"/>
<path d="M1152 1718 c-18 -18 -14 -63 6 -81 28 -26 32 -20 16 19 -8 19 -12 44
-9 55 7 22 4 24 -13 7z"/>
<path d="M1036 1691 c-3 -4 9 -27 27 -50 27 -36 32 -39 35 -22 2 11 -6 29 -17
40 -12 12 -21 26 -21 31 0 12 -17 13 -24 1z"/>
<path d="M970 1674 c0 -3 15 -26 33 -51 38 -53 51 -35 15 21 -20 31 -48 48
-48 30z"/>
<path d="M916 1651 c-3 -4 2 -28 11 -52 20 -54 19 -52 31 -45 6 4 4 25 -6 56
-17 49 -25 59 -36 41z"/>
<path d="M1310 1636 c-3 -3 -28 -7 -55 -9 -109 -10 -367 -111 -530 -208 -95
-56 -104 -65 -85 -73 16 -7 30 -4 58 13 243 145 483 224 677 225 166 0 271
-47 322 -144 20 -38 23 -56 20 -122 -3 -64 -10 -89 -44 -160 -22 -46 -70 -121
-106 -166 -37 -45 -70 -94 -73 -110 -6 -25 -3 -23 46 23 28 28 79 86 112 130
160 211 189 402 77 513 -64 64 -129 85 -284 90 -71 2 -132 1 -135 -2z"/>
<path d="M822 1612 c2 -5 22 -25 46 -46 30 -27 42 -34 42 -22 0 19 -58 75 -78
76 -8 0 -12 -4 -10 -8z"/>
<path d="M740 1566 c0 -16 56 -76 72 -76 20 0 10 19 -29 54 -32 28 -43 34 -43
22z"/>
<path d="M660 1540 c0 -5 5 -10 11 -10 5 0 7 5 4 10 -3 6 -8 10 -11 10 -2 0
-4 -4 -4 -10z"/>
<path d="M1226 1535 c-111 -21 -241 -67 -360 -126 -115 -57 -162 -88 -133 -89
10 0 20 7 23 15 4 8 12 15 20 15 11 0 14 -20 14 -95 0 -75 -3 -95 -14 -95 -8
0 -19 15 -26 34 -6 18 -25 50 -43 71 l-32 37 -73 -53 c-39 -30 -70 -58 -69
-64 2 -5 46 -32 99 -60 102 -53 141 -83 164 -127 18 -35 18 -111 0 -146 -19
-36 -65 -78 -99 -91 -38 -14 -133 -14 -197 1 -46 11 -53 10 -62 -5 -19 -35
-28 -3 -28 99 0 112 11 131 34 62 33 -94 85 -138 166 -138 82 0 131 90 77 144
-13 13 -65 44 -115 71 -51 26 -103 60 -116 76 l-24 28 -41 -44 c-97 -106 -171
-256 -171 -348 0 -58 36 -125 86 -160 56 -39 167 -61 269 -52 172 15 406 95
580 200 106 63 225 151 225 164 0 5 -20 64 -45 132 -25 68 -45 130 -45 137 0
37 -22 -8 -90 -183 -55 -143 -79 -195 -90 -193 -10 2 -41 79 -91 223 -109 313
-112 319 -137 330 -46 20 -14 30 106 33 100 2 122 0 122 -12 0 -7 -11 -17 -25
-20 -14 -4 -25 -13 -25 -22 0 -9 23 -89 51 -177 l52 -162 49 125 c46 117 48
128 37 165 -13 48 -35 75 -61 75 -11 0 -18 5 -15 13 5 17 259 17 264 0 3 -7
-8 -13 -24 -15 -20 -2 -29 -9 -31 -26 -4 -27 90 -315 99 -304 7 7 56 156 82
248 16 56 9 84 -23 84 -11 0 -20 7 -20 15 0 12 15 15 75 15 81 0 90 -7 51 -43
-16 -14 -38 -64 -65 -146 -22 -69 -39 -126 -37 -128 7 -8 95 133 117 187 15
37 22 77 23 122 0 59 -4 73 -29 110 -20 29 -49 52 -87 72 -49 24 -71 29 -160
32 -65 2 -132 -2 -182 -11z"/>
<path d="M620 1504 c0 -24 17 -34 57 -34 21 0 24 -4 20 -21 -4 -15 -3 -19 4
-12 6 6 9 21 7 34 -2 19 -10 25 -38 27 -19 2 -38 9 -42 15 -5 8 -8 4 -8 -9z"/>
<path d="M742 1485 c0 -16 2 -22 5 -12 2 9 2 23 0 30 -3 6 -5 -1 -5 -18z"/>
<path d="M650 1430 c0 -6 7 -10 15 -10 8 0 15 2 15 4 0 2 -7 6 -15 10 -8 3
-15 1 -15 -4z"/>
<path d="M555 1304 c-35 -18 -45 -31 -45 -62 0 -21 3 -20 53 19 28 23 54 45
55 50 6 14 -30 10 -63 -7z"/>
<path d="M349 1123 c-185 -192 -261 -377 -217 -527 20 -66 91 -130 174 -156
134 -43 332 -27 539 41 220 73 576 280 558 324 -4 13 -10 12 -32 -6 -77 -60
-247 -166 -326 -204 -201 -96 -377 -139 -545 -133 -99 3 -113 6 -176 38 -94
48 -127 96 -132 190 -3 52 1 84 18 134 25 75 99 195 165 265 36 39 44 53 37
70 -7 20 -11 17 -63 -36z"/>
</g>
</svg>
