<?xml version="1.0" encoding="UTF-8"?>
<svg version="1.1" xmlns="http://www.w3.org/2000/svg" width="800" height="400">
<path d="M0 0 C3.93859622 3.59464347 5.87465191 7.37137735 6.66796875 12.66015625 C7.15673951 24.45807118 1.85925212 33.66526256 -4.71875 43.08203125 C-5.24339844 43.84644531 -5.76804687 44.61085937 -6.30859375 45.3984375 C-6.77394531 45.95402344 -7.23929687 46.50960937 -7.71875 47.08203125 C-8.37875 47.08203125 -9.03875 47.08203125 -9.71875 47.08203125 C-8.1957961 40.02835005 -6.1976638 33.22690344 -3.71875 26.45703125 C-3.4697998 25.75835937 -3.22084961 25.0596875 -2.96435547 24.33984375 C-1.61550469 20.749975 -0.99501699 19.26620924 2.28125 17.08203125 C-0.35875 17.08203125 -2.99875 17.08203125 -5.71875 17.08203125 C-4.72875 18.07203125 -4.72875 18.07203125 -3.71875 19.08203125 C-4.0155809 25.98574342 -6.63817563 32.50887871 -8.78125 39.01953125 C-9.15830078 40.18033203 -9.53535156 41.34113281 -9.92382812 42.53710938 C-10.85037524 45.38712139 -11.78214873 48.23531076 -12.71875 51.08203125 C-13.70875 51.08203125 -14.69875 51.08203125 -15.71875 51.08203125 C-15.88479736 50.52330322 -16.05084473 49.9645752 -16.22192383 49.38891602 C-16.99018292 46.80700052 -17.76070514 44.22576546 -18.53125 41.64453125 C-18.79228516 40.76603516 -19.05332031 39.88753906 -19.32226562 38.98242188 C-19.71381836 37.67241211 -19.71381836 37.67241211 -20.11328125 36.3359375 C-20.50507568 35.02326904 -20.50507568 35.02326904 -20.90478516 33.68408203 C-21.9198128 30.4392816 -23.07381108 27.25140503 -24.2722168 24.07006836 C-24.79961328 21.72201503 -24.51594517 20.33309627 -23.71875 18.08203125 C-23.22375 17.58703125 -23.22375 17.58703125 -22.71875 17.08203125 C-27.99875 17.08203125 -33.27875 17.08203125 -38.71875 17.08203125 C-37.72875 18.40203125 -36.73875 19.72203125 -35.71875 21.08203125 C-33.19321804 25.29125119 -33.9498058 28.05367714 -35.02172852 32.57495117 C-36.17274848 36.71499462 -37.73242108 40.66533484 -39.34375 44.64453125 C-39.66859375 45.46244141 -39.9934375 46.28035156 -40.328125 47.12304688 C-41.11896796 49.11178431 -41.91799219 51.09726524 -42.71875 53.08203125 C-47.52962976 49.09720968 -48.58550998 42.42210034 -50.46875 36.70703125 C-50.89285156 35.4746875 -51.31695312 34.24234375 -51.75390625 32.97265625 C-52.14964844 31.78414062 -52.54539062 30.595625 -52.953125 29.37109375 C-53.31631836 28.28521973 -53.67951172 27.1993457 -54.05371094 26.08056641 C-54.74710783 22.95417115 -54.65986452 21.11640847 -53.71875 18.08203125 C-53.22375 17.58703125 -53.22375 17.58703125 -52.71875 17.08203125 C-57.99875 17.08203125 -63.27875 17.08203125 -68.71875 17.08203125 C-67.72875 18.73203125 -66.73875 20.38203125 -65.71875 22.08203125 C-65.07083887 23.61414077 -64.4676022 25.16587942 -63.90942383 26.73291016 C-63.58931839 27.62378326 -63.26921295 28.51465637 -62.93940735 29.43252563 C-62.60491074 30.38162811 -62.27041412 31.33073059 -61.92578125 32.30859375 C-61.39944344 33.78554214 -61.39944344 33.78554214 -60.86247253 35.29232788 C-60.12450189 37.36744929 -59.38923162 39.44353277 -58.65649414 41.52050781 C-57.53188239 44.7052404 -56.39644485 47.88596354 -55.25976562 51.06640625 C-54.54362117 53.08440498 -53.82810459 55.10262667 -53.11328125 57.12109375 C-52.60242729 58.55082016 -52.60242729 58.55082016 -52.08125305 60.00942993 C-51.7706041 60.89399872 -51.45995514 61.7785675 -51.13989258 62.68994141 C-50.86470291 63.46761871 -50.58951324 64.24529602 -50.3059845 65.04653931 C-49.71875 67.08203125 -49.71875 67.08203125 -49.71875 70.08203125 C-49.05875 70.08203125 -48.39875 70.08203125 -47.71875 70.08203125 C-47.54859375 69.47834717 -47.3784375 68.87466309 -47.203125 68.25268555 C-45.38324308 61.97324589 -43.19217667 55.94326828 -40.71875 49.89453125 C-40.37585938 49.04439453 -40.03296875 48.19425781 -39.6796875 47.31835938 C-39.01140856 45.66679214 -38.33843492 44.0171146 -37.66015625 42.36962891 C-37.0549382 40.89896161 -36.45787935 39.42489569 -35.87109375 37.94677734 C-33.94227694 33.19379472 -33.94227694 33.19379472 -31.71875 32.08203125 C-30.23639107 36.16421281 -28.75841659 40.24796823 -27.28125 44.33203125 C-26.86037109 45.49089844 -26.43949219 46.64976562 -26.00585938 47.84375 C-25.60302734 48.95878906 -25.20019531 50.07382813 -24.78515625 51.22265625 C-24.2274353 52.76228027 -24.2274353 52.76228027 -23.65844727 54.33300781 C-22.89161392 56.57632906 -22.24295837 58.77261557 -21.71875 61.08203125 C-45.35685263 79.9615633 -72.71458172 95.15715017 -103.53125 95.45703125 C-104.60576416 95.47113037 -105.68027832 95.48522949 -106.78735352 95.49975586 C-115.68191795 95.44509459 -122.57617072 93.95903451 -129.2421875 87.734375 C-133.61691713 82.83884422 -134.33226828 77.35683873 -134.125 71.03515625 C-132.34127967 58.06888152 -123.2898096 46.51019681 -114.71875 37.08203125 C-112.78125 37.39453125 -112.78125 37.39453125 -110.71875 38.08203125 C-110.38875 39.07203125 -110.05875 40.06203125 -109.71875 41.08203125 C-107.88570738 42.20550246 -107.88570738 42.20550246 -105.71875 43.08203125 C-102.8553382 44.5227997 -100.00429514 45.98614212 -97.15625 47.45703125 C-96.38861328 47.84375 -95.62097656 48.23046875 -94.83007812 48.62890625 C-87.71246202 52.32733624 -87.71246202 52.32733624 -85.71875 56.08203125 C-85.00161073 60.20558204 -85.53743252 61.78172418 -87.71875 65.39453125 C-90.39754777 68.27007688 -92.78729216 69.05964131 -96.671875 69.2421875 C-101.94077124 68.82992653 -105.55170035 66.57648374 -109.09375 62.83203125 C-111.93331325 59.29012921 -112.53556421 56.5700831 -112.71875 52.08203125 C-113.37875 52.08203125 -114.03875 52.08203125 -114.71875 52.08203125 C-114.71875 58.02203125 -114.71875 63.96203125 -114.71875 70.08203125 C-114.05875 70.08203125 -113.39875 70.08203125 -112.71875 70.08203125 C-112.22375 68.59703125 -112.22375 68.59703125 -111.71875 67.08203125 C-111.11289063 67.22640625 -110.50703125 67.37078125 -109.8828125 67.51953125 C-101.04527934 69.47738475 -92.97996939 70.61479236 -84.63671875 66.40625 C-81.4404127 64.19943177 -79.84350595 61.77872913 -78.71875 58.08203125 C-77.8364265 52.7778307 -78.75566586 48.57774512 -81.71875 44.08203125 C-86.28500845 39.90619639 -91.53384506 37.61958364 -97.09960938 35.08203125 C-102.40613683 32.55464329 -102.40613683 32.55464329 -104.20703125 29.83203125 C-104.37589844 29.25453125 -104.54476562 28.67703125 -104.71875 28.08203125 C-102.64690703 26.37844938 -100.56332677 24.69474415 -98.46875 23.01953125 C-97.88222656 22.53419922 -97.29570312 22.04886719 -96.69140625 21.54882812 C-92.24090748 18.02343303 -92.24090748 18.02343303 -89.64550781 18.31469727 C-84.7793111 20.25266689 -82.90184263 25.715846 -80.71875 30.08203125 C-80.38875 25.13203125 -80.05875 20.18203125 -79.71875 15.08203125 C-80.37875 15.08203125 -81.03875 15.08203125 -81.71875 15.08203125 C-81.71875 15.74203125 -81.71875 16.40203125 -81.71875 17.08203125 C-82.70875 17.41203125 -83.69875 17.74203125 -84.71875 18.08203125 C-85.37875 17.75203125 -86.03875 17.42203125 -86.71875 17.08203125 C-86.71875 16.42203125 -86.71875 15.76203125 -86.71875 15.08203125 C-64.22001535 1.2818286 -25.06202524 -17.68025057 0 0 Z " fill="#125EA8" transform="translate(249.71875,160.91796875)"/>
<path d="M0 0 C1.32 0 2.64 0 4 0 C4 3.63 4 7.26 4 11 C4.76441406 10.95359375 5.52882813 10.9071875 6.31640625 10.859375 C17.28284565 10.48986802 28.59138965 11.5376711 37.25 18.875 C42.54439783 24.22910908 44.72466288 29.53075231 45.3125 36.9375 C44.98525745 56.89929539 30.30786492 72.87487145 17.06640625 86.19921875 C15 88 15 88 13 88 C13.90965277 81.63243058 17.4085086 77.40271884 21.27807617 72.47949219 C29.41322971 62.07704238 36.58410108 50.77287885 35 37 C33.34263123 31.3613432 31.18490353 27.04331294 26 24 C7.1791774 15.23586485 -12.72560872 19.49877566 -31.56640625 26.26171875 C-40.71848381 29.73513385 -49.36289427 34.23213791 -57.5625 39.5625 C-60.64343003 41.49655252 -62.4821918 42.37470928 -66.125 41.875 C-67.548125 41.441875 -67.548125 41.441875 -69 41 C-67.7308453 37.1925359 -66.42849251 36.81326707 -63 34.875 C-59.81043387 33.19447491 -59.81043387 33.19447491 -57 31 C-56.92728259 28.64686445 -56.91629132 26.29166332 -56.9375 23.9375 C-56.94652344 22.64714844 -56.95554688 21.35679687 -56.96484375 20.02734375 C-56.97644531 19.02832031 -56.98804688 18.02929688 -57 17 C-53.65291351 18.5545046 -51.60548168 20.39451832 -49 23 C-48.34 23 -47.68 23 -47 23 C-48.26974972 18.58477891 -48.26974972 18.58477891 -51 15 C-49.35 14.34 -47.7 13.68 -46 13 C-44.68 14.32 -43.36 15.64 -42 17 C-41.896875 15.9275 -41.79375 14.855 -41.6875 13.75 C-40.89184001 10.94245689 -40.29404417 10.17135677 -37.734375 8.6796875 C-31.86943716 6.46804893 -26.23674983 5.4089672 -20 5 C-20 8.3 -20 11.6 -20 15 C-19.01 14.67 -18.02 14.34 -17 14 C-17.66 13.01 -18.32 12.02 -19 11 C-18.625 7.3125 -18.625 7.3125 -18 4 C-14.53988627 2.47111254 -12.78719764 1.74330512 -9.125 2.9375 C-7 5 -7 5 -6.6875 8.6875 C-6.790625 9.780625 -6.89375 10.87375 -7 12 C-5.73973202 9.47946405 -6.08125555 8.1457902 -6.4375 5.375 C-6.59025391 4.14910156 -6.59025391 4.14910156 -6.74609375 2.8984375 C-6.82988281 2.27195313 -6.91367188 1.64546875 -7 1 C-3.17902761 1.53069061 -0.93828597 2.49701566 2 5 C1.01 2.525 1.01 2.525 0 0 Z M-15 5 C-15.20970559 9.14093698 -15.20970559 9.14093698 -14 13 C-12.68 12.67 -11.36 12.34 -10 12 C-10.33 10.02 -10.66 8.04 -11 6 C-12.32 5.67 -13.64 5.34 -15 5 Z M-25 7 C-24.01 8.485 -24.01 8.485 -23 10 C-23 9.01 -23 8.02 -23 7 C-23.66 7 -24.32 7 -25 7 Z M-3 7 C-2.67 8.65 -2.34 10.3 -2 12 C-0.68 11.67 0.64 11.34 2 11 C0.35 9.68 -1.3 8.36 -3 7 Z M-31 9 C-30.01 10.32 -29.02 11.64 -28 13 C-28 11.68 -28 10.36 -28 9 C-28.99 9 -29.98 9 -31 9 Z M-36 10 C-37.37312951 13.04281814 -37.37312951 13.04281814 -35.75 16.125 C-34.25813222 19.27281273 -34.25813222 19.27281273 -31 20 C-30.34 19.34 -29.68 18.68 -29 18 C-29.97528737 16.66382648 -30.95533319 15.3311249 -31.9375 14 C-32.75541016 12.88625 -32.75541016 12.88625 -33.58984375 11.75 C-34.28787109 10.88375 -34.28787109 10.88375 -35 10 C-35.33 10 -35.66 10 -36 10 Z M-27 12 C-27 13.98 -27 15.96 -27 18 C-25.68 17.34 -24.36 16.68 -23 16 C-24.32 14.68 -25.64 13.36 -27 12 Z M-39 17 C-39 18.98 -39 20.96 -39 23 C-38.67 23 -38.34 23 -38 23 C-38 21.02 -38 19.04 -38 17 C-38.33 17 -38.66 17 -39 17 Z M-45 20 C-44.67 20.99 -44.34 21.98 -44 23 C-43.34 22.67 -42.68 22.34 -42 22 C-42.99 21.34 -43.98 20.68 -45 20 Z M-53 25 C-53.66 25.66 -54.32 26.32 -55 27 C-54.34 27 -53.68 27 -53 27 C-53 27.66 -53 28.32 -53 29 C-52.34 28.67 -51.68 28.34 -51 28 C-51.66 27.01 -52.32 26.02 -53 25 Z " fill="#2268AE" transform="translate(222,135)"/>
<path d="M0 0 C5.28 0.66 10.56 1.32 16 2 C16.06886985 6.7877298 16.12860026 11.57374177 16.16479492 16.36157227 C16.17988243 17.99021223 16.20035506 19.61881156 16.22631836 21.24731445 C16.26270449 23.58815535 16.2797262 25.92845919 16.29296875 28.26953125 C16.30845261 28.99775589 16.32393646 29.72598053 16.33988953 30.47627258 C16.34156817 35.51739104 16.34156817 35.51739104 14.609375 37.96484375 C11.59370361 39.9045353 8.48303661 39.17129688 5 39 C4.15318867 33.91913204 3.90961901 29.15171623 4 24 C0.7 24 -2.6 24 -6 24 C-6.165 24.86625 -6.33 25.7325 -6.5 26.625 C-8.55405472 31.24662311 -11.74160895 33.41123554 -16 36 C-22.96340728 38.32113576 -29.58158597 37.45162148 -36.0859375 34.2109375 C-39.83745914 31.83752585 -41.62011346 29.13965962 -43 25 C-43.52485628 20.000959 -43.59265657 16.14298053 -41.25 11.625 C-40.5075 10.75875 -39.765 9.8925 -39 9 C-38.401875 8.2575 -37.80375 7.515 -37.1875 6.75 C-32.45063026 2.96050421 -26.87349399 2.58046472 -21 3 C-14.77208895 4.28853332 -10.88619744 6.33330707 -7.1875 11.5625 C-6 14 -6 14 -6 17 C-2.7 16.67 0.6 16.34 4 16 C4.51942603 10.71156882 4.51942603 10.71156882 2.625 6.0625 C0.97750576 4.94076516 0.97750576 4.94076516 -1 4 C-0.67 2.68 -0.34 1.36 0 0 Z M-29.4375 11.8125 C-31.58978193 16.20315514 -31.67319947 20.185841 -31 25 C-29.76139632 28.18277593 -29.76139632 28.18277593 -27 30 C-22.77936512 30.49542323 -22.77936512 30.49542323 -19.1875 28.5625 C-16.84598251 23.50975173 -16.47322209 18.8437227 -18 13.5 C-19.87430452 10.70091409 -19.87430452 10.70091409 -23.4375 9.8125 C-27.02843308 9.6718255 -27.02843308 9.6718255 -29.4375 11.8125 Z " fill="#565657" transform="translate(673,184)"/>
<path d="M0 0 C0.55299733 2.8264308 0.71640115 4.25297216 0 7 C-1.99187035 9.58355973 -4.21340977 11.84648837 -6.4765625 14.1953125 C-15.94457603 24.71858451 -20.68984906 36.00735005 -20.27734375 50.08203125 C-19.77040167 55.41563317 -17.74394019 58.48810156 -14.0625 62.1875 C-4.7095599 69.61139621 8.81056533 68.91618642 20.11572266 67.7890625 C44.99381446 64.7672929 69.12181552 52.03547573 88.6015625 36.72265625 C91 35 91 35 93 35 C93.495 37.475 93.495 37.475 94 40 C74.16230641 54.40140256 53.71777179 65.48711072 30 72 C28.81148437 72.3403125 27.62296875 72.680625 26.3984375 73.03125 C11.84133442 76.71314024 -4.91065667 77.29071088 -18.25 69.75 C-23.12939967 66.46085002 -26.7422993 62.51540139 -29.375 57.25 C-31.98526802 43.6766063 -27.65815328 32.68677505 -20.3515625 21.31640625 C-5.64140183 0 -5.64140183 0 0 0 Z " fill="#3172B3" transform="translate(136,189)"/>
<path d="M0 0 C5.52519352 -0.19386644 9.65331565 0.3538693 15 2 C15.05785647 5.95827235 15.09354717 9.9164367 15.125 13.875 C15.14175781 15.00292969 15.15851562 16.13085938 15.17578125 17.29296875 C15.18544922 18.90751953 15.18544922 18.90751953 15.1953125 20.5546875 C15.21102295 22.04718018 15.21102295 22.04718018 15.22705078 23.56982422 C15 26 15 26 13 28 C10.01037897 28.20006302 7.1153765 28.27972923 4.125 28.265625 C2.80459717 28.26849518 2.80459717 28.26849518 1.45751953 28.27142334 C-0.40527634 28.27278552 -2.26808169 28.26908682 -4.13085938 28.26074219 C-6.98849736 28.25004307 -9.84550666 28.26063632 -12.703125 28.2734375 C-14.51041806 28.27211591 -16.31771073 28.26955353 -18.125 28.265625 C-18.98335449 28.26967346 -19.84170898 28.27372192 -20.72607422 28.27789307 C-26.77008255 28.22991745 -26.77008255 28.22991745 -29 26 C-29.27124023 24.07641602 -29.27124023 24.07641602 -29.30859375 21.75390625 C-29.33373047 20.91666016 -29.35886719 20.07941406 -29.38476562 19.21679688 C-29.41984284 17.45124376 -29.45111025 15.68561073 -29.47851562 13.91992188 C-29.50494141 13.08138672 -29.53136719 12.24285156 -29.55859375 11.37890625 C-29.57204834 10.6113501 -29.58550293 9.84379395 -29.59936523 9.05297852 C-30.09649063 6.50555169 -31.16572103 5.76128495 -33 4 C-33 3.01 -33 2.02 -33 1 C-27.47322267 0.80607799 -23.24385089 1.2520497 -18 3 C-18 4.98 -18 6.96 -18 9 C-10.74 9 -3.48 9 4 9 C3.505 6.525 3.505 6.525 3 4 C2.01 3.67 1.02 3.34 0 3 C0 2.01 0 1.02 0 0 Z M-18 16 C-18 17.98 -18 19.96 -18 22 C-10.74 22 -3.48 22 4 22 C4 20.02 4 18.04 4 16 C-3.26 16 -10.52 16 -18 16 Z " fill="#59595A" transform="translate(673,224)"/>
<path d="M0 0 C16.83 0.33 33.66 0.66 51 1 C51.495 3.475 51.495 3.475 52 6 C50 8 50 8 46.0859375 8.1953125 C44.51550649 8.18200376 42.94513779 8.15813602 41.375 8.125 C40.57320313 8.11597656 39.77140625 8.10695312 38.9453125 8.09765625 C36.96341477 8.07406223 34.98167019 8.03819065 33 8 C32.34 9.65 31.68 11.3 31 13 C31.58007812 13.19335938 32.16015625 13.38671875 32.7578125 13.5859375 C34.37851793 14.12617264 35.99826707 14.66928279 37.6171875 15.21484375 C39.48200588 15.82931669 41.36347369 16.39330972 43.25 16.9375 C46.5398088 18.20856249 48.56787043 19.4288916 51 22 C51.875 25.6875 51.875 25.6875 52 29 C51 30 51 30 49.13671875 30.125 C40.70030829 29.6944336 33.00092429 26.00092429 27 20 C23.07051092 20.33076507 20.40375901 21.76947105 17.125 23.875 C10.64809713 27.86669125 5.87611065 30.48221086 -2 30 C-2 29.01 -2 28.02 -2 27 C0.23046875 25.1328125 0.23046875 25.1328125 3.1875 23.125 C9.09458818 18.98246509 13.52307346 14.63588039 18 9 C17.03578125 8.98582031 16.0715625 8.97164062 15.078125 8.95703125 C13.81484375 8.90933594 12.5515625 8.86164063 11.25 8.8125 C9.99703125 8.77769531 8.7440625 8.74289063 7.453125 8.70703125 C4 8 4 8 1.546875 5.63671875 C0 3 0 3 0 0 Z " fill="#5D5D5E" transform="translate(320,188)"/>
<path d="M0 0 C6.53278786 -0.02527002 13.06556321 -0.04283292 19.59838867 -0.05493164 C21.82267732 -0.05997317 24.04696263 -0.06680623 26.27124023 -0.07543945 C29.46078309 -0.08751298 32.65028229 -0.09322996 35.83984375 -0.09765625 C37.34139259 -0.10539818 37.34139259 -0.10539818 38.87327576 -0.11329651 C39.79415482 -0.11337204 40.71503387 -0.11344757 41.66381836 -0.11352539 C42.47878281 -0.115746 43.29374725 -0.11796661 44.13340759 -0.12025452 C46 0 46 0 47 1 C47.30695516 4.61656686 47.27835951 8.24700353 47.3125 11.875 C47.34150391 12.89464844 47.37050781 13.91429687 47.40039062 14.96484375 C47.40876953 15.94324219 47.41714844 16.92164063 47.42578125 17.9296875 C47.44036377 18.82929199 47.45494629 19.72889648 47.4699707 20.65576172 C47 23 47 23 45.4675293 24.79199219 C42.03945699 26.47024506 38.82954664 26.42941332 35.09375 26.3984375 C34.33203491 26.40130768 33.57031982 26.40417786 32.78552246 26.40713501 C31.17845921 26.40917234 29.57137098 26.40366558 27.96435547 26.39111328 C25.5082236 26.37505377 23.05373711 26.39097196 20.59765625 26.41015625 C19.03385054 26.40817376 17.47004586 26.40432996 15.90625 26.3984375 C14.80766663 26.40754654 14.80766663 26.40754654 13.68688965 26.4168396 C10.57220839 26.37399836 8.31289635 26.1645991 5.53515625 24.70336914 C2.68453258 21.54039182 3.48981282 16.94882551 3.51171875 12.89257812 C3.43730584 9.24296313 3.30804006 7.37971861 0.96875 4.49609375 C0.3190625 4.00238281 -0.330625 3.50867188 -1 3 C-0.67 2.01 -0.34 1.02 0 0 Z M15 6 C15.144375 8.124375 15.28875 10.24875 15.4375 12.4375 C15.51871094 13.63246094 15.59992188 14.82742187 15.68359375 16.05859375 C15.67656114 18.88570244 15.67656114 18.88570244 17 20 C19.84335048 20.09986975 22.65697163 20.13877881 25.5 20.125 C26.29792969 20.12886719 27.09585937 20.13273437 27.91796875 20.13671875 C31.7683932 20.5089961 31.7683932 20.5089961 35 19 C35.07258946 16.81360547 35.08373783 14.62499611 35.0625 12.4375 C35.041875 10.313125 35.02125 8.18875 35 6 C28.4 6 21.8 6 15 6 Z " fill="#606061" transform="translate(421,227)"/>
<path d="M0 0 C5.28 0.66 10.56 1.32 16 2 C16.06774643 10.42313952 16.12279879 18.84606765 16.15543652 27.26940632 C16.17110009 31.18060226 16.19235063 35.09160234 16.22631836 39.00268555 C16.25888769 42.77632259 16.2768478 46.5497711 16.28463173 50.32353783 C16.29017965 51.76408036 16.30101336 53.20461246 16.31719017 54.64507484 C16.33892959 56.6608234 16.3402251 58.67676121 16.34057617 60.69262695 C16.34723801 61.84068314 16.35389984 62.98873932 16.36076355 64.17158508 C16 67 16 67 14.74043274 68.88249207 C11.62287188 70.88423503 8.61550901 70.17781192 5 70 C5.00079559 69.21961365 5.00159119 68.43922729 5.00241089 67.63519287 C5.00461938 60.27797373 4.97821482 52.92167569 4.9197216 45.56470871 C4.89065729 41.78239249 4.87263266 38.0006965 4.87988281 34.21826172 C4.88647393 30.56733978 4.86400695 26.91764365 4.82144547 23.2669754 C4.81030981 21.87478245 4.80961852 20.48246524 4.81957626 19.09026337 C5.22927359 11.74662815 5.22927359 11.74662815 2.61090088 5.23693848 C0.82689817 3.93808046 0.82689817 3.93808046 -2 3 C-1.34 2.01 -0.68 1.02 0 0 Z " fill="#4D4D4F" transform="translate(599,184)"/>
<path d="M0 0 C8.8316372 0.1074162 17.66318815 0.22003211 26.49467278 0.33933926 C30.5952165 0.39457017 34.69576735 0.44799044 38.79638672 0.49731445 C42.75161172 0.54495553 46.7067488 0.59729824 50.66186905 0.65294075 C52.17296289 0.67336547 53.68408084 0.69207836 55.19521713 0.70907402 C57.30715424 0.73311551 59.41892468 0.76317022 61.53076172 0.79467773 C63.33611893 0.81799416 63.33611893 0.81799416 65.177948 0.84178162 C68 1 68 1 70 2 C69.67 3.65 69.34 5.3 69 7 C65.82212459 8.0592918 63.57411057 8.11458939 60.23828125 8.09765625 C59.12001953 8.09443359 58.00175781 8.09121094 56.84960938 8.08789062 C55.68236328 8.07951172 54.51511719 8.07113281 53.3125 8.0625 C52.13365234 8.05798828 50.95480469 8.05347656 49.74023438 8.04882812 C46.82677211 8.03703273 43.91341137 8.0205727 41 8 C41.01571045 8.87736816 41.01571045 8.87736816 41.03173828 9.77246094 C41.07340264 12.43159663 41.09935901 15.09066353 41.125 17.75 C41.14175781 18.67039063 41.15851563 19.59078125 41.17578125 20.5390625 C41.18544922 21.87324219 41.18544922 21.87324219 41.1953125 23.234375 C41.21102295 24.45979004 41.21102295 24.45979004 41.22705078 25.70996094 C40.97439781 28.25822419 40.36134735 29.84119819 39 32 C36.01787087 33.49106457 33.28390342 33.11941467 30 33 C29 32 29 32 28.88647461 29.68334961 C28.89171143 28.68311768 28.89694824 27.68288574 28.90234375 26.65234375 C28.90556641 25.57275391 28.90878906 24.49316406 28.91210938 23.38085938 C28.92048828 22.24455078 28.92886719 21.10824219 28.9375 19.9375 C28.94201172 18.79732422 28.94652344 17.65714844 28.95117188 16.48242188 C28.96300253 13.65489649 28.9794859 10.8274736 29 8 C28.32420898 8.01047363 27.64841797 8.02094727 26.95214844 8.03173828 C23.88480358 8.07335976 20.81751822 8.09934573 17.75 8.125 C16.15478516 8.15013672 16.15478516 8.15013672 14.52734375 8.17578125 C12.99013672 8.18544922 12.99013672 8.18544922 11.421875 8.1953125 C10.00793457 8.21102295 10.00793457 8.21102295 8.56542969 8.22705078 C5.8344792 7.98535075 4.28078969 7.50078207 2 6 C0 3 0 3 0 0 Z " fill="#616162" transform="translate(311,221)"/>
<path d="M0 0 C2.64745321 0.28056438 5.29237964 0.57385631 7.9375 0.875 C8.69224609 0.95363281 9.44699219 1.03226563 10.22460938 1.11328125 C12.15919299 1.33883808 14.08176019 1.66258974 16 2 C17.129237 4.258474 17.13211756 5.4972672 17.14526367 8.00317383 C17.15164352 8.82775589 17.15802338 9.65233795 17.16459656 10.50190735 C17.16570938 11.39459824 17.1668222 12.28728912 17.16796875 13.20703125 C17.17129715 14.12457687 17.17462555 15.0421225 17.17805481 15.98747253 C17.18312369 17.9318288 17.18546315 19.87619378 17.18530273 21.82055664 C17.18748349 24.79002328 17.20562375 27.75911504 17.22460938 30.72851562 C17.22754447 32.61718623 17.22952849 34.5058586 17.23046875 36.39453125 C17.23765427 37.28114944 17.24483978 38.16776764 17.25224304 39.08125305 C17.2361447 43.44532759 17.20918321 47.09689921 15 51 C11.78548731 52.60725635 8.56387464 52.05748185 5 52 C5 50.02 5 48.04 5 46 C4.19175781 46.05800781 3.38351562 46.11601562 2.55078125 46.17578125 C-6.07364433 46.53990054 -6.07364433 46.53990054 -8.91015625 44.88671875 C-10.25 43.5 -10.25 43.5 -12 41 C-11.67 40.01 -11.34 39.02 -11 38 C-5.72 38.33 -0.44 38.66 5 39 C4.92599935 34.63906531 4.84318484 30.28018389 4.73754883 25.92016602 C4.70430577 24.43720146 4.67627177 22.95411056 4.65356445 21.47094727 C4.62000532 19.33815707 4.56769362 17.20652388 4.51171875 15.07421875 C4.48553467 13.79119873 4.45935059 12.50817871 4.43237305 11.1862793 C4.26852797 8.04126857 4.26852797 8.04126857 2.59301758 6.12036133 C0.98548514 4.93077071 0.98548514 4.93077071 -1 4 C-0.67 2.68 -0.34 1.36 0 0 Z " fill="#59595A" transform="translate(527,184)"/>
<path d="M0 0 C1.32 0 2.64 0 4 0 C4 3.96 4 7.92 4 12 C5.32 12 6.64 12 8 12 C8 10.68 8 9.36 8 8 C11.47823115 6.84058962 13.45895578 7.29179116 17 8 C17 7.01 17 6.02 17 5 C14.03 5 11.06 5 8 5 C8 3.68 8 2.36 8 1 C9.97909398 0.97313447 11.95828971 0.95366625 13.9375 0.9375 C15.03964844 0.92589844 16.14179688 0.91429687 17.27734375 0.90234375 C20 1 20 1 21 2 C21.14193337 5.00331018 21.04236378 7.99217134 21 11 C18.03 11 15.06 11 12 11 C12 11.99 12 12.98 12 14 C18.435 13.505 18.435 13.505 25 13 C25 8.71 25 4.42 25 0 C26.32 0 27.64 0 29 0 C29 1.32 29 2.64 29 4 C30.32 4 31.64 4 33 4 C32.67 5.32 32.34 6.64 32 8 C31.01 8 30.02 8 29 8 C29 8.99 29 9.98 29 11 C30.32 11 31.64 11 33 11 C32.67 12.32 32.34 13.64 32 15 C31.01 15 30.02 15 29 15 C29 16.65 29 18.3 29 20 C28.01 20.495 28.01 20.495 27 21 C27.66 21.66 28.32 22.32 29 23 C29.3125 25.4375 29.3125 25.4375 29 28 C27.42606194 30.02786377 26.3901136 30.88457313 23.9140625 31.6171875 C19.9849626 32.05971411 17.6694384 32.30682593 14 30.625 C11.02735562 28.20972644 11.02735562 28.20972644 10.625 25.125 C11 22 11 22 13 20.125 C16.91002574 18.65874035 19.83978592 18.78846369 24 19 C24 18.34 24 17.68 24 17 C22.94232422 17.24556641 22.94232422 17.24556641 21.86328125 17.49609375 C18.90341312 18.01699824 16.18938727 18.09866732 13.1875 18.0625 C11.72376953 18.04896484 11.72376953 18.04896484 10.23046875 18.03515625 C9.12638672 18.01775391 9.12638672 18.01775391 8 18 C8 17.01 8 16.02 8 15 C6.68 15 5.36 15 4 15 C4 20.28 4 25.56 4 31 C3.01 31.33 2.02 31.66 1 32 C-0.96822886 30.03177114 -0.66248381 26.65191291 -1 24 C-1.5775 23.896875 -2.155 23.79375 -2.75 23.6875 C-5.32049158 22.90207202 -6.93657284 21.69495803 -9 20 C-9.928125 20.825 -10.85625 21.65 -11.8125 22.5 C-14.625 25 -14.625 25 -18 25 C-17.8125 23.25 -17.8125 23.25 -17 21 C-16.236875 20.401875 -15.47375 19.80375 -14.6875 19.1875 C-11.3187199 16.44546969 -9.99072167 13.83398248 -8 10 C-10.97 10 -13.94 10 -17 10 C-17 8.68 -17 7.36 -17 6 C-12.71 6 -8.42 6 -4 6 C-3 8 -3 8 -3.48046875 9.8046875 C-3.95105514 11.18264764 -4.43021281 12.55771088 -4.91796875 13.9296875 C-4.94503906 14.61289063 -4.97210938 15.29609375 -5 16 C-3.68 17.32 -2.36 18.64 -1 20 C-0.67 13.4 -0.34 6.8 0 0 Z M16 23 C15.01 24.485 15.01 24.485 14 26 C17.45662331 28.30441554 18.94857881 28.25860135 23 28 C23.66 27.67 24.32 27.34 25 27 C25 26.01 25 25.02 25 24 C21.95699684 22.47849842 19.345915 22.76100607 16 23 Z " fill="#ADADAD" transform="translate(476,135)"/>
<path d="M0 0 C1.32 0 2.64 0 4 0 C4 3.96 4 7.92 4 12 C11.68875402 10.64002261 11.68875402 10.64002261 19 8 C16.36 8 13.72 8 11 8 C10.67 6.68 10.34 5.36 10 4 C11.32 4 12.64 4 14 4 C13.67 3.01 13.34 2.02 13 1 C14 0 14 0 16.28515625 -0.09765625 C17.65994141 -0.08025391 17.65994141 -0.08025391 19.0625 -0.0625 C19.98160156 -0.05347656 20.90070313 -0.04445312 21.84765625 -0.03515625 C22.55792969 -0.02355469 23.26820313 -0.01195312 24 0 C24 1.32 24 2.64 24 4 C24.99 4 25.98 4 27 4 C26.835 4.61875 26.67 5.2375 26.5 5.875 C25.92365356 7.96063386 25.92365356 7.96063386 26 10 C27.65 10.66 29.3 11.32 31 12 C30.67 12.99 30.34 13.98 30 15 C30.66 15 31.32 15 32 15 C32 10.38 32 5.76 32 1 C33.32 1 34.64 1 36 1 C36 2.65 36 4.3 36 6 C37.98 6 39.96 6 42 6 C42 4.35 42 2.7 42 1 C43.32 1.33 44.64 1.66 46 2 C46 6.95 46 11.9 46 17 C41.71 17 37.42 17 33 17 C33 17.66 33 18.32 33 19 C29.04 19 25.08 19 21 19 C21 19.66 21 20.32 21 21 C23.64 21 26.28 21 29 21 C29 24.3 29 27.6 29 31 C27.68 31.33 26.36 31.66 25 32 C25 29.69 25 27.38 25 25 C20.05 25 15.1 25 10 25 C10 23.68 10 22.36 10 21 C12.31 21 14.62 21 17 21 C17 20.34 17 19.68 17 19 C13.37 19 9.74 19 6 19 C6 17.68 6 16.36 6 15 C5.34 15 4.68 15 4 15 C4 20.28 4 25.56 4 31 C2.68 31 1.36 31 0 31 C0 20.77 0 10.54 0 0 Z M36 10 C36 10.99 36 11.98 36 13 C37.98 13 39.96 13 42 13 C42 12.01 42 11.02 42 10 C40.02 10 38.04 10 36 10 Z M14 14 C14 14.33 14 14.66 14 15 C17.96 15 21.92 15 26 15 C21.26598324 11.84398882 19.19229714 11.54808191 14 14 Z M8 13 C9 15 9 15 9 15 Z " fill="#C7C7C7" transform="translate(318,135)"/>
<path d="M0 0 C1.34471493 0.28395538 2.67601443 0.63128452 4 1 C6.30384053 1.13673272 8.61077441 1.22440542 10.91796875 1.28125 C11.90474358 1.30886414 11.90474358 1.30886414 12.91145325 1.33703613 C15.71644331 1.41550147 18.52165584 1.48373951 21.3269043 1.55224609 C23.37821833 1.60383064 25.42931773 1.66109858 27.48046875 1.71875 C28.70660889 1.74904297 29.93274902 1.77933594 31.19604492 1.81054688 C34 2 34 2 35 3 C34.76318648 15.55111654 26.64416558 26.47681241 18 35 C11.81639106 40.61922442 5.24392408 45.97790541 -3 48 C-3.66 47.67 -4.32 47.34 -5 47 C-5 44 -5 44 -3.53125 42.4921875 C-2.8609375 41.95851562 -2.190625 41.42484375 -1.5 40.875 C9.1616073 31.78457693 14.86288631 21.42386688 21 9 C19.24623047 9.06960937 19.24623047 9.06960937 17.45703125 9.140625 C15.9088798 9.17815594 14.36070061 9.21455469 12.8125 9.25 C11.65911133 9.30027344 11.65911133 9.30027344 10.48242188 9.3515625 C6.49974616 9.41993462 4.49139681 9.30061923 1.01171875 7.171875 C-1 5 -1 5 -2 2 C-1.34 1.34 -0.68 0.68 0 0 Z " fill="#5C5C5C" transform="translate(561,191)"/>
<path d="M0 0 C13.6332574 -0.3690205 13.6332574 -0.3690205 20 2 C20.59720137 7.82271337 18.528243 11.9209404 16 17 C16.66386719 17.21914062 17.32773437 17.43828125 18.01171875 17.6640625 C23.9778074 19.80662864 27.6468432 21.52317723 31 27 C31.3125 29.875 31.3125 29.875 31 32 C27.55988909 34.12813956 27.55988909 34.12813956 25.10546875 33.56640625 C19.83664838 30.80859192 15.9687405 27.4152238 12 23 C9.17385775 24.29352715 7.07640869 25.69392866 4.8125 27.8125 C0.98007867 31.16586866 -3.19713405 34.21557106 -8 36 C-10.26953125 35.62890625 -10.26953125 35.62890625 -12 35 C-10.68531542 31.97943201 -9.45925222 30.36956856 -6.8125 28.4375 C-1.0384528 23.6560563 3.98189171 16.89006997 4.9375 9.3125 C4.958125 8.219375 4.97875 7.12625 5 6 C4.175 5.566875 3.35 5.13375 2.5 4.6875 C1.2625 3.8521875 1.2625 3.8521875 0 3 C0 2.01 0 1.02 0 0 Z " fill="#5A5A5B" transform="translate(419,188)"/>
<path d="M0 0 C0.69802734 0.09152344 1.39605469 0.18304688 2.11523438 0.27734375 C7.30457326 0.99207326 7.30457326 0.99207326 8.4375 2.125 C8.50994053 4.14464199 8.52127188 6.16667124 8.5 8.1875 C8.49097656 9.29222656 8.48195313 10.39695313 8.47265625 11.53515625 C8.46105469 12.38980469 8.44945312 13.24445313 8.4375 14.125 C9.07558594 14.11339844 9.71367187 14.10179687 10.37109375 14.08984375 C11.19738281 14.08082031 12.02367187 14.07179687 12.875 14.0625 C13.69871094 14.05089844 14.52242188 14.03929687 15.37109375 14.02734375 C17.4375 14.125 17.4375 14.125 18.4375 15.125 C18.5625 18.125 18.5625 18.125 18.4375 21.125 C17.4375 22.125 17.4375 22.125 15.37109375 22.22265625 C14.54738281 22.21105469 13.72367187 22.19945312 12.875 22.1875 C12.04871094 22.17847656 11.22242188 22.16945312 10.37109375 22.16015625 C9.41396484 22.14275391 9.41396484 22.14275391 8.4375 22.125 C8.48970703 23.44564453 8.48970703 23.44564453 8.54296875 24.79296875 C8.57003906 25.95441406 8.59710938 27.11585938 8.625 28.3125 C8.67720703 30.03533203 8.67720703 30.03533203 8.73046875 31.79296875 C8.41073533 35.4294035 7.61908273 37.2355914 5.4375 40.125 C2.70502652 41.49123674 0.45551098 41.253426 -2.5625 41.125 C-3.5625 40.125 -3.5625 40.125 -3.67602539 36.79858398 C-3.67586629 35.32274444 -3.67017314 33.84689931 -3.66015625 32.37109375 C-3.6587413 31.59564713 -3.65732635 30.8202005 -3.65586853 30.02125549 C-3.65025345 27.53496506 -3.63769846 25.0487634 -3.625 22.5625 C-3.61998694 20.88086067 -3.6154237 19.19921994 -3.61132812 17.51757812 C-3.60027913 13.38668434 -3.58300445 9.25585724 -3.5625 5.125 C-5.5425 4.465 -7.5225 3.805 -9.5625 3.125 C-9.5625 2.135 -9.5625 1.145 -9.5625 0.125 C-6.44001516 -1.43624242 -3.34534327 -0.47834992 0 0 Z " fill="#5C5C5C" transform="translate(460.5625,184.875)"/>
<path d="M0 0 C3.01446398 2.60689615 4.81106344 4.99233834 5.5625 9 C4.82754708 12.91974892 3.61483784 14.98287942 1 18 C-5.11477682 21.410164 -11.33453536 22.78289998 -18.1875 21.25 C-22.37213923 20.01922376 -25.60301624 18.30064005 -28.8125 15.3125 C-30.56296461 11.90370049 -30.64893795 8.70189604 -30 5 C-27.87921319 1.18258375 -25.30361471 -0.9436798 -21.1875 -2.49609375 C-13.90957042 -4.17261681 -6.40908235 -3.92392797 0 0 Z M-19 7 C-19.49631357 9.90697947 -19.43323149 11.30201593 -17.875 13.8125 C-15.12844028 15.55198782 -13.18153026 15.39769128 -10 15 C-8 14 -8 14 -7 12 C-6.60230872 8.81846974 -6.44801218 6.87155972 -8.1875 4.125 C-12.75922509 1.28737753 -16.02145343 2.91828803 -19 7 Z " fill="#555556" transform="translate(518,189)"/>
<path d="M0 0 C-0.77710037 4.25966127 -2.98872625 6.97253559 -5.52734375 10.390625 C-8.88719756 16.34389382 -9.3660747 22.68352022 -9.3125 29.375 C-9.30404053 30.48862915 -9.30404053 30.48862915 -9.29541016 31.62475586 C-9.09492232 40.7251172 -7.20212483 47.3216112 -1.20703125 54.30859375 C0 56 0 56 0 59 C-5.86801843 58.4411411 -9.73030178 56.65626483 -13.60546875 52.12109375 C-19.80012571 43.5709376 -21.95022072 34.26541197 -20.75390625 23.859375 C-19.09741326 14.09118956 -13.91235609 7.09116236 -6.1484375 1.1796875 C-4 0 -4 0 0 0 Z " fill="#5D5D5E" transform="translate(310,188)"/>
<path d="M0 0 C4.98044582 0.24294858 7.71692165 1.78093719 11.26171875 5.07421875 C18.69612851 13.31054238 21.41597823 22.11809422 20.875 33.0625 C19.79722785 42.62772784 15.89208788 49.35683629 9 56 C5.99179266 58.36359148 4.98700103 59.10966678 1.1875 58.6875 C0.465625 58.460625 -0.25625 58.23375 -1 58 C-0.60167969 57.50371094 -0.20335937 57.00742188 0.20703125 56.49609375 C8.61884243 45.71014608 9.74644712 35.54663294 9 22 C7.97540746 15.01887793 5.84620846 9.9839669 1.20703125 4.65625 C0 3 0 3 0 0 Z " fill="#5A5A5A" transform="translate(382,188)"/>
<path d="M0 0 C5.77807024 -0.2358396 10.51324804 0.13216954 16 2 C16 5.96 16 9.92 16 14 C32.335 14.495 32.335 14.495 49 15 C49.495 17.475 49.495 17.475 50 20 C46.82954519 21.58522741 43.40556153 21.20529707 39.921875 21.23828125 C39.11768127 21.246353 38.31348755 21.25442474 37.48492432 21.26274109 C35.7801733 21.27658298 34.07539455 21.28730467 32.37060547 21.29516602 C29.77387256 21.3123421 27.17842524 21.35622084 24.58203125 21.40039062 C22.92448852 21.41052105 21.26693497 21.41903606 19.609375 21.42578125 C18.83728699 21.44328934 18.06519897 21.46079742 17.26971436 21.47883606 C12.09033523 21.4581882 9.07279608 20.48721984 5 17 C4.37109375 14.30859375 4.37109375 14.30859375 4.4375 11.4375 C4.39660027 8.57015677 4.39660027 8.57015677 4 6 C1.64452575 3.71204241 1.64452575 3.71204241 -1 3 C-0.67 2.01 -0.34 1.02 0 0 Z " fill="#606061" transform="translate(494,231)"/>
<path d="M0 0 C0.99 0 1.98 0 3 0 C3 2.31 3 4.62 3 7 C4.32 7 5.64 7 7 7 C7.28875 6.38125 7.5775 5.7625 7.875 5.125 C9 3 9 3 11 1 C15.05261287 0.65509678 16.54754176 0.69836118 20 3 C21.65549531 3.38499891 23.3222433 3.72793135 25 4 C25 2.68 25 1.36 25 0 C26.32 0 27.64 0 29 0 C29 10.56 29 21.12 29 32 C27.68 31.67 26.36 31.34 25 31 C25 28.36 25 25.72 25 23 C20.38 23 15.76 23 11 23 C11 21.68 11 20.36 11 19 C15.62 18.67 20.24 18.34 25 18 C25 16.68 25 15.36 25 14 C20.92035719 15.30155006 20.92035719 15.30155006 17 17 C13.25598728 17.4069579 11.63212653 17.49904726 8.625 15.125 C7 13 7 13 7 11 C5.68 11 4.36 11 3 11 C3 13.97 3 16.94 3 20 C2.01 20 1.02 20 0 20 C0 13.4 0 6.8 0 0 Z M12 5 C10.65595225 6.11836224 10.65595225 6.11836224 10.875 9 C10.65595225 11.88163776 10.65595225 11.88163776 12 13 C13.66617115 13.04063832 15.33388095 13.042721 17 13 C17.67801034 10.09926819 17.67801034 10.09926819 18 7 C17.34 6.34 16.68 5.68 16 5 C14.68 5 13.36 5 12 5 Z M21 7 C21.33 7.99 21.66 8.98 22 10 C22.99 10 23.98 10 25 10 C25 9.01 25 8.02 25 7 C23.68 7 22.36 7 21 7 Z " fill="#767676" transform="translate(368,135)"/>
<path d="M0 0 C0.99 0 1.98 0 3 0 C3 10.23 3 20.46 3 31 C-2.94 31 -8.88 31 -15 31 C-15 26.38 -15 21.76 -15 17 C-13.68 17 -12.36 17 -11 17 C-11 18.32 -11 19.64 -11 21 C-7.7 20.67 -4.4 20.34 -1 20 C-1 16.7 -1 13.4 -1 10 C-4.19340107 10.72830965 -4.19340107 10.72830965 -5.75 13.5625 C-8 16 -8 16 -11.5 16.5625 C-15 16 -15 16 -17.4375 14.4375 C-19.60396028 11.05782196 -19.56288002 8.94016013 -19 5 C-17.375 2.5625 -17.375 2.5625 -15 1 C-11.49010104 0.48813973 -9.70545237 0.59158021 -6.625 2.375 C-6.08875 2.91125 -5.5525 3.4475 -5 4 C-5 4.66 -5 5.32 -5 6 C-3.68 6 -2.36 6 -1 6 C-1.020625 5.195625 -1.04125 4.39125 -1.0625 3.5625 C-1 1 -1 1 0 0 Z M-15 6 C-15.2500773 8.45809998 -15.2500773 8.45809998 -15 11 C-14.34 11.66 -13.68 12.32 -13 13 C-10.89179203 12.6814823 -10.89179203 12.6814823 -9 12 C-8.06576355 8.98968256 -7.95550089 8.13349732 -9 5 C-12.28930404 4.63314303 -12.28930404 4.63314303 -15 6 Z M-11 25 C-11 25.66 -11 26.32 -11 27 C-7.37 27 -3.74 27 0 27 C-0.33 26.34 -0.66 25.68 -1 25 C-4.3 25 -7.6 25 -11 25 Z " fill="#878787" transform="translate(656,135)"/>
<path d="M0 0 C16.5 0 33 0 50 0 C50 1.32 50 2.64 50 4 C42.93924474 7.32270836 36.7276932 7.31806054 29 7 C29.061875 8.258125 29.12375 9.51625 29.1875 10.8125 C29.16934383 13.37705844 29.1515987 14.71463773 27.9375 17 C24.94716052 18.54340102 22.29609795 18.2441554 19 18 C18 17 18 17 17.90234375 14.71484375 C17.91394531 13.79832031 17.92554688 12.88179687 17.9375 11.9375 C17.94652344 11.01839844 17.95554687 10.09929687 17.96484375 9.15234375 C17.97644531 8.44207031 17.98804688 7.73179687 18 7 C17.03578125 7.04640625 16.0715625 7.0928125 15.078125 7.140625 C13.81484375 7.17671875 12.5515625 7.2128125 11.25 7.25 C9.37054688 7.31960937 9.37054688 7.31960937 7.453125 7.390625 C4 7 4 7 1.546875 5.171875 C0 3 0 3 0 0 Z " fill="#4C4C4D" transform="translate(481,212)"/>
<path d="M0 0 C5.94 0 11.88 0 18 0 C18 1.32 18 2.64 18 4 C13.38 4 8.76 4 4 4 C4 4.99 4 5.98 4 7 C8.95 7.33 13.9 7.66 19 8 C18.67 9.32 18.34 10.64 18 12 C15.69 12 13.38 12 11 12 C11 12.66 11 13.32 11 14 C14.63 14 18.26 14 22 14 C22 15.32 22 16.64 22 18 C17.62512669 18.08738991 13.25047922 18.140524 8.875 18.1875 C7.6375 18.21263672 6.4 18.23777344 5.125 18.26367188 C3.92617188 18.27333984 2.72734375 18.28300781 1.4921875 18.29296875 C0.39245605 18.3086792 -0.70727539 18.32438965 -1.84033203 18.34057617 C-7.63780156 17.71567508 -11.65615872 14.70504109 -16 11 C-16.721875 11.804375 -17.44375 12.60875 -18.1875 13.4375 C-21.02515689 16.02292072 -22.27166147 16.68042813 -26 17 C-26.33 16.01 -26.66 15.02 -27 14 C-25.576875 13.1028125 -25.576875 13.1028125 -24.125 12.1875 C-20.48414098 9.63889869 -19.23117653 8.17900028 -18.375 3.8125 C-18.25125 2.884375 -18.1275 1.95625 -18 1 C-16.35 1 -14.7 1 -13 1 C-12.95875 2.051875 -12.9175 3.10375 -12.875 4.1875 C-12.01585377 7.93092288 -11.2531343 9.74579812 -8.1640625 12.06640625 C-3.43109315 14.10824682 1.91406774 13.91699517 7 14 C7 13.34 7 12.68 7 12 C4.69 12 2.38 12 0 12 C0 8.04 0 4.08 0 0 Z " fill="#ABABAC" transform="translate(536,136)"/>
<path d="M0 0 C1.32 0 2.64 0 4 0 C4 1.32 4 2.64 4 4 C5.32 4 6.64 4 8 4 C7.67 5.32 7.34 6.64 7 8 C6.01 8 5.02 8 4 8 C4 8.99 4 9.98 4 11 C5.32 11 6.64 11 8 11 C7.67 12.32 7.34 13.64 7 15 C6.01 15 5.02 15 4 15 C4 16.65 4 18.3 4 20 C3.34 20.33 2.68 20.66 2 21 C2.66 21.66 3.32 22.32 4 23 C4.3125 25.4375 4.3125 25.4375 4 28 C2.42606194 30.02786377 1.3901136 30.88457313 -1.0859375 31.6171875 C-5.0150374 32.05971411 -7.3305616 32.30682593 -11 30.625 C-13.97264438 28.20972644 -13.97264438 28.20972644 -14.375 25.125 C-14 22 -14 22 -12 20.125 C-8.08997426 18.65874035 -5.16021408 18.78846369 -1 19 C-1 18.34 -1 17.68 -1 17 C-5.95 17 -10.9 17 -16 17 C-16 14.36 -16 11.72 -16 9 C-13.03 9 -10.06 9 -7 9 C-7 7.35 -7 5.7 -7 4 C-9.97 4 -12.94 4 -16 4 C-16 3.67 -16 3.34 -16 3 C-12.37 3 -8.74 3 -5 3 C-5 5.31 -5 7.62 -5 10 C-7.97 10 -10.94 10 -14 10 C-14 11.65 -14 13.3 -14 15 C-12.60386935 14.85704109 -11.20810692 14.71048442 -9.8125 14.5625 C-9.03519531 14.48128906 -8.25789063 14.40007812 -7.45703125 14.31640625 C-4.95359214 13.99402379 -2.47509476 13.49501895 0 13 C0 8.71 0 4.42 0 0 Z M-9 23 C-9.99 24.485 -9.99 24.485 -11 26 C-7.54337669 28.30441554 -6.05142119 28.25860135 -2 28 C-1.34 27.67 -0.68 27.34 0 27 C0 26.01 0 25.02 0 24 C-3.04300316 22.47849842 -5.654085 22.76100607 -9 23 Z " fill="#A6A6A6" transform="translate(501,135)"/>
<path d="M0 0 C1.32 0 2.64 0 4 0 C4 3.96 4 7.92 4 12 C11.68875402 10.64002261 11.68875402 10.64002261 19 8 C16.36 8 13.72 8 11 8 C10.67 6.68 10.34 5.36 10 4 C11.32 4 12.64 4 14 4 C13.67 3.01 13.34 2.02 13 1 C14 0 14 0 16.28515625 -0.09765625 C17.65994141 -0.08025391 17.65994141 -0.08025391 19.0625 -0.0625 C19.98160156 -0.05347656 20.90070313 -0.04445312 21.84765625 -0.03515625 C22.55792969 -0.02355469 23.26820313 -0.01195312 24 0 C24 1.32 24 2.64 24 4 C24.99 4 25.98 4 27 4 C26.7525 4.86625 26.7525 4.86625 26.5 5.75 C25.85537969 8.26664369 25.85537969 8.26664369 26 12 C26.99 12 27.98 12 29 12 C29 12.66 29 13.32 29 14 C28.30132812 13.91621094 27.60265625 13.83242187 26.8828125 13.74609375 C25.51769531 13.59333984 25.51769531 13.59333984 24.125 13.4375 C23.22007812 13.33308594 22.31515625 13.22867188 21.3828125 13.12109375 C18.98346943 12.80325148 18.98346943 12.80325148 17 14 C15.05587795 14 13.11116046 13.99763746 11.16796875 13.9375 C8.50497493 13.9535979 8.50497493 13.9535979 4 15 C4 20.28 4 25.56 4 31 C2.68 31 1.36 31 0 31 C0 20.77 0 10.54 0 0 Z " fill="#9E9E9E" transform="translate(318,135)"/>
<path d="M0 0 C2.24298598 2.24298598 2.58421156 2.92316555 3 6 C2.9375 9.5625 2.9375 9.5625 2 13 C-1.0625 14.9375 -1.0625 14.9375 -4 16 C-4 16.99 -4 17.98 -4 19 C-2.35 18.67 -0.7 18.34 1 18 C-2.91158194 21.20749719 -7.34037834 23.22582979 -11.8671875 25.39453125 C-14.50198632 26.67800621 -16.89644687 27.91829585 -19.203125 29.73828125 C-21 31 -21 31 -24.75 30.6875 C-25.8225 30.460625 -26.895 30.23375 -28 30 C-26.7308453 26.1925359 -25.42849251 25.81326707 -22 23.875 C-18.81043387 22.19447491 -18.81043387 22.19447491 -16 20 C-15.92728259 17.64686445 -15.91629132 15.29166332 -15.9375 12.9375 C-15.94652344 11.64714844 -15.95554688 10.35679687 -15.96484375 9.02734375 C-15.97644531 8.02832031 -15.98804688 7.02929688 -16 6 C-12.65291351 7.5545046 -10.60548168 9.39451832 -8 12 C-7.34 12 -6.68 12 -6 12 C-7.26974972 7.58477891 -7.26974972 7.58477891 -10 4 C-8.35 3.34 -6.7 2.68 -5 2 C-3.68 3.32 -2.36 4.64 -1 6 C-0.67 4.02 -0.34 2.04 0 0 Z M-4 9 C-3.67 9.99 -3.34 10.98 -3 12 C-2.34 11.67 -1.68 11.34 -1 11 C-1.99 10.34 -2.98 9.68 -4 9 Z M-12 14 C-12.66 14.66 -13.32 15.32 -14 16 C-13.34 16 -12.68 16 -12 16 C-12 16.66 -12 17.32 -12 18 C-11.34 17.67 -10.68 17.34 -10 17 C-10.66 16.01 -11.32 15.02 -12 14 Z " fill="#759DC6" transform="translate(181,146)"/>
<path d="M0 0 C0.99 0.33 1.98 0.66 3 1 C3 10.9 3 20.8 3 31 C1.68 31 0.36 31 -1 31 C-1.0825 29.88625 -1.165 28.7725 -1.25 27.625 C-1.56822859 23.96407698 -1.56822859 23.96407698 -3.9375 22.6875 C-4.9584375 22.3471875 -4.9584375 22.3471875 -6 22 C-6.66 21.34 -7.32 20.68 -8 20 C-9.32 21.65 -10.64 23.3 -12 25 C-13.32 24.67 -14.64 24.34 -16 24 C-14.89824464 21.52105044 -13.733707 19.6754554 -12 17.5625 C-10.06299991 15.08071863 -9.01429561 12.95836218 -8 10 C-10.31 10 -12.62 10 -15 10 C-15 8.68 -15 7.36 -15 6 C-11.37 6 -7.74 6 -4 6 C-3 10 -3 10 -4 13 C-3.01 13 -2.02 13 -1 13 C-1.01160156 12.14535156 -1.02320313 11.29070312 -1.03515625 10.41015625 C-1.04417969 9.30542969 -1.05320312 8.20070312 -1.0625 7.0625 C-1.07410156 5.96035156 -1.08570313 4.85820312 -1.09765625 3.72265625 C-1 1 -1 1 0 0 Z M-5 13 C-4.73343428 15.93443402 -4.73343428 15.93443402 -4 19 C-2.515 19.99 -2.515 19.99 -1 21 C-1 19.35 -1 17.7 -1 16 C-1.99 16 -2.98 16 -4 16 C-4.33 15.01 -4.66 14.02 -5 13 Z " fill="#A4A4A4" transform="translate(676,135)"/>
<path d="M0 0 C0.495 2.475 0.495 2.475 1 5 C-10.06560154 13.03320112 -21.55054287 20.43253195 -33.75 26.625 C-34.41725098 26.96781006 -35.08450195 27.31062012 -35.77197266 27.66381836 C-39.17873916 29.34531285 -41.11897956 30 -45 30 C-45 29.34 -45 28.68 -45 28 C-45.90492188 28.34224609 -45.90492188 28.34224609 -46.828125 28.69140625 C-47.62734375 28.97886719 -48.4265625 29.26632813 -49.25 29.5625 C-50.03890625 29.85253906 -50.8278125 30.14257812 -51.640625 30.44140625 C-54.19103452 31.04522837 -55.55322229 30.8473932 -58 30 C-57.030625 29.6596875 -56.06125 29.319375 -55.0625 28.96875 C-36.82083692 22.42794209 -19.66866027 13.72641404 -4.3984375 1.72265625 C-2 0 -2 0 0 0 Z " fill="#5589BF" transform="translate(229,224)"/>
<path d="M0 0 C2.25 1.1875 2.25 1.1875 3.25 2.1875 C3.32179964 3.70678038 3.33392007 5.22917482 3.3125 6.75 C3.30347656 7.57628906 3.29445312 8.40257812 3.28515625 9.25390625 C3.27355469 9.89199219 3.26195312 10.53007812 3.25 11.1875 C-0.1834517 12.22230605 -3.62229026 13.23790959 -7.0625 14.25 C-8.52719727 14.69182617 -8.52719727 14.69182617 -10.02148438 15.14257812 C-10.95927734 15.41650391 -11.89707031 15.69042969 -12.86328125 15.97265625 C-13.72735596 16.22926025 -14.59143066 16.48586426 -15.48168945 16.75024414 C-17.75 17.1875 -17.75 17.1875 -20.75 16.1875 C-20.75 15.1975 -20.75 14.2075 -20.75 13.1875 C-23.18750025 10.49982422 -23.18750025 10.49982422 -25.75 8.1875 C-26.74 8.6825 -26.74 8.6825 -27.75 9.1875 C-28.41 8.5275 -29.07 7.8675 -29.75 7.1875 C-23.01812223 4.48216594 -17.00398658 2.66317125 -9.75 2.1875 C-9.75 5.4875 -9.75 8.7875 -9.75 12.1875 C-8.76 11.8575 -7.77 11.5275 -6.75 11.1875 C-7.41 10.1975 -8.07 9.2075 -8.75 8.1875 C-8.375 4.5 -8.375 4.5 -7.75 1.1875 C-4.69204879 -0.38516062 -3.36664721 -0.99469122 0 0 Z M-4.75 2.1875 C-4.95970559 6.32843698 -4.95970559 6.32843698 -3.75 10.1875 C-2.43 9.8575 -1.11 9.5275 0.25 9.1875 C-0.08 7.2075 -0.41 5.2275 -0.75 3.1875 C-2.07 2.8575 -3.39 2.5275 -4.75 2.1875 Z M-14.75 4.1875 C-13.76 5.6725 -13.76 5.6725 -12.75 7.1875 C-12.75 6.1975 -12.75 5.2075 -12.75 4.1875 C-13.41 4.1875 -14.07 4.1875 -14.75 4.1875 Z M-20.75 6.1875 C-19.76 7.5075 -18.77 8.8275 -17.75 10.1875 C-17.75 8.8675 -17.75 7.5475 -17.75 6.1875 C-18.74 6.1875 -19.73 6.1875 -20.75 6.1875 Z M-16.75 9.1875 C-16.75 11.1675 -16.75 13.1475 -16.75 15.1875 C-15.43 14.5275 -14.11 13.8675 -12.75 13.1875 C-14.07 11.8675 -15.39 10.5475 -16.75 9.1875 Z " fill="#7A7E81" transform="translate(211.75,137.8125)"/>
<path d="M0 0 C3.01652335 4.52478502 2.54005628 8.69514334 2 14 C0.06426617 22.25294904 -4.18981313 29.11395522 -9 36 C-9.52464844 36.76441406 -10.04929688 37.52882812 -10.58984375 38.31640625 C-11.28787109 39.14978516 -11.28787109 39.14978516 -12 40 C-12.66 40 -13.32 40 -14 40 C-12.4770461 32.9463188 -10.4789138 26.14487219 -8 19.375 C-7.7510498 18.67632812 -7.50209961 17.97765625 -7.24560547 17.2578125 C-5.89675469 13.66794375 -5.27626699 12.18417799 -2 10 C-5.96 9.67 -9.92 9.34 -14 9 C-14 8.67 -14 8.34 -14 8 C-9.05 8 -4.1 8 1 8 C0.67 5.36 0.34 2.72 0 0 Z " fill="#2A6DB0" transform="translate(254,168)"/>
<path d="M0 0 C5.94 0 11.88 0 18 0 C18 4.62 18 9.24 18 14 C12.06 14 6.12 14 0 14 C0 9.38 0 4.76 0 0 Z M3 4 C3 5.98 3 7.96 3 10 C6.63 10 10.26 10 14 10 C14 8.02 14 6.04 14 4 C10.37 4 6.74 4 3 4 Z " fill="#7B7B7B" transform="translate(408,136)"/>
<path d="M0 0 C5.94 0 11.88 0 18 0 C18 3.96 18 7.92 18 12 C12.06 12 6.12 12 0 12 C0 8.04 0 4.08 0 0 Z M4 4 C4 5.32 4 6.64 4 8 C7.3 8 10.6 8 14 8 C14 6.68 14 5.36 14 4 C10.7 4 7.4 4 4 4 Z " fill="#7B7B7B" transform="translate(615,136)"/>
<path d="M0 0 C1.32 0 2.64 0 4 0 C4 10.56 4 21.12 4 32 C2.68 31.67 1.36 31.34 0 31 C0 28.36 0 25.72 0 23 C-4.62 23 -9.24 23 -14 23 C-14 21.68 -14 20.36 -14 19 C-5.585 18.505 -5.585 18.505 3 18 C2.67 15.69 2.34 13.38 2 11 C0.02 11 -1.96 11 -4 11 C-3.67 10.01 -3.34 9.02 -3 8 C-3 8.66 -3 9.32 -3 10 C-2.01 10 -1.02 10 0 10 C0 9.01 0 8.02 0 7 C-0.598125 6.87625 -1.19625 6.7525 -1.8125 6.625 C-4 6 -4 6 -7 4 C-6.67 3.34 -6.34 2.68 -6 2 C-4.02 2.66 -2.04 3.32 0 4 C0 2.68 0 1.36 0 0 Z " fill="#AEAEAF" transform="translate(393,135)"/>
<path d="M0 0 C3.29148243 1.13499394 3.9959869 1.99283376 5.75 5.125 C6.1625 6.07375 6.575 7.0225 7 8 C10.63 7.67 14.26 7.34 18 7 C18 7.99 18 8.98 18 10 C19.32 10.33 20.64 10.66 22 11 C2.46808511 17.57446809 2.46808511 17.57446809 -6 20 C-6.33 19.34 -6.66 18.68 -7 18 C-4.51047079 15.33264727 -2.36591866 13.44253657 1 12 C1.08159574 7.83861737 0.98248524 4.0527516 0 0 Z " fill="#3272B2" transform="translate(182,146)"/>
<path d="M0 0 C5.04989223 0.57562983 10.16246382 0.36221657 15.23779297 0.32470703 C16.39859375 0.32019531 17.55939453 0.31568359 18.75537109 0.31103516 C21.60373231 0.29931351 24.45198519 0.28290463 27.30029297 0.26220703 C26.97029297 1.25220703 26.64029297 2.24220703 26.30029297 3.26220703 C20.12602532 6.27885835 14.84278343 6.6734531 8.05029297 6.51220703 C7.16599609 6.50705078 6.28169922 6.50189453 5.37060547 6.49658203 C1.50151575 6.44982566 -1.95935291 6.32208023 -5.69970703 5.26220703 C-5.69970703 4.60220703 -5.69970703 3.94220703 -5.69970703 3.26220703 C-6.35970703 3.26220703 -7.01970703 3.26220703 -7.69970703 3.26220703 C-7.36970703 2.27220703 -7.03970703 1.28220703 -6.69970703 0.26220703 C-4.18119392 -0.99704953 -2.69695815 -0.43562482 0 0 Z " fill="#2C6DB0" transform="translate(133.69970703125,257.73779296875)"/>
<path d="M0 0 C8.25 0 16.5 0 25 0 C25 0.66 25 1.32 25 2 C21.37 2 17.74 2 14 2 C14 2.99 14 3.98 14 5 C16.64 5 19.28 5 22 5 C22 8.3 22 11.6 22 15 C20.68 15.33 19.36 15.66 18 16 C18 13.69 18 11.38 18 9 C13.05 9 8.1 9 3 9 C3 8.01 3 7.02 3 6 C5.64 6 8.28 6 11 6 C11 4.68 11 3.36 11 2 C7.37 2 3.74 2 0 2 C0 1.34 0 0.68 0 0 Z " fill="#7D7D7D" transform="translate(325,151)"/>
<path d="M0 0 C4.62 0 9.24 0 14 0 C13.38468164 3.69191016 12.75366311 7.3393506 12 11 C14.475 11.99 14.475 11.99 17 13 C16.67 14.32 16.34 15.64 16 17 C13.0280615 15.87548273 10.66559313 14.77706209 8 13 C7.2575 13.66 6.515 14.32 5.75 15 C3 17 3 17 -1 17 C-0.875 15.25 -0.875 15.25 0 13 C1.98689731 11.64721885 3.98745218 10.31431695 6 9 C7.38868516 6.89960669 7.38868516 6.89960669 8 5 C5.36 4.67 2.72 4.34 0 4 C0 2.68 0 1.36 0 0 Z " fill="#A7A7A8" transform="translate(588,137)"/>
<path d="M0 0 C2.125 1.8125 2.125 1.8125 3.1875 4.25 C3.125 6.8125 3.125 6.8125 1.6875 9.0625 C-1.69230603 11.37066022 -4.84585006 12.0367713 -8.875 11.8125 C-13.875 9.8125 -13.875 9.8125 -15.875 7.8125 C-16.17633118 4.94985383 -16.32142032 3.4077271 -14.5625 1.0625 C-10.18523117 -2.17992135 -4.86806215 -2.01072132 0 0 Z M-11.875 3.8125 C-11.545 4.8025 -11.215 5.7925 -10.875 6.8125 C-5.59300407 8.01238045 -5.59300407 8.01238045 -0.875 5.8125 C-0.875 5.1525 -0.875 4.4925 -0.875 3.8125 C-4.273985 2.1130075 -8.476015 2.1130075 -11.875 3.8125 Z " fill="#9A9A9A" transform="translate(368.875,155.1875)"/>
<path d="M0 0 C4.29 0 8.58 0 13 0 C14.27919615 2.55839231 13.74593056 3.22216554 12.875 5.875 C12.24136597 7.98401683 12.24136597 7.98401683 12 10 C13.33153266 12.30504044 13.33153266 12.30504044 15 14 C14.67 14.99 14.34 15.98 14 17 C12.02 16.01 10.04 15.02 8 14 C6.6078125 15.2375 6.6078125 15.2375 5.1875 16.5 C2.375 19 2.375 19 -1 19 C-0.8125 17.25 -0.8125 17.25 0 15 C0.763125 14.401875 1.52625 13.80375 2.3125 13.1875 C5.6812801 10.44546969 7.00927833 7.83398248 9 4 C6.03 4 3.06 4 0 4 C0 2.68 0 1.36 0 0 Z " fill="#767676" transform="translate(459,141)"/>
<path d="M0 0 C8.25 0 16.5 0 25 0 C25 1.32 25 2.64 25 4 C21.7 4 18.4 4 15 4 C15 7.3 15 10.6 15 14 C13.68 14 12.36 14 11 14 C11 10.7 11 7.4 11 4 C7.04 4 3.08 4 -1 4 C-0.67 2.68 -0.34 1.36 0 0 Z " fill="#828283" transform="translate(404,152)"/>
<path d="M0 0 C3.5 0.5625 3.5 0.5625 5.9375 2.0625 C7.83148168 5.09287069 8.14334247 7.12080934 7.9453125 10.65234375 C7.5 12.5625 7.5 12.5625 5.4375 15.125 C1.58838451 17.00860971 -0.42420151 16.770144 -4.5 15.5625 C-7.062964 13.33024103 -7.43752331 11.98198631 -7.9375 8.625 C-7.17956786 3.31947499 -5.36443163 0.8621408 0 0 Z M-1.5 3.5625 C-3.83391203 6.34364056 -3.83391203 6.34364056 -3.125 9.25 C-2.91875 10.013125 -2.7125 10.77625 -2.5 11.5625 C-0.84385343 11.94468767 0.82457024 12.27645102 2.5 12.5625 C3.83187793 11.45083136 3.83187793 11.45083136 3.6875 8.625 C3.83278733 5.45357141 3.83278733 5.45357141 1.5 3.5625 C0.51 3.5625 -0.48 3.5625 -1.5 3.5625 Z " fill="#79797A" transform="translate(436.5,136.4375)"/>
<path d="M0 0 C1.32 0 2.64 0 4 0 C4 3.63 4 7.26 4 11 C5.19882813 10.94779297 5.19882813 10.94779297 6.421875 10.89453125 C14.43343171 10.6970633 21.33698574 11.68038487 29 14 C29 14.33 29 14.66 29 15 C27.96875 14.84660156 26.9375 14.69320312 25.875 14.53515625 C19.60867614 13.75186577 13.30640311 13.64061013 7 13.4375 C5.74832031 13.39431641 4.49664062 13.35113281 3.20703125 13.30664062 C0.13812931 13.20122033 -2.93092225 13.10017129 -6 13 C-6.33 9.04 -6.66 5.08 -7 1 C-2.52148447 1.89570311 -1.22824944 2.25000973 2 5 C1.34 3.35 0.68 1.7 0 0 Z M-3 7 C-2.67 8.65 -2.34 10.3 -2 12 C-0.68 11.67 0.64 11.34 2 11 C0.35 9.68 -1.3 8.36 -3 7 Z " fill="#6495C4" transform="translate(222,135)"/>
<path d="M0 0 C0.99 0.33 1.98 0.66 3 1 C3 3.31 3 5.62 3 8 C6.63 8 10.26 8 14 8 C14 9.32 14 10.64 14 12 C5.42 12 -3.16 12 -12 12 C-11.67 10.68 -11.34 9.36 -11 8 C-7.7 8 -4.4 8 -1 8 C-1.020625 6.865625 -1.04125 5.73125 -1.0625 4.5625 C-1 1 -1 1 0 0 Z " fill="#858586" transform="translate(519,150)"/>
<path d="M0 0 C4.62 0 9.24 0 14 0 C13.42727589 8.0181375 11.48744833 14.02417521 5.4375 19.5625 C3.68359375 21.06640625 3.68359375 21.06640625 2 22 C1.01 21.67 0.02 21.34 -1 21 C-1 20.01 -1 19.02 -1 18 C0.390625 16.7109375 0.390625 16.7109375 2.25 15.375 C6.60014861 11.88076298 8.04426079 8.16315152 10 3 C6.7 3 3.4 3 0 3 C0 2.01 0 1.02 0 0 Z " fill="#686868" transform="translate(301,138)"/>
<path d="M0 0 C4.62 0 9.24 0 14 0 C13.63813351 7.71981851 11.99497925 13.13631115 6.3359375 18.609375 C4.9335531 19.79242914 3.47189555 20.90463587 2 22 C1.01 21.34 0.02 20.68 -1 20 C-1 19.34 -1 18.68 -1 18 C-0.2575 17.5875 0.485 17.175 1.25 16.75 C6.38489834 13.48233742 8.37146118 8.69988586 10 3 C6.7 3 3.4 3 0 3 C0 2.01 0 1.02 0 0 Z " fill="#8A8B8B" transform="translate(558,138)"/>
<path d="M0 0 C5.28 0 10.56 0 16 0 C16 0.66 16 1.32 16 2 C11.38 2 6.76 2 2 2 C2 3.65 2 5.3 2 7 C7.28 7 12.56 7 18 7 C18 7.99 18 8.98 18 10 C15.03 10 12.06 10 9 10 C9 11.32 9 12.64 9 14 C12.63 14 16.26 14 20 14 C20 14.33 20 14.66 20 15 C12.08 15 4.16 15 -4 15 C-4 14.67 -4 14.34 -4 14 C-0.37 14 3.26 14 7 14 C7 12.68 7 11.36 7 10 C4.69 10 2.38 10 0 10 C0 6.7 0 3.4 0 0 Z " fill="#5F5F60" transform="translate(537,137)"/>
<path d="M0 0 C1.32 0 2.64 0 4 0 C4 10.23 4 20.46 4 31 C2.68 31 1.36 31 0 31 C0 20.77 0 10.54 0 0 Z " fill="#858586" transform="translate(576,135)"/>
<path d="M0 0 C0.99 0 1.98 0 3 0 C3 10.23 3 20.46 3 31 C2.34 31.33 1.68 31.66 1 32 C0.34 31.67 -0.32 31.34 -1 31 C-1.02465622 26.74585377 -1.04283899 22.49174502 -1.05493164 18.23754883 C-1.05997101 16.78929927 -1.06680253 15.34105483 -1.07543945 13.89282227 C-1.08752247 11.81525412 -1.09323211 9.73775303 -1.09765625 7.66015625 C-1.10289307 6.40855713 -1.10812988 5.15695801 -1.11352539 3.86743164 C-1 1 -1 1 0 0 Z " fill="#858586" transform="translate(681,135)"/>
<path d="M0 0 C8.58 0 17.16 0 26 0 C26 1.32 26 2.64 26 4 C22.37 4 18.74 4 15 4 C15 5.98 15 7.96 15 10 C14.01 10 13.02 10 12 10 C12 8.02 12 6.04 12 4 C8.04 4 4.08 4 0 4 C0 2.68 0 1.36 0 0 Z " fill="#7B7B7B" transform="translate(611,150)"/>
<path d="M0 0 C0.66 0 1.32 0 2 0 C2 1.32 2 2.64 2 4 C3.95901454 3.88617347 5.9172338 3.75858875 7.875 3.625 C9.51082031 3.52058594 9.51082031 3.52058594 11.1796875 3.4140625 C14.13046474 3.26746509 14.13046474 3.26746509 16 1 C16 4.63 16 8.26 16 12 C10.72 12 5.44 12 0 12 C0 8.04 0 4.08 0 0 Z M3 7 C3 7.66 3 8.32 3 9 C6.63 9 10.26 9 14 9 C13.67 8.34 13.34 7.68 13 7 C9.7 7 6.4 7 3 7 Z " fill="#626262" transform="translate(642,153)"/>
<path d="M0 0 C1.65 0 3.3 0 5 0 C5.04125 1.051875 5.0825 2.10375 5.125 3.1875 C6.2775357 8.20926268 8.01217509 8.94549581 12 12 C12 12.99 12 13.98 12 15 C7.59885603 14.49701212 5.28804981 12.91227269 2 10 C1.278125 10.804375 0.55625 11.60875 -0.1875 12.4375 C-3.02515689 15.02292072 -4.27166147 15.68042813 -8 16 C-8.33 15.01 -8.66 14.02 -9 13 C-7.576875 12.1028125 -7.576875 12.1028125 -6.125 11.1875 C-2.48414098 8.63889869 -1.23117653 7.17900028 -0.375 2.8125 C-0.25125 1.884375 -0.1275 0.95625 0 0 Z " fill="#868687" transform="translate(518,137)"/>
<path d="M0 0 C1.32 0 2.64 0 4 0 C4 7.59 4 15.18 4 23 C2.68 23.33 1.36 23.66 0 24 C0 20.04 0 16.08 0 12 C-1.65 11.67 -3.3 11.34 -5 11 C-5 10.01 -5 9.02 -5 8 C-3.35 8 -1.7 8 0 8 C0 5.36 0 2.72 0 0 Z " fill="#868687" transform="translate(606,135)"/>
<path d="M0 0 C0.66 0 1.32 0 2 0 C2 1.65 2 3.3 2 5 C4.64 5 7.28 5 10 5 C10 3.35 10 1.7 10 0 C10.66 0 11.32 0 12 0 C12 4.62 12 9.24 12 14 C8.04 14 4.08 14 0 14 C0 9.38 0 4.76 0 0 Z M3 8 C3 8.99 3 9.98 3 11 C4.98 11 6.96 11 9 11 C9 10.01 9 9.02 9 8 C7.02 8 5.04 8 3 8 Z " fill="#707070" transform="translate(351,137)"/>
<path d="M0 0 C5.94 0 11.88 0 18 0 C18 3.96 18 7.92 18 12 C16.68 11.67 15.36 11.34 14 11 C14 8.69 14 6.38 14 4 C9.05 4 4.1 4 -1 4 C-0.67 2.68 -0.34 1.36 0 0 Z " fill="#888889" transform="translate(536,155)"/>
<path d="M0 0 C-0.31592494 3.10132978 -0.54964174 4.58779192 -2.890625 6.73046875 C-3.66921875 7.21128906 -4.4478125 7.69210938 -5.25 8.1875 C-6.01828125 8.67605469 -6.7865625 9.16460937 -7.578125 9.66796875 C-12.11601811 12.16380996 -14.89382432 13.45890734 -20 12 C-18.57243026 7.71729078 -15.39912709 6.48947866 -11.6875 4.3125 C-10.67139648 3.68891602 -10.67139648 3.68891602 -9.63476562 3.05273438 C-8.64573242 2.46395508 -8.64573242 2.46395508 -7.63671875 1.86328125 C-7.03561279 1.50532471 -6.43450684 1.14736816 -5.81518555 0.77856445 C-4 0 -4 0 0 0 Z " fill="#3272B3" transform="translate(173,164)"/>
<path d="M0 0 C1.32 0 2.64 0 4 0 C4 1.98 4 3.96 4 6 C8.95 6 13.9 6 19 6 C19 7.32 19 8.64 19 10 C12.73 10 6.46 10 0 10 C0 6.7 0 3.4 0 0 Z " fill="#BCBCBC" transform="translate(615,156)"/>
<path d="M0 0 C1.98 0.495 1.98 0.495 4 1 C4 2.98 4 4.96 4 7 C8.62 7 13.24 7 18 7 C18 8.32 18 9.64 18 11 C12.06 11 6.12 11 0 11 C-1.04973814 6.80104745 -0.72795155 4.20594226 0 0 Z " fill="#828282" transform="translate(434,155)"/>
<path d="M0 0 C1.32 0 2.64 0 4 0 C4 1.98 4 3.96 4 6 C8.62 6 13.24 6 18 6 C18 7.32 18 8.64 18 10 C12.06 10 6.12 10 0 10 C0 6.7 0 3.4 0 0 Z " fill="#818181" transform="translate(592,156)"/>
<path d="M0 0 C0.6875 1.76171875 0.6875 1.76171875 1 4 C-0.1875 5.89453125 -0.1875 5.89453125 -2 7.8125 C-2.64324219 8.49957031 -3.28648437 9.18664062 -3.94921875 9.89453125 C-4.96435547 10.93673828 -4.96435547 10.93673828 -6 12 C-6.64582031 12.68449219 -7.29164063 13.36898437 -7.95703125 14.07421875 C-11.40732882 17.65526444 -11.40732882 17.65526444 -13 19 C-13.66 19 -14.32 19 -15 19 C-14.1464071 13.02484972 -11.53281812 8.94793837 -7 5 C-6.34 5 -5.68 5 -5 5 C-3.29319053 3.37446717 -1.62339805 1.70884005 0 0 Z " fill="#3775B5" transform="translate(250,204)"/>
<path d="M0 0 C0.99 0 1.98 0 3 0 C3 10.23 3 20.46 3 31 C-2.94 31 -8.88 31 -15 31 C-15 26.38 -15 21.76 -15 17 C-13.68 17 -12.36 17 -11 17 C-11 18.32 -11 19.64 -11 21 C-7.7 20.67 -4.4 20.34 -1 20 C-0.67 18.68 -0.34 17.36 0 16 C0.66 16 1.32 16 2 16 C2 11.05 2 6.1 2 1 C1.34 0.67 0.68 0.34 0 0 Z M-14 18 C-14 21.96 -14 25.92 -14 30 C-8.72 30 -3.44 30 2 30 C2 26.37 2 22.74 2 19 C1.34 19.66 0.68 20.32 0 21 C-2.8203125 21.4140625 -2.8203125 21.4140625 -6.125 21.625 C-7.22070312 21.69976562 -8.31640625 21.77453125 -9.4453125 21.8515625 C-10.28835938 21.90054688 -11.13140625 21.94953125 -12 22 C-12 20.68 -12 19.36 -12 18 C-12.66 18 -13.32 18 -14 18 Z " fill="#B7B7B7" transform="translate(656,135)"/>
<path d="M0 0 C1 1 1 1 1.09765625 3.06640625 C1.08605469 3.89011719 1.07445312 4.71382812 1.0625 5.5625 C1.05347656 6.38878906 1.04445312 7.21507812 1.03515625 8.06640625 C1.02355469 8.70449219 1.01195312 9.34257812 1 10 C-5.14070352 11.18090452 -5.14070352 11.18090452 -8.375 10.5 C-10 9 -10 9 -10.9375 5.5625 C-11 2 -11 2 -9.75 0.125 C-5.85704274 -2.37761538 -4.00452528 -1.8968804 0 0 Z M-7 1 C-7.20970559 5.14093698 -7.20970559 5.14093698 -6 9 C-4.68 8.67 -3.36 8.34 -2 8 C-2.33 6.02 -2.66 4.04 -3 2 C-4.32 1.67 -5.64 1.34 -7 1 Z " fill="#64696E" transform="translate(214,139)"/>
<path d="M0 0 C1.32 0.33 2.64 0.66 4 1 C4 7.93 4 14.86 4 22 C2.68 22.33 1.36 22.66 0 23 C0 15.41 0 7.82 0 0 Z " fill="#858586" transform="translate(448,135)"/>
<path d="M0 0 C0.99 0 1.98 0 3 0 C3 4.95 3 9.9 3 15 C2.34 15 1.68 15 1 15 C1 12.69 1 10.38 1 8 C-2.93075644 8.57452746 -2.93075644 8.57452746 -6 11 C-6.33 8.69 -6.66 6.38 -7 4 C-8.98 3.34 -10.96 2.68 -13 2 C-13 1.67 -13 1.34 -13 1 C-10.69 1 -8.38 1 -6 1 C-5.34 2.32 -4.68 3.64 -4 5 C-2.68 5 -1.36 5 0 5 C0 3.35 0 1.7 0 0 Z " fill="#6B6B6B" transform="translate(655,136)"/>
<path d="M0 0 C0.99 0.33 1.98 0.66 3 1 C3.33 1.99 3.66 2.98 4 4 C2.35 4 0.7 4 -1 4 C1.31 4.66 3.62 5.32 6 6 C6.1875 8.875 6.1875 8.875 6 12 C3 14 3 14 -1 14 C-1.33 12.68 -1.66 11.36 -2 10 C-0.35 10 1.3 10 3 10 C0.69 9.34 -1.62 8.68 -4 8 C-4.25 5.6875 -4.25 5.6875 -4 3 C-2.1875 1.125 -2.1875 1.125 0 0 Z " fill="#717171" transform="translate(158,155)"/>
<path d="M0 0 C0.33 0.99 0.66 1.98 1 3 C-14.74487472 8.74031891 -14.74487472 8.74031891 -22 8 C-21 5 -21 5 -19.28515625 3.87890625 C-16.6737521 2.87452004 -14.19861974 2.38453843 -11.4375 1.9375 C-7.56778154 1.30217309 -3.89321119 0 0 0 Z " fill="#2569AE" transform="translate(184,252)"/>
<path d="M0 0 C0.66 0.66 1.32 1.32 2 2 C1 3 1 3 -2.5 3.4375 C-4.2325 3.7159375 -4.2325 3.7159375 -6 4 C-6.33 4.66 -6.66 5.32 -7 6 C-3.7 6.66 -0.4 7.32 3 8 C3 8.66 3 9.32 3 10 C1.04196493 10.05389087 -0.91648909 10.09274217 -2.875 10.125 C-3.96554687 10.14820313 -5.05609375 10.17140625 -6.1796875 10.1953125 C-9 10 -9 10 -11 8 C-11.3125 5 -11.3125 5 -11 2 C-6.93150591 -0.71232939 -4.83523216 -0.30699887 0 0 Z " fill="#616161" transform="translate(498,155)"/>
<path d="M0 0 C16.5 0 33 0 50 0 C50 1.32 50 2.64 50 4 C48.35 4.33 46.7 4.66 45 5 C45 4.34 45 3.68 45 3 C31.14 3 17.28 3 3 3 C2.67 3.66 2.34 4.32 2 5 C1.34 4.34 0.68 3.68 0 3 C0 2.01 0 1.02 0 0 Z " fill="#ADADAD" transform="translate(481,212)"/>
<path d="M0 0 C3.63 0 7.26 0 11 0 C11 2.31 11 4.62 11 7 C8.03 7 5.06 7 2 7 C2 8.65 2 10.3 2 12 C8.435 11.505 8.435 11.505 15 11 C15 11.99 15 12.98 15 14 C10.05 14 5.1 14 0 14 C0 11.36 0 8.72 0 6 C2.97 6 5.94 6 9 6 C9 4.35 9 2.7 9 1 C6.03 1 3.06 1 0 1 C0 0.67 0 0.34 0 0 Z " fill="#414142" transform="translate(485,138)"/>
<path d="M0 0 C0.33 0 0.66 0 1 0 C1 5.61 1 11.22 1 17 C0.34 17 -0.32 17 -1 17 C-1 15.35 -1 13.7 -1 12 C-3.31 12 -5.62 12 -8 12 C-8 10.02 -8 8.04 -8 6 C-8.99 5.67 -9.98 5.34 -11 5 C-11 4.34 -11 3.68 -11 3 C-12.65 3 -14.3 3 -16 3 C-15.67 2.34 -15.34 1.68 -15 1 C-13.02 1 -11.04 1 -9 1 C-8.67 1.66 -8.34 2.32 -8 3 C-5.67843403 3.40729228 -3.3431213 3.74438677 -1 4 C-1 4.33 -1 4.66 -1 5 C-2.65 5 -4.3 5 -6 5 C-6 6.65 -6 8.3 -6 10 C-4.02 10 -2.04 10 0 10 C0 6.7 0 3.4 0 0 Z " fill="#3D3D3E" transform="translate(395,136)"/>
<path d="M0 0 C-1.47797262 3.67056937 -3.47615477 5.41085783 -6.625 7.75 C-7.44226563 8.36359375 -8.25953125 8.9771875 -9.1015625 9.609375 C-9.72804687 10.06828125 -10.35453125 10.5271875 -11 11 C-12.07421875 9.1640625 -12.07421875 9.1640625 -13 7 C-10.084369 0.55492095 -6.7620254 -0.25517077 0 0 Z " fill="#4982BB" transform="translate(156,177)"/>
<path d="M0 0 C0.66 1.32 1.32 2.64 2 4 C-0.90908228 5.93938819 -3.40862379 6.96774957 -6.6875 8.125 C-8.17830078 8.65480469 -8.17830078 8.65480469 -9.69921875 9.1953125 C-10.45847656 9.46085938 -11.21773437 9.72640625 -12 10 C-12.66 9.34 -13.32 8.68 -14 8 C-10.3561044 3.36231469 -5.36905103 1.92630075 0 0 Z " fill="#2A6DB0" transform="translate(189,156)"/>
<path d="M0 0 C3.57203608 1.78601804 5.43350965 3.06686817 8 6 C8 6.66 8 7.32 8 8 C8.66 8.33 9.32 8.66 10 9 C8.68 9.33 7.36 9.66 6 10 C6 9.34 6 8.68 6 8 C3.7763932 9.9254644 3.7763932 9.9254644 3 13 C2.01 13.33 1.02 13.66 0 14 C0 9.38 0 4.76 0 0 Z " fill="#8D8D8D" transform="translate(165,152)"/>
<path d="M0 0 C0.66 0 1.32 0 2 0 C2 3.96 2 7.92 2 12 C3.32 12 4.64 12 6 12 C6 12.66 6 13.32 6 14 C4.68 14 3.36 14 2 14 C2 18.95 2 23.9 2 29 C1.34 29 0.68 29 0 29 C0 19.43 0 9.86 0 0 Z " fill="#444445" transform="translate(477,136)"/>
<path d="M0 0 C0.66 0 1.32 0 2 0 C2 3.96 2 7.92 2 12 C3.32 12 4.64 12 6 12 C6 12.66 6 13.32 6 14 C4.68 14 3.36 14 2 14 C2 18.95 2 23.9 2 29 C1.34 29 0.68 29 0 29 C0 19.43 0 9.86 0 0 Z " fill="#404042" transform="translate(319,136)"/>
<path d="M0 0 C0.66 0 1.32 0 2 0 C2 1.32 2 2.64 2 4 C3.32 4 4.64 4 6 4 C6 4.99 6 5.98 6 7 C5.01 7 4.02 7 3 7 C3 7.99 3 8.98 3 10 C4.32 10 5.64 10 7 10 C7 10.99 7 11.98 7 13 C5.35 13 3.7 13 2 13 C2 14.65 2 16.3 2 18 C1.34 18 0.68 18 0 18 C0 12.06 0 6.12 0 0 Z " fill="#363636" transform="translate(502,136)"/>
<path d="M0 0 C0.99 0 1.98 0 3 0 C3 2.64 3 5.28 3 8 C3.99 8 4.98 8 6 8 C6 8.66 6 9.32 6 10 C5.01 10 4.02 10 3 10 C3 13.3 3 16.6 3 20 C2.01 20 1.02 20 0 20 C0 13.4 0 6.8 0 0 Z " fill="#797979" transform="translate(368,135)"/>
<path d="M0 0 C1.155 0.165 2.31 0.33 3.5 0.5 C14.60713574 1.72440866 25.91516572 1.17566424 37 0 C35.68 1.32 34.36 2.64 33 4 C34.32 4.33 35.64 4.66 37 5 C28.57142857 7.28571429 28.57142857 7.28571429 24 7 C27 5 27 5 31 5 C31 4.34 31 3.68 31 3 C29.9644397 3.01571045 29.9644397 3.01571045 28.90795898 3.03173828 C25.75117701 3.07355697 22.59445355 3.09940802 19.4375 3.125 C17.80844727 3.15013672 17.80844727 3.15013672 16.14648438 3.17578125 C10.35520558 3.21098659 5.45865358 2.98923674 0 1 C0 0.67 0 0.34 0 0 Z " fill="#A9C3DD" transform="translate(129,256)"/>
<path d="M0 0 C0.144375 0.598125 0.28875 1.19625 0.4375 1.8125 C0.8872439 3.56150404 1.42892341 5.28677023 2 7 C0.671875 9.0078125 0.671875 9.0078125 -1.25 11.125 C-1.87390625 11.82882813 -2.4978125 12.53265625 -3.140625 13.2578125 C-5 15 -5 15 -8 16 C-8.66 15.67 -9.32 15.34 -10 15 C-10 14.01 -10 13.02 -10 12 C-8.57421875 10.60546875 -8.57421875 10.60546875 -6.6875 9.1875 C-3.36066858 6.50044385 -1.62581891 4.01672906 0 0 Z " fill="#888888" transform="translate(310,144)"/>
<path d="M0 0 C2.24298598 2.24298598 2.58421156 2.92316555 3 6 C2.72686657 8.34114367 2.40197001 10.67750658 2 13 C-1.39406103 11.54540242 -3.44527477 9.6345604 -6 7 C-7.31558703 5.97676564 -8.64377755 4.96873032 -10 4 C-8.35 3.34 -6.7 2.68 -5 2 C-3.68 3.32 -2.36 4.64 -1 6 C-0.67 4.02 -0.34 2.04 0 0 Z " fill="#757576" transform="translate(181,146)"/>
<path d="M0 0 C0.66 0.33 1.32 0.66 2 1 C1.01 1.33 0.02 1.66 -1 2 C-1 2.66 -1 3.32 -1 4 C-0.01 4.33 0.98 4.66 2 5 C-1.72965139 7.03435531 -3.66905042 8 -8 8 C-8 7.34 -8 6.68 -8 6 C-8.60328125 6.22816406 -9.2065625 6.45632812 -9.828125 6.69140625 C-11.02695313 7.12259766 -11.02695313 7.12259766 -12.25 7.5625 C-13.03890625 7.85253906 -13.8278125 8.14257812 -14.640625 8.44140625 C-17.19103452 9.04522837 -18.55322229 8.8473932 -21 8 C-19.90300781 7.59007812 -18.80601562 7.18015625 -17.67578125 6.7578125 C-16.22134314 6.21357114 -14.76691667 5.66929867 -13.3125 5.125 C-12.59126953 4.85558594 -11.87003906 4.58617187 -11.12695312 4.30859375 C-10.42119141 4.04433594 -9.71542969 3.78007812 -8.98828125 3.5078125 C-7.95695068 3.12351074 -7.95695068 3.12351074 -6.90478516 2.73144531 C-5.28813416 2.1106447 -3.69373998 1.43236744 -2.10546875 0.7421875 C-1.41066406 0.49726563 -0.71585938 0.25234375 0 0 Z " fill="#6191C3" transform="translate(192,246)"/>
<path d="M0 0 C0.66 0 1.32 0 2 0 C2 9.24 2 18.48 2 28 C1.34 28 0.68 28 0 28 C0 23.05 0 18.1 0 13 C-0.99 13 -1.98 13 -3 13 C-3 12.34 -3 11.68 -3 11 C-2.01 11 -1.02 11 0 11 C0 7.37 0 3.74 0 0 Z " fill="#424243" transform="translate(676,137)"/>
<path d="M0 0 C1.37478516 0.01740234 1.37478516 0.01740234 2.77734375 0.03515625 C3.69644531 0.04417969 4.61554688 0.05320313 5.5625 0.0625 C6.27277344 0.07410156 6.98304688 0.08570313 7.71484375 0.09765625 C7.71484375 1.41765625 7.71484375 2.73765625 7.71484375 4.09765625 C8.70484375 4.09765625 9.69484375 4.09765625 10.71484375 4.09765625 C10.38484375 5.08765625 10.05484375 6.07765625 9.71484375 7.09765625 C9.71484375 6.43765625 9.71484375 5.77765625 9.71484375 5.09765625 C4.76484375 5.09765625 -0.18515625 5.09765625 -5.28515625 5.09765625 C-5.61515625 5.75765625 -5.94515625 6.41765625 -6.28515625 7.09765625 C-6.28515625 6.10765625 -6.28515625 5.11765625 -6.28515625 4.09765625 C-4.96515625 4.09765625 -3.64515625 4.09765625 -2.28515625 4.09765625 C-2.61515625 3.10765625 -2.94515625 2.11765625 -3.28515625 1.09765625 C-2.28515625 0.09765625 -2.28515625 0.09765625 0 0 Z " fill="#BCBCBD" transform="translate(334.28515625,134.90234375)"/>
<path d="M0 0 C1.32 0 2.64 0 4 0 C4 3.63 4 7.26 4 11 C-0.75 9.8125 -0.75 9.8125 -3 7 C-3 6.34 -3 5.68 -3 5 C-3.66 5 -4.32 5 -5 5 C-5.33 4.01 -5.66 3.02 -6 2 C-2.62537285 2.54723683 -0.91765 3.0549 2 5 C1.34 3.35 0.68 1.7 0 0 Z " fill="#686868" transform="translate(222,135)"/>
<path d="M0 0 C4.95 0 9.9 0 15 0 C15 0.66 15 1.32 15 2 C12.36 2 9.72 2 7 2 C7 3.32 7 4.64 7 6 C10.63 6 14.26 6 18 6 C18 6.33 18 6.66 18 7 C10.08 7 2.16 7 -6 7 C-6 6.67 -6 6.34 -6 6 C-2.37 6 1.26 6 5 6 C4.67 4.68 4.34 3.36 4 2 C2.68 1.34 1.36 0.68 0 0 Z " fill="#39393A" transform="translate(539,145)"/>
<path d="M0 0 C0.33 0 0.66 0 1 0 C1 2.31 1 4.62 1 7 C1.66 7.33 2.32 7.66 3 8 C1.4375 9.5625 1.4375 9.5625 -1 11 C-4.625 10.9375 -4.625 10.9375 -8 10 C-9.4375 7.9375 -9.4375 7.9375 -10 6 C-9.34 6 -8.68 6 -8 6 C-8 4.35 -8 2.7 -8 1 C-7.773125 1.639375 -7.54625 2.27875 -7.3125 2.9375 C-6.14749104 5.27193661 -6.14749104 5.27193661 -3.375 5.75 C-2.59125 5.8325 -1.8075 5.915 -1 6 C-0.67 4.02 -0.34 2.04 0 0 Z " fill="#7F7F7F" transform="translate(440,142)"/>
<path d="M0 0 C3.63 0 7.26 0 11 0 C10.5205537 4.21912747 9.83374881 6.79663178 7 10 C7 8.02 7 6.04 7 4 C4.69 4 2.38 4 0 4 C0 2.68 0 1.36 0 0 Z " fill="#7B7B7C" transform="translate(661,141)"/>
<path d="M0 0 C0.66 0.33 1.32 0.66 2 1 C1.51917969 1.47953125 1.03835937 1.9590625 0.54296875 2.453125 C-1.68312178 6.1275833 -1.56493144 9.5266376 -1.6875 13.75 C-1.72166016 14.54277344 -1.75582031 15.33554688 -1.79101562 16.15234375 C-1.87319104 18.10107504 -1.93828045 20.05051362 -2 22 C-2.33 22 -2.66 22 -3 22 C-3 16.72 -3 11.44 -3 6 C-3.66 6 -4.32 6 -5 6 C-5 6.66 -5 7.32 -5 8 C-5.99 8.33 -6.98 8.66 -8 9 C-8.66 8.67 -9.32 8.34 -10 8 C-10 7.34 -10 6.68 -10 6 C-7.8828125 4.45703125 -7.8828125 4.45703125 -5.125 2.8125 C-4.22007812 2.26207031 -3.31515625 1.71164063 -2.3828125 1.14453125 C-1.20332031 0.57798828 -1.20332031 0.57798828 0 0 Z " fill="#5288BE" transform="translate(173,170)"/>
<path d="M0 0 C8.25 0 16.5 0 25 0 C25 0.66 25 1.32 25 2 C21.04 2 17.08 2 13 2 C12.67 3.32 12.34 4.64 12 6 C12 4.68 12 3.36 12 2 C8.04 2 4.08 2 0 2 C0 1.34 0 0.68 0 0 Z " fill="#3B3B3B" transform="translate(325,151)"/>
<path d="M0 0 C-1.01940388 2.7801924 -1.69720287 3.82814217 -4.3125 5.3125 C-7.2923726 6.07479299 -9.0709637 5.83686751 -12 5 C-11 2 -11 2 -8.8125 0.25 C-5.39631501 -1.26830444 -3.56486048 -0.91194105 0 0 Z " fill="#4A81BA" transform="translate(165,171)"/>
<path d="M0 0 C5.61 0 11.22 0 17 0 C17 3.3 17 6.6 17 10 C16.34 10 15.68 10 15 10 C15 7.36 15 4.72 15 2 C10.05 2 5.1 2 0 2 C0 1.34 0 0.68 0 0 Z " fill="#414141" transform="translate(379,155)"/>
<path d="M0 0 C0.99 0 1.98 0 3 0 C3.33 1.32 3.66 2.64 4 4 C3.01 4 2.02 4 1 4 C0.731875 4.61875 0.46375 5.2375 0.1875 5.875 C-1 8 -1 8 -4 10 C-5.32 10 -6.64 10 -8 10 C-7.875 8.25 -7.875 8.25 -7 6 C-5.03852126 4.61061923 -3.03833424 3.2739589 -1 2 C-0.67 1.34 -0.34 0.68 0 0 Z " fill="#6D6D6E" transform="translate(595,144)"/>
<path d="M0 0 C0.66 0 1.32 0 2 0 C2 1.32 2 2.64 2 4 C2.66 4 3.32 4 4 4 C5.68732277 5.98260426 7.35366057 7.9832342 9 10 C9.66 10.33 10.32 10.66 11 11 C11 11.99 11 12.98 11 14 C8.42123065 13.65151766 6.49876597 13.36448283 4.375 11.8125 C1.42169968 7.91951321 0 4.91230044 0 0 Z " fill="#626263" transform="translate(519,138)"/>
<path d="M0 0 C0.66 0 1.32 0 2 0 C2 1.65 2 3.3 2 5 C4.64 5 7.28 5 10 5 C10.33 3.68 10.66 2.36 11 1 C11 4.96 11 8.92 11 13 C10.67 13 10.34 13 10 13 C10 11.02 10 9.04 10 7 C5.92584936 7.17173709 5.92584936 7.17173709 2 8 C1.34 9.32 0.68 10.64 0 12 C0 8.04 0 4.08 0 0 Z " fill="#3E3E3E" transform="translate(351,137)"/>
<path d="M0 0 C0.28875 0.639375 0.5775 1.27875 0.875 1.9375 C1.82823451 4.15206079 1.82823451 4.15206079 4 5 C5.70702735 5.06996014 7.41668003 5.08440154 9.125 5.0625 C10.03507812 5.05347656 10.94515625 5.04445312 11.8828125 5.03515625 C12.93082031 5.01775391 12.93082031 5.01775391 14 5 C13.67 5.99 13.34 6.98 13 8 C7.16605611 9.10643764 4.23420787 9.27137992 -1 6 C-1.042721 4.33388095 -1.04063832 2.66617115 -1 1 C-0.67 0.67 -0.34 0.34 0 0 Z " fill="#646465" transform="translate(355,158)"/>
<path d="M0 0 C3.21185899 4.81778849 2.65994746 10.68319511 1.546875 16.27734375 C1.09093581 17.86987421 0.55494772 19.43920954 0 21 C-0.33 21 -0.66 21 -1 21 C-0.67 17.7 -0.34 14.4 0 11 C-2.70183055 9.64908472 -5.11808206 9.66141942 -8.125 9.4375 C-9.76855469 9.31181641 -9.76855469 9.31181641 -11.4453125 9.18359375 C-12.28835937 9.12300781 -13.13140625 9.06242188 -14 9 C-14 8.67 -14 8.34 -14 8 C-9.05 8 -4.1 8 1 8 C0.67 5.36 0.34 2.72 0 0 Z " fill="#7AA4CD" transform="translate(254,168)"/>
<path d="M0 0 C0.66 0 1.32 0 2 0 C2 1.98 2 3.96 2 6 C6.95 6 11.9 6 17 6 C17 6.66 17 7.32 17 8 C11.39 8 5.78 8 0 8 C0 5.36 0 2.72 0 0 Z " fill="#3B3B3C" transform="translate(616,157)"/>
<path d="M0 0 C0.33 1.32 0.66 2.64 1 4 C1.66 4 2.32 4 3 4 C3.33 4.99 3.66 5.98 4 7 C2.85546875 9.04296875 2.85546875 9.04296875 1.1875 11.1875 C0.37345703 12.26064453 0.37345703 12.26064453 -0.45703125 13.35546875 C-0.96621094 13.89816406 -1.47539062 14.44085938 -2 15 C-2.66 15 -3.32 15 -4 15 C-3.52229477 13.06213915 -3.04278429 11.12472326 -2.5625 9.1875 C-2.29566406 8.10855469 -2.02882812 7.02960938 -1.75390625 5.91796875 C-1.23922588 3.9259157 -0.65062825 1.95188476 0 0 Z " fill="#6998C6" transform="translate(244,193)"/>
<path d="M0 0 C0 3.3 0 6.6 0 10 C1.98 9.67 3.96 9.34 6 9 C5 11 5 11 1.6875 12.1875 C-1.57562063 12.90649268 -2.99282882 13.20286847 -6 12 C-5.01 11.67 -4.02 11.34 -3 11 C-2.26676204 8.98491642 -2.26676204 8.98491642 -2 7 C-2.66 7 -3.32 7 -4 7 C-3.67 5.35 -3.34 3.7 -3 2 C-3.99 2.33 -4.98 2.66 -6 3 C-6.99 2.34 -7.98 1.68 -9 1 C-5.8035914 -0.06546953 -3.34252724 -0.07427838 0 0 Z " fill="#ABB8C5" transform="translate(202,140)"/>
<path d="M0 0 C0.94875 0.04125 1.8975 0.0825 2.875 0.125 C2.875 0.455 2.875 0.785 2.875 1.125 C1.225 1.455 -0.425 1.785 -2.125 2.125 C-0.805 2.785 0.515 3.445 1.875 4.125 C0.555 4.455 -0.765 4.785 -2.125 5.125 C-2.455 7.105 -2.785 9.085 -3.125 11.125 C-3.455 11.125 -3.785 11.125 -4.125 11.125 C-4.455 9.145 -4.785 7.165 -5.125 5.125 C-5.455 7.435 -5.785 9.745 -6.125 12.125 C-6.455 11.465 -6.785 10.805 -7.125 10.125 C-9.14963255 9.47286708 -9.14963255 9.47286708 -11.125 9.125 C-10.135 9.125 -9.145 9.125 -8.125 9.125 C-8.125 8.465 -8.125 7.805 -8.125 7.125 C-9.115 6.795 -10.105 6.465 -11.125 6.125 C-9.805 6.125 -8.485 6.125 -7.125 6.125 C-6.83625 5.50625 -6.5475 4.8875 -6.25 4.25 C-4.49257947 0.93042788 -3.84628281 0.15385131 0 0 Z " fill="#A9A9A9" transform="translate(382.125,135.875)"/>
<path d="M0 0 C0 0.66 0 1.32 0 2 C-0.99 2.33 -1.98 2.66 -3 3 C-2.67 3.66 -2.34 4.32 -2 5 C-5.17754575 6.58877287 -8.49382922 6 -12 6 C-12.99 6.495 -12.99 6.495 -14 7 C-14 6.34 -14 5.68 -14 5 C-15.32 4.67 -16.64 4.34 -18 4 C-17.26394531 3.87882813 -16.52789062 3.75765625 -15.76953125 3.6328125 C-14.79371094 3.46523437 -13.81789063 3.29765625 -12.8125 3.125 C-11.84957031 2.96257812 -10.88664062 2.80015625 -9.89453125 2.6328125 C-6.52544476 1.89625108 -3.42502947 0 0 0 Z " fill="#838383" transform="translate(339,143)"/>
<path d="M0 0 C0.99 0 1.98 0 3 0 C3 9.9 3 19.8 3 30 C2.67 30 2.34 30 2 30 C1.92652344 29.04287109 1.92652344 29.04287109 1.8515625 28.06640625 C1.77679687 27.24011719 1.70203125 26.41382813 1.625 25.5625 C1.55539062 24.73878906 1.48578125 23.91507813 1.4140625 23.06640625 C1.27742187 22.38449219 1.14078125 21.70257813 1 21 C0.34 20.67 -0.32 20.34 -1 20 C-0.67 18.68 -0.34 17.36 0 16 C0.66 16 1.32 16 2 16 C2 11.05 2 6.1 2 1 C1.34 0.67 0.68 0.34 0 0 Z " fill="#A0A0A0" transform="translate(656,135)"/>
<path d="M0 0 C2.97 0 5.94 0 9 0 C9.33 1.32 9.66 2.64 10 4 C6.7 4 3.4 4 0 4 C0 2.68 0 1.36 0 0 Z " fill="#929292" transform="translate(461,136)"/>
<path d="M0 0 C-1.125 2.4375 -1.125 2.4375 -3 5 C-6.1875 5.8125 -6.1875 5.8125 -9 6 C-7.54266958 1.38512035 -7.54266958 1.38512035 -5.0625 -0.375 C-3 -1 -3 -1 0 0 Z " fill="#2F6FB2" transform="translate(217,235)"/>
<path d="M0 0 C2.25 1.1875 2.25 1.1875 3.25 2.1875 C3.29092937 4.52047433 3.29241723 6.85455225 3.25 9.1875 C2.92 9.1875 2.59 9.1875 2.25 9.1875 C1.92 7.2075 1.59 5.2275 1.25 3.1875 C0.26 4.6725 0.26 4.6725 -0.75 6.1875 C-1.08 5.1975 -1.41 4.2075 -1.75 3.1875 C-2.74 2.8575 -3.73 2.5275 -4.75 2.1875 C-5.08 3.5075 -5.41 4.8275 -5.75 6.1875 C-6.41 4.5375 -7.07 2.8875 -7.75 1.1875 C-4.69204879 -0.38516062 -3.36664721 -0.99469122 0 0 Z " fill="#A0A0A0" transform="translate(211.75,137.8125)"/>
<path d="M0 0 C2.64 0 5.28 0 8 0 C8.33 1.32 8.66 2.64 9 4 C6.03 4 3.06 4 0 4 C0 2.68 0 1.36 0 0 Z " fill="#989899" transform="translate(663,136)"/>
<path d="M0 0 C2.33294775 -0.04241723 4.66702567 -0.04092937 7 0 C8 1 8 1 8.0625 3.5625 C8.041875 4.366875 8.02125 5.17125 8 6 C9.98 6 11.96 6 14 6 C14 6.33 14 6.66 14 7 C13.21625 7.12375 12.4325 7.2475 11.625 7.375 C8.85942178 7.79117993 8.85942178 7.79117993 7 10 C6.67 7.69 6.34 5.38 6 3 C4.02 2.34 2.04 1.68 0 1 C0 0.67 0 0.34 0 0 Z " fill="#484849" transform="translate(642,137)"/>
<path d="M0 0 C-1.98 0.99 -1.98 0.99 -4 2 C-3.01 2.66 -2.02 3.32 -1 4 C-2.98 4.33 -4.96 4.66 -7 5 C-7.33 6.65 -7.66 8.3 -8 10 C-8.33 10 -8.66 10 -9 10 C-9.29296875 3.9453125 -9.29296875 3.9453125 -9 2 C-5.5647952 -0.29013653 -4.014669 -0.17842973 0 0 Z " fill="#787879" transform="translate(647,136)"/>
<path d="M0 0 C2.9375 0.25 2.9375 0.25 6 1 C6.66 1.99 7.32 2.98 8 4 C7.01 4 6.02 4 5 4 C5.33 5.65 5.66 7.3 6 9 C3.35247996 6.42215154 1.05567935 4.08351902 -1 1 C-0.67 0.67 -0.34 0.34 0 0 Z " fill="#888888" transform="translate(382,188)"/>
<path d="M0 0 C-0.75 5.75 -0.75 5.75 -3 8 C-5.125 7.625 -5.125 7.625 -7 7 C-3.86206897 0 -3.86206897 0 0 0 Z " fill="#818181" transform="translate(667,152)"/>
<path d="M0 0 C0.8353125 0.37125 0.8353125 0.37125 1.6875 0.75 C1.125 2.6875 1.125 2.6875 -0.3125 4.75 C-3.9375 5.5 -3.9375 5.5 -7.3125 5.75 C-7.3125 5.09 -7.3125 4.43 -7.3125 3.75 C-3.10958131 -0.33617095 -3.10958131 -0.33617095 0 0 Z " fill="#3171B2" transform="translate(198.3125,244.25)"/>
<path d="M0 0 C1.051875 -0.02126953 1.051875 -0.02126953 2.125 -0.04296875 C4 0.1875 4 0.1875 6 2.1875 C4.06826897 4.11923103 0.60844406 3.82140259 -2 4.1875 C-2.99 4.6825 -2.99 4.6825 -4 5.1875 C-4 4.1975 -4 3.2075 -4 2.1875 C-4.66 1.8575 -5.32 1.5275 -6 1.1875 C-3.77109005 0.07304502 -2.46944894 0.02269714 0 0 Z " fill="#727273" transform="translate(494,154.8125)"/>
<path d="M0 0 C2 2 2 2 3 5 C4.49985609 6.66710346 4.49985609 6.66710346 6 8 C4.02 8.66 2.04 9.32 0 10 C0 9.34 0 8.68 0 8 C-0.66 7.67 -1.32 7.34 -2 7 C-1.34 6.67 -0.68 6.34 0 6 C-0.2784375 4.7934375 -0.2784375 4.7934375 -0.5625 3.5625 C-0.706875 2.716875 -0.85125 1.87125 -1 1 C-0.67 0.67 -0.34 0.34 0 0 Z " fill="#B8BDC1" transform="translate(175,152)"/>
<path d="M0 0 C1.32 0.33 2.64 0.66 4 1 C3.01 1.495 3.01 1.495 2 2 C2 2.66 2 3.32 2 4 C2.66 4.33 3.32 4.66 4 5 C4.40729228 7.32156597 4.74438677 9.6568787 5 12 C3.68 11.67 2.36 11.34 1 11 C0.67 7.37 0.34 3.74 0 0 Z " fill="#B2B5B7" transform="translate(215,136)"/>
<path d="M0 0 C3.3 0 6.6 0 10 0 C10 0.99 10 1.98 10 3 C6.7 3 3.4 3 0 3 C0 2.01 0 1.02 0 0 Z " fill="#6B6B6B" transform="translate(332,135)"/>
<path d="M0 0 C0 1.32 0 2.64 0 4 C-1.65 4.33 -3.3 4.66 -5 5 C-5 4.34 -5 3.68 -5 3 C-7.31 2.67 -9.62 2.34 -12 2 C-12 1.67 -12 1.34 -12 1 C-7.93631321 0.22596442 -4.13574827 -0.0984702 0 0 Z " fill="#868686" transform="translate(531,212)"/>
<path d="M0 0 C1.32 0.33 2.64 0.66 4 1 C3.030625 1.86625 2.06125 2.7325 1.0625 3.625 C-1.91504038 6.56751049 -2.79692286 8.73538008 -3 13 C-3.33 13 -3.66 13 -4 13 C-4.49230769 5.73846154 -4.49230769 5.73846154 -2 2 C-1.34 1.34 -0.68 0.68 0 0 Z " fill="#808080" transform="translate(492,189)"/>
<path d="M0 0 C0.66 0 1.32 0 2 0 C2 1.32 2 2.64 2 4 C3.32 4 4.64 4 6 4 C6 4.99 6 5.98 6 7 C5.01 7 4.02 7 3 7 C3 7.99 3 8.98 3 10 C4.32 10 5.64 10 7 10 C6.67 10.99 6.34 11.98 6 13 C6 12.34 6 11.68 6 11 C4.68 11 3.36 11 2 11 C1.34 7.37 0.68 3.74 0 0 Z " fill="#7B7B7C" transform="translate(502,136)"/>
<path d="M0 0 C0.7425 0.0825 1.485 0.165 2.25 0.25 C1.625 2.125 1.625 2.125 0.25 4.25 C-2.875 5.5 -2.875 5.5 -5.75 6.25 C-6.08 5.59 -6.41 4.93 -6.75 4.25 C-3.42692308 0.31153846 -3.42692308 0.31153846 0 0 Z " fill="#0452A2" transform="translate(181.75,159.75)"/>
<path d="M0 0 C3.96 0 7.92 0 12 0 C11.67 1.98 11.34 3.96 11 6 C10.67 4.68 10.34 3.36 10 2 C6.7 2 3.4 2 0 2 C0 1.34 0 0.68 0 0 Z " fill="#424243" transform="translate(559,139)"/>
<path d="M0 0 C1.98 0.99 1.98 0.99 4 2 C4 4.64 4 7.28 4 10 C3.01 10 2.02 10 1 10 C0.67 6.7 0.34 3.4 0 0 Z " fill="#5F5F60" transform="translate(440,139)"/>
<path d="M0 0 C2.475 0.495 2.475 0.495 5 1 C5 2.32 5 3.64 5 5 C5.66 5 6.32 5 7 5 C7 6.32 7 7.64 7 9 C6.01 8.67 5.02 8.34 4 8 C2.8125 4.9375 2.8125 4.9375 2 2 C1.34 2 0.68 2 0 2 C0 1.34 0 0.68 0 0 Z " fill="#606061" transform="translate(193,142)"/>
<path d="M0 0 C0.66 0 1.32 0 2 0 C2 0.99 2 1.98 2 3 C4.97 3.495 4.97 3.495 8 4 C8 4.66 8 5.32 8 6 C2.06 5.01 2.06 5.01 -4 4 C-3.67 3.34 -3.34 2.68 -3 2 C-2.01 2 -1.02 2 0 2 C0 1.34 0 0.68 0 0 Z " fill="#4D4D4E" transform="translate(339,143)"/>
<path d="M0 0 C1.65 0 3.3 0 5 0 C3.68 1.32 2.36 2.64 1 4 C2.32 4.33 3.64 4.66 5 5 C-3.42857143 7.28571429 -3.42857143 7.28571429 -8 7 C-5 5 -5 5 -1 5 C-0.67 3.35 -0.34 1.7 0 0 Z " fill="#80A8CF" transform="translate(161,256)"/>
<path d="M0 0 C0.66 0.33 1.32 0.66 2 1 C2 2.32 2 3.64 2 5 C-0.5 7.25 -0.5 7.25 -3 9 C-3.66 7.68 -4.32 6.36 -5 5 C-3.35 3.35 -1.7 1.7 0 0 Z " fill="#5D8FC2" transform="translate(220,229)"/>
<path d="M0 0 C0.33 0 0.66 0 1 0 C1.33 1.98 1.66 3.96 2 6 C2.99 6.33 3.98 6.66 5 7 C5 7.66 5 8.32 5 9 C3.68 9 2.36 9 1 9 C1 11.97 1 14.94 1 18 C0.67 18 0.34 18 0 18 C0 12.06 0 6.12 0 0 Z " fill="#3C3C3C" transform="translate(369,136)"/>
<path d="M0 0 C-0.33 0.66 -0.66 1.32 -1 2 C-3.28515625 2.4140625 -3.28515625 2.4140625 -6.0625 2.625 C-6.98160156 2.69976562 -7.90070313 2.77453125 -8.84765625 2.8515625 C-9.55792969 2.90054687 -10.26820313 2.94953125 -11 3 C-11 2.01 -11 1.02 -11 0 C-3.57142857 -1.28571429 -3.57142857 -1.28571429 0 0 Z " fill="#014B9E" transform="translate(161,259)"/>
<path d="M0 0 C3.96 0 7.92 0 12 0 C12.33 1.32 12.66 2.64 13 4 C12.34 4.66 11.68 5.32 11 6 C11 5.01 11 4.02 11 3 C10.01 3 9.02 3 8 3 C8 2.34 8 1.68 8 1 C5.36 1 2.72 1 0 1 C0 0.67 0 0.34 0 0 Z " fill="#4F4F4F" transform="translate(358,156)"/>
<path d="M0 0 C2.24298598 2.24298598 2.58421156 2.92316555 3 6 C2.72686657 8.34114367 2.40197001 10.67750658 2 13 C0.68 12.34 -0.64 11.68 -2 11 C-1.01 10.01 -0.02 9.02 1 8 C0.34 7.67 -0.32 7.34 -1 7 C-0.67 4.69 -0.34 2.38 0 0 Z " fill="#B7B8B9" transform="translate(181,146)"/>
<path d="M0 0 C0.33 0 0.66 0 1 0 C1.33 1.65 1.66 3.3 2 5 C2.66 3.68 3.32 2.36 4 1 C4.66 3.31 5.32 5.62 6 8 C4.02 8.99 4.02 8.99 2 10 C-0.4294516 6.3558226 -0.16179575 4.28758728 0 0 Z " fill="#9D9D9D" transform="translate(637,140)"/>
<path d="M0 0 C0.33 0 0.66 0 1 0 C1.1875 2.875 1.1875 2.875 1 6 C-2 8 -2 8 -6 8 C-6.33 6.68 -6.66 5.36 -7 4 C-4.69 4.33 -2.38 4.66 0 5 C0 3.35 0 1.7 0 0 Z " fill="#B0B0B1" transform="translate(163,161)"/>
<path d="M0 0 C0.99 0.33 1.98 0.66 3 1 C3.33 1.99 3.66 2.98 4 4 C2.35 4 0.7 4 -1 4 C-1.33 5.32 -1.66 6.64 -2 8 C-2.66 8 -3.32 8 -4 8 C-4.25 5.6875 -4.25 5.6875 -4 3 C-2.1875 1.125 -2.1875 1.125 0 0 Z " fill="#A8A8A8" transform="translate(158,155)"/>
<path d="M0 0 C3.3 0.33 6.6 0.66 10 1 C10 1.33 10 1.66 10 2 C9.030625 2.12375 8.06125 2.2475 7.0625 2.375 C6.051875 2.58125 5.04125 2.7875 4 3 C3.67 3.66 3.34 4.32 3 5 C0.525 4.01 0.525 4.01 -2 3 C-1.34 2.01 -0.68 1.02 0 0 Z " fill="#8A8A8A" transform="translate(599,184)"/>
<path d="M0 0 C3.63 0 7.26 0 11 0 C11 0.99 11 1.98 11 3 C7.37 2.67 3.74 2.34 0 2 C0 1.34 0 0.68 0 0 Z " fill="#3F3F40" transform="translate(589,138)"/>
<path d="M0 0 C0.66 0.33 1.32 0.66 2 1 C1.67 1.33 1.34 1.66 1 2 C1.66 2.66 2.32 3.32 3 4 C0.69 4.66 -1.62 5.32 -4 6 C-4 3 -4 3 -3 1 C-2.01 0.67 -1.02 0.34 0 0 Z " fill="#0451A2" transform="translate(203,151)"/>
<path d="M0 0 C1.98 0.99 1.98 0.99 4 2 C4.83886169 4.67790463 4.81766414 7.1737941 5 10 C4.34 10 3.68 10 3 10 C2.01 6.7 1.02 3.4 0 0 Z " fill="#4E4E4F" transform="translate(182,146)"/>
<path d="M0 0 C0.2475 0.598125 0.495 1.19625 0.75 1.8125 C2.16370012 4.28647521 3.65055383 5.43370255 6 7 C4.02 7.66 2.04 8.32 0 9 C-0.66 7.68 -1.32 6.36 -2 5 C-1.34 5 -0.68 5 0 5 C0 3.35 0 1.7 0 0 Z " fill="#8E8E8E" transform="translate(432,143)"/>
<path d="M0 0 C0.33 0.99 0.66 1.98 1 3 C-1.64 3.66 -4.28 4.32 -7 5 C-6.67 3.68 -6.34 2.36 -6 1 C-3 0 -3 0 0 0 Z " fill="#3976B5" transform="translate(184,252)"/>
<path d="M0 0 C0 0.66 0 1.32 0 2 C-0.99 2.33 -1.98 2.66 -3 3 C-3.66 2.67 -4.32 2.34 -5 2 C-5.33 2.66 -5.66 3.32 -6 4 C-6.99 4.33 -7.98 4.66 -9 5 C-9.66 4.34 -10.32 3.68 -11 3 C-9.73160474 2.49384702 -8.46016898 1.99530901 -7.1875 1.5 C-6.12595703 1.08234375 -6.12595703 1.08234375 -5.04296875 0.65625 C-3 0 -3 0 0 0 Z " fill="#C3C3C3" transform="translate(193,142)"/>
<path d="M0 0 C0.33 0 0.66 0 1 0 C0.67 3.3 0.34 6.6 0 10 C-0.66 9.67 -1.32 9.34 -2 9 C-2 8.01 -2 7.02 -2 6 C-2.66 6 -3.32 6 -4 6 C-4 5.34 -4 4.68 -4 4 C-2.68 3.67 -1.36 3.34 0 3 C0 2.01 0 1.02 0 0 Z " fill="#7E7E7E" transform="translate(600,138)"/>
<path d="M0 0 C1.98 0 3.96 0 6 0 C6.33 1.65 6.66 3.3 7 5 C6.01 4.67 5.02 4.34 4 4 C4 3.34 4 2.68 4 2 C2.35 2 0.7 2 -1 2 C-0.67 1.34 -0.34 0.68 0 0 Z " fill="#565656" transform="translate(380,137)"/>
<path d="M0 0 C4.29 0.33 8.58 0.66 13 1 C13 1.33 13 1.66 13 2 C7.06 2.495 7.06 2.495 1 3 C0.67 2.01 0.34 1.02 0 0 Z " fill="#3B3B3C" transform="translate(495,232)"/>
<path d="M0 0 C0.33 1.32 0.66 2.64 1 4 C1.66 4 2.32 4 3 4 C3.33 4.99 3.66 5.98 4 7 C2.35 7.33 0.7 7.66 -1 8 C-0.67 5.36 -0.34 2.72 0 0 Z " fill="#5B8EC1" transform="translate(244,193)"/>
<path d="M0 0 C1.65 1.65 3.3 3.3 5 5 C2.64046906 7.35953094 1.22104383 7.49141413 -2 8 C-2 6.35 -2 4.7 -2 3 C-1.67 3.99 -1.34 4.98 -1 6 C-0.34 6 0.32 6 1 6 C0.67 4.02 0.34 2.04 0 0 Z " fill="#9BA6B1" transform="translate(186,150)"/>
<path d="M0 0 C-0.33 1.65 -0.66 3.3 -1 5 C-1.66 5 -2.32 5 -3 5 C-3 4.01 -3 3.02 -3 2 C-3.99 2.33 -4.98 2.66 -6 3 C-6.99 2.34 -7.98 1.68 -9 1 C-5.8035914 -0.06546953 -3.34252724 -0.07427838 0 0 Z " fill="#BCBCBC" transform="translate(202,140)"/>
<path d="M0 0 C1.231394 2.46278801 1.07159196 4.2795055 1 7 C-0.98 7.99 -0.98 7.99 -3 9 C-2.44271087 5.65626525 -1.64826111 2.96687001 0 0 Z " fill="#8BAED2" transform="translate(238,214)"/>
<path d="M0 0 C1.2077558 3.62326739 0.54311128 4.64146369 -1 8 C-1.99 7.01 -2.98 6.02 -4 5 C-3.67 4.01 -3.34 3.02 -3 2 C-2.01 2 -1.02 2 0 2 C0 1.34 0 0.68 0 0 Z " fill="#719DC9" transform="translate(208,206)"/>
<path d="M0 0 C0.66 0.33 1.32 0.66 2 1 C1.67 1.66 1.34 2.32 1 3 C1.66 3.33 2.32 3.66 3 4 C1.02 4.99 1.02 4.99 -1 6 C-1.66 4.68 -2.32 3.36 -3 2 C-2.01 1.34 -1.02 0.68 0 0 Z " fill="#959595" transform="translate(560,154)"/>
<path d="M0 0 C0 2.31 0 4.62 0 7 C-0.99 7 -1.98 7 -3 7 C-3 5.02 -3 3.04 -3 1 C-1 0 -1 0 0 0 Z " fill="#6E6E6E" transform="translate(432,141)"/>
<path d="M0 0 C1.125 1.75 1.125 1.75 2 4 C1.125 6.25 1.125 6.25 0 8 C-2 6 -2 6 -2.125 3.375 C-2.08375 2.59125 -2.0425 1.8075 -2 1 C-1.34 0.67 -0.68 0.34 0 0 Z " fill="#717172" transform="translate(205,140)"/>
<path d="M0 0 C1.32 0.66 2.64 1.32 4 2 C3.34 2 2.68 2 2 2 C2 2.66 2 3.32 2 4 C1.01 4.33 0.02 4.66 -1 5 C-1.66 4.67 -2.32 4.34 -3 4 C-3 3.34 -3 2.68 -3 2 C-2.01 1.34 -1.02 0.68 0 0 Z " fill="#7AA4CD" transform="translate(166,174)"/>
<path d="M0 0 C0 0.66 0 1.32 0 2 C-1.65 2.33 -3.3 2.66 -5 3 C-5.33 2.01 -5.66 1.02 -6 0 C-3.50907189 -1.24546405 -2.58919267 -0.7767578 0 0 Z " fill="#7B7B7C" transform="translate(515,150)"/>
<path d="M0 0 C1.32 0 2.64 0 4 0 C4 2.31 4 4.62 4 7 C1 5 1 5 0.3125 2.375 C0.209375 1.59125 0.10625 0.8075 0 0 Z " fill="#B4B4B5" transform="translate(222,135)"/>
<path d="M0 0 C0.66 0.33 1.32 0.66 2 1 C1.34 2.32 0.68 3.64 0 5 C-1.32 5 -2.64 5 -4 5 C-3.34 4.01 -2.68 3.02 -2 2 C-1.34 2 -0.68 2 0 2 C0 1.34 0 0.68 0 0 Z " fill="#3774B4" transform="translate(227,226)"/>
<path d="M0 0 C-0.33 1.32 -0.66 2.64 -1 4 C-2.32 4.33 -3.64 4.66 -5 5 C-4.625 3.0625 -4.625 3.0625 -4 1 C-2 0 -2 0 0 0 Z " fill="#585859" transform="translate(566,152)"/>
<path d="M0 0 C2 3 2 3 1.625 5.1875 C1.41875 5.785625 1.2125 6.38375 1 7 C0.67 6.34 0.34 5.68 0 5 C-0.99 5.33 -1.98 5.66 -3 6 C-2 4 -1 2 0 0 Z " fill="#8D8D8E" transform="translate(566,147)"/>
</svg>
