<?xml version="1.0" encoding="utf-8"?>
<!-- Generator: Adobe Illustrator 16.0.0, SVG Export Plug-In . SVG Version: 6.00 Build 0)  -->
<!DOCTYPE svg PUBLIC "-//W3C//DTD SVG 1.1//EN" "http://www.w3.org/Graphics/SVG/1.1/DTD/svg11.dtd">
<svg xmlns="http://www.w3.org/2000/svg" xmlns:xlink="http://www.w3.org/1999/xlink" version="1.1" id="Layer_1" x="0px" y="0px" width="1568px" height="1400px" viewBox="0 0 1568 1400" enable-background="new 0 0 1568 1400" xml:space="preserve">
<g>
	
	<path fill="#DFF2F2" d="M204.2,682.3L204.2,682.3c0-19.7,15.9-35.6,35.6-35.6h25.7c10.3,0,18.6-8.3,18.6-18.6   c0-10.2-8.3-18.6-18.6-18.6h-1.8c-13.8,0-25-11.2-25-25c0-13.8,11.2-25,25-25h8c6.7,0,12.6-3.6,15.9-8.9c1.7-2.8,2.7-6.1,2.7-9.7   c0-10.3,8.3-18.6,18.6-18.6h7.9c9,0,16.4-7.3,16.4-16.4c0-9-7.3-16.4-16.4-16.4h-35.4c-13.8,0-25-11.2-25-25c0-4.1,1-7.9,2.7-11.3   c4.1-8.1,12.5-13.7,22.3-13.7h75.8c13.8,0,25-11.2,25-25c0-13.8-11.2-25-25-25h-6.7c-14.1,0-25.5-11.4-25.5-25.5   c0-14.1,11.4-25.5,25.5-25.5h126.1c18.3,0,33.1-14.8,33.1-33.1c0-18.3-14.8-33.1-33.1-33.1h-23.8c-18.3,0-33.1-14.8-33.1-33.1   c0-18.3,14.8-33.1,33.1-33.1h127.9c12.7,0,23-10.3,23-23c0-12.7,10.3-23,23-23h205.6c12.7,0,23,10.3,23,23c0,12.7,10.3,23,23,23   h167.1c18.3,0,33.1,14.8,33.1,33.1c0,18.3,14.8,33.1,33.1,33.1h13.5c18.3,0,33.1,14.8,33.1,33.1c0,18.3,14.8,33.1,33.1,33.1h17   c18.3,0,33.1,14.8,33.1,33.1c0,18.3-14.8,33.1-33.1,33.1h-6.8c-23.9,0-43.3,19.4-43.3,43.3c0,1.4,0.1,2.7,0.2,4   c2,22,20.5,39.2,43.1,39.2h84.2c12.7,0,23,10.3,23,23c0,12.7-10.3,23-23,23h-37.7c-6.4,0-12.1,3.3-15.4,8.2c-2,3-3.2,6.5-3.2,10.4   c0,10.3,8.3,18.6,18.6,18.6h3.7c18.3,0,33.1,14.8,33.1,33.1c0,18.3-14.8,33.1-33.1,33.1h-26.2c-10.2,0-18.6,8.3-18.6,18.6   c0,10.3,8.3,18.6,18.6,18.6h126.5c18.3,0,33.1,14.8,33.1,33.1v310.5H204.2L204.2,682.3L204.2,682.3z"/>
	<path fill="#FFFFFF" d="M502.7,380.6h38.9c0-19.3,15.6-35,35-35c19.3,0,35,15.6,35,35h3.5c12.1,0,21.9,9.8,21.9,21.9   c0,12.1-9.8,21.9-21.9,21.9H502.7c-12.1,0-21.9-9.8-21.9-21.9C480.8,390.4,490.6,380.6,502.7,380.6z"/>
	<path fill="#FFFFFF" d="M1082,430.3h-23.1c0-11.5-9.3-20.8-20.8-20.8c-11.5,0-20.8,9.3-20.8,20.8h-2.1c-7.2,0-13,5.8-13,13   c0,7.2,5.8,13,13,13h66.7c7.2,0,13-5.8,13-13C1094.9,436.1,1089.1,430.3,1082,430.3z"/>
	<path fill="#FFFFFF" d="M927,458.9h-24.4c0-12-9.7-21.7-21.7-21.7c-3.3,0-6.3,0.8-9.1,2.1c-6.9-8.1-17.2-13.2-28.6-13.2   c-12.8,0-24.1,6.4-30.9,16.1c-3.2-8.4-11.2-14.4-20.8-14.4c-3.6,0-7,1-10,2.5c-5.3-12.2-17.4-20.8-31.6-20.8   c-16.8,0-30.7,12-33.8,27.9c-2.5-0.8-5.1-1.3-7.9-1.3c-15.3,0-27.8,12.4-27.8,27.8c0,4,0.8,7.7,2.3,11.1h-34.3   c-9.7,0-17.5,7.8-17.5,17.5c0,9.7,7.8,17.5,17.5,17.5H717h19.2H927c14.1,0,25.5-11.4,25.5-25.6C952.5,470.4,941.1,458.9,927,458.9z   "/>
	<g>
		<g>
			<path fill="#7D6A3C" d="M198.1,867.6c-31-9.7-46.3-51.8-47.3-53.9l3.8-11.1c0.2,0.5,21.4,45,47.2,53.1L198.1,867.6z"/>
		</g>
		<g>
			<path fill="#695831" d="M208.7,851.9l-7.5-10c26.8-20.1,39.4-54.9,39.5-55.2l4.9,13C245.1,801.2,238.6,829.5,208.7,851.9z"/>
		</g>
		<g>
			<polygon fill="#7D6A3C" points="191.4,785.6 191.4,967.5 203.2,967.5 203.2,772.7    "/>
			<polygon fill="#695831" points="210.7,785.6 203.2,772.7 203.2,967.5 210.7,967.5    "/>
		</g>
	</g>
	<g>
		<path fill="#4A936B" d="M197.5,642.2c-26.9,0-48.8,21.8-48.8,48.8v27.7c-25.8,1.2-46.4,22.5-46.4,48.7c0,26.9,21.8,48.8,48.8,48.8    h48.2V642.3C198.7,642.3,198.1,642.2,197.5,642.2z"/>
		<path fill="#458A63" d="M259.1,718.6h-12.8V691c0-26.3-20.9-47.7-47-48.7v173.8h59.8c26.9,0,48.8-21.8,48.8-48.8    C307.9,740.4,286.1,718.6,259.1,718.6z"/>
	</g>
	<g>
		<path fill="#4A936B" d="M1334.9,509.2c-23.5,0-42.6,19.1-42.6,42.6v37.3h-7.1c-23.5,0-42.6,19.1-42.6,42.6v71    c0,23.5,19.1,42.6,42.6,42.6h28.4c0.7,0,1.4-0.1,2.1-0.1c6.2,10.8,16.9,18.5,29.6,20.7V509.2H1334.9z"/>
		<path fill="#458A63" d="M1400.5,574.9h-12.4v-23.1c0-23.5-19.1-42.6-42.6-42.6h-0.2v256.6c2.4,0.4,4.8,0.7,7.3,0.7h47.9    c23.5,0,42.6-19.1,42.6-42.6V617.4C1443.1,593.9,1424,574.9,1400.5,574.9z"/>
	</g>
	<g>
		<g>
			<path fill="#7D6A3C" d="M1338.5,777.9c-41.7-13-62.3-69.8-63.6-72.5l5.1-15c0.3,0.6,28.9,60.6,63.5,71.4L1338.5,777.9z"/>
		</g>
		<g>
			<path fill="#695831" d="M1352.8,756.8l-10.1-13.4c36.1-27,53-73.9,53.2-74.3l6.6,17.5C1401.7,688.6,1393,726.6,1352.8,756.8z"/>
		</g>
		<g>
			<polygon fill="#7D6A3C" points="1329.5,667.6 1329.5,912.4 1345.3,912.4 1345.3,650.2    "/>
			<polygon fill="#695831" points="1355.4,667.6 1345.3,650.2 1345.3,912.4 1355.4,912.4    "/>
		</g>
	</g>
	<g>
		<path fill="#50C984" d="M1371.6,853.6c-9.6-9-21.5-15.7-34.7-19.2c0.1-0.9,0.3-1.7,0.3-2.6c0-24.6-19.9-44.5-44.5-44.5    c-6,0-11.7,1.2-17,3.4c-16.6-23.3-43.8-38.6-74.6-38.6c-27.7,0-52.6,12.3-69.4,31.8c-13.8,16-22.2,36.9-22.2,59.8    c0,4.4,0.4,8.6,1,12.8h-14c-26.5,0-47.9,21.4-47.9,47.9c0,22.9,16.1,42,37.7,46.7c3.3,0.7,6.7,1.2,10.2,1.2h35    c-0.9,4.1-1.5,8.4-1.5,12.7c0,8.6,1.9,16.7,5.3,24h201.6c19.7-5.1,36.5-17.5,47.3-34.2c8-12.4,12.7-27.2,12.7-43.1    C1396.9,888.8,1387.1,868.1,1371.6,853.6z"/>
		<path fill="#58DE91" d="M1335.3,944.1c0-6.3-5.1-11.3-11.3-11.3h-105.5c-6.3,0-11.3,5.1-11.3,11.3l0,0c0,6.3,5.1,11.3,11.3,11.3    H1324C1330.2,955.5,1335.3,950.4,1335.3,944.1L1335.3,944.1z"/>
		<path fill="#58DE91" d="M1286.8,875.9c0-6.3-5.1-11.3-11.3-11.3H1170c-6.3,0-11.3,5.1-11.3,11.3l0,0c0,6.3,5.1,11.3,11.3,11.3    h105.5C1281.8,887.2,1286.8,882.2,1286.8,875.9L1286.8,875.9z"/>
	</g>
	<g>
		<path fill="#50C984" d="M78.3,932.4c8.7,0,16.4,4.4,21,11.2c7.1-15.4,22.7-26.2,40.8-26.2c4.9,0,9.6,0.8,13.9,2.2    c6.3-7.3,15.7-12,26.1-12c4.5,0,8.8,0.9,12.8,2.5c13.1-18.2,34.4-30.1,58.5-30.1c19.2,0,36.6,7.5,49.5,19.8    c4.2-12,15.6-20.7,29.1-20.7c17,0,30.9,13.8,30.9,30.9c0,3.6-0.6,7-1.7,10.1c17.4,6.2,29.8,22.7,29.8,42.2c0,1-0.1,1.9-0.1,2.8    c0,21.8-17.5,42.1-39.3,42.1H92.5c-21.8,0-39.4-17.7-39.4-39.4v-10.1C53.1,943.7,64.4,932.4,78.3,932.4z"/>
		<path fill="#58DE91" d="M147.5,964.4c0-5.3,4.3-9.7,9.7-9.7h189.7c5.3,0,9.7,4.3,9.7,9.7l0,0c0,5.3-4.3,9.7-9.7,9.7H157.2    C151.8,974,147.5,969.7,147.5,964.4L147.5,964.4z"/>
	</g>
	<g>
		<rect x="1254.4" y="824.8" fill="#6E5152" width="223.5" height="21.2"/>
		<rect x="1254.4" y="890.9" fill="#6E5152" width="223.5" height="21.2"/>
		<polygon fill="#7C5C5D" points="1260.3,1014.5 1237.6,1014.5 1237.6,806.2 1248.9,793.9 1260.3,806.2   "/>
		<polygon fill="#7C5C5D" points="1307.2,1014.5 1284.5,1014.5 1284.5,806.2 1295.9,793.9 1307.2,806.2   "/>
		<polygon fill="#7C5C5D" points="1354.2,1014.5 1331.5,1014.5 1331.5,806.2 1342.9,793.9 1354.2,806.2   "/>
		<polygon fill="#7C5C5D" points="1401.2,1014.5 1378.5,1014.5 1378.5,806.2 1389.8,793.9 1401.2,806.2   "/>
		<polygon fill="#7C5C5D" points="1448.2,1014.5 1425.5,1014.5 1425.5,806.2 1436.8,793.9 1448.2,806.2   "/>
		<polygon fill="#7C5C5D" points="1495.1,1014.5 1472.4,1014.5 1472.4,806.2 1483.8,793.9 1495.1,806.2   "/>
	</g>
	<g>
		<polygon fill="#EB5A43" points="1093.6,554 1220,716.2 1220.4,716.2 1220.4,726.9 1085.3,564.7   "/>
		<polygon fill="#FF6249" points="1220.4,989.5 1220.4,726.9 1085.3,564.7 967.4,716.2 960.9,716.2 960.9,989.5   "/>
	</g>
	<rect x="996.6" y="723" fill="#EB5A43" width="81.8" height="77"/>
	<rect x="1103" y="723" fill="#EB5A43" width="81.8" height="77"/>
	<rect x="987" y="827.3" fill="#EB5A43" width="207.3" height="166.3"/>
	<g>
		<polygon fill="#6E5152" points="1093.6,554 1101.2,544.3 1234.9,716.2 1220.4,716.2 1220,716.2   "/>
		<polygon fill="#7C5C5D" points="727.6,544.3 1086,544.3 1101.2,544.3 1093.6,554 967.4,716.2 960.9,716.2 956.2,716.2     888.8,716.2 701.8,716.2 593.9,716.2   "/>
	</g>
	<g>
		<polygon fill="#E05640" points="606.9,716.2 960.9,716.2 960.9,720.8 606.9,737.9   "/>
		<polygon fill="#EB5A43" points="960.9,989.5 960.9,720.8 606.9,737.9 606.9,989.5   "/>
	</g>
	<g>
		<g>
			<rect x="1107" y="727" fill="#694D4E" width="73.7" height="68.9"/>
			<rect x="1115.4" y="735.4" fill="#8AD8FF" width="56.9" height="52.1"/>
			<rect x="1140.4" y="732.1" fill="#694D4E" width="6.9" height="57.7"/>
			<rect x="1115" y="757.5" fill="#694D4E" width="57.7" height="6.9"/>
		</g>
		<g>
			<rect x="1000.6" y="727" fill="#694D4E" width="73.7" height="68.9"/>
			<rect x="1009" y="735.4" fill="#8AD8FF" width="56.9" height="52.1"/>
			<rect x="1034" y="732.1" fill="#694D4E" width="6.9" height="57.7"/>
			<rect x="1008.6" y="757.5" fill="#694D4E" width="57.7" height="6.9"/>
		</g>
		<g>
			<polygon fill="#C99079" points="1010.1,979.7 1171.2,979.7 1090.7,916.6    "/>
			<polygon fill="#C99079" points="1000.9,915.3 1000.9,974.5 1076.5,915.3    "/>
			<polygon fill="#C99079" points="1000.9,846.3 1000.9,905.5 1076.5,905.5    "/>
			<polygon fill="#C99079" points="1171.2,841.1 1010.1,841.1 1090.7,904.2    "/>
			<polygon fill="#C99079" points="1180.5,974.5 1180.5,915.3 1104.8,915.3    "/>
			<polygon fill="#C99079" points="1180.5,905.5 1180.5,846.3 1104.8,905.5    "/>
			<path fill="#694D4E" d="M991.1,831.3v158.2h199.2V831.3H991.1z M1171.2,841.1l-80.5,63.1l-80.5-63.1H1171.2z M1000.9,846.3     l75.6,59.3h-75.6V846.3z M1000.9,915.3h75.6l-75.6,59.2V915.3z M1010.1,979.7l80.5-63.1l80.5,63.1H1010.1z M1180.5,974.5     l-75.6-59.2h75.6V974.5z M1180.5,905.5h-75.6l75.6-59.3V905.5z"/>
		</g>
	</g>
	<rect x="606.9" y="748.7" fill="#E05640" width="354" height="8.9"/>
	<rect x="606.9" y="783.1" fill="#E05640" width="354" height="8.9"/>
	<rect x="606.9" y="817.6" fill="#E05640" width="354" height="8.9"/>
	<rect x="606.9" y="852.1" fill="#E05640" width="354" height="8.9"/>
	<rect x="606.9" y="886.5" fill="#E05640" width="354" height="8.9"/>
	<rect x="606.9" y="921" fill="#E05640" width="354" height="8.9"/>
	<rect x="606.9" y="955.5" fill="#E05640" width="354" height="8.9"/>
	<g>
		<path fill="#ADADAD" d="M728.7,418.2h11.2c2.5,0,4.4,2,4.4,4.5c0,2.5-2,4.4-4.4,4.4h-11.2V512h11.2c2.5,0,4.4,2,4.4,4.4    c0,2.5-2,4.5-4.4,4.5h-11.2v84.9h11.2c2.5,0,4.4,2,4.4,4.4c0,2.5-2,4.5-4.4,4.5h-11.2v84.9h11.2c2.5,0,4.4,2,4.4,4.4    c0,2.5-2,4.5-4.4,4.5h-11.2v135.8h-84.1h-19.1V418.2H728.7z"/>
		<path fill="#CCCCCC" d="M549.3,520.9c-2.5,0-4.5-2-4.5-4.5c0-2.5,2-4.4,4.5-4.4h11.2v-84.9h-11.2c-2.5,0-4.5-2-4.5-4.4    c0-2.5,2-4.5,4.5-4.5h11.2v-1.7c0-42.9,34.8-77.6,77.6-77.6h6.5h6.5c42.9,0,77.6,34.7,77.6,77.6v1.7H625.5v426.1h-65V708.4h-11.2    c-2.5,0-4.5-2-4.5-4.5c0-2.5,2-4.4,4.5-4.4h11.2v-84.9h-11.2c-2.5,0-4.5-2-4.5-4.5c0-2.5,2-4.4,4.5-4.4h11.2v-84.9H549.3z"/>
	</g>
	<g>
		<path fill="#ADADAD" d="M512.6,503.7h11.2c2.5,0,4.4,2,4.4,4.5c0,2.5-2,4.4-4.4,4.4h-11.2v84.9h11.2c2.5,0,4.4,2,4.4,4.5    c0,2.4-2,4.4-4.4,4.4h-11.2v84.9h11.2c2.5,0,4.4,2,4.4,4.4c0,2.5-2,4.5-4.4,4.5h-11.2v84.9h11.2c2.5,0,4.4,2,4.4,4.5    c0,2.5-2,4.4-4.4,4.4h-11.2v135.8h-84.1h-19.1V503.7H512.6z"/>
		<path fill="#CCCCCC" d="M333.2,606.4c-2.4,0-4.4-2-4.4-4.4c0-2.5,2-4.5,4.4-4.5h11.2v-84.9h-11.2c-2.4,0-4.4-2-4.4-4.4    c0-2.5,2-4.5,4.4-4.5h11.2v-1.7c0-42.9,34.8-77.6,77.6-77.6h6.5h6.5c42.9,0,77.6,34.7,77.6,77.6v1.7H409.3v426.1h-65V794h-11.2    c-2.4,0-4.4-2-4.4-4.4c0-2.5,2-4.5,4.4-4.5h11.2v-84.9h-11.2c-2.4,0-4.4-2-4.4-4.5c0-2.5,2-4.4,4.4-4.4h11.2v-84.9H333.2z"/>
	</g>
	<g>
		<path fill="#756423" d="M808.9,956.2v-95.6c0-26.8-21.8-48.6-48.6-48.6H625.5v117.7L808.9,956.2z"/>
		<polygon fill="#6B5C21" points="625.5,929.8 625.5,812 442,812 442,991.5 808.9,991.5 808.9,956.2   "/>
	</g>
	<path fill="#77D2FF" d="M268.4,1062.4c8.5,39.6,43.6,69.3,85.7,69.3H456c6.9,0,12.9,3.2,17,8.2c3,3.8,5,8.5,5,13.7   c0,12.1-9.8,21.9-21.9,21.9h-17.5c-10.7,0-19.9,6-24.8,14.7c-2.3,4.1-3.7,8.7-3.7,13.7c0,15.7,12.7,28.4,28.4,28.4h569.8   c15.7,0,28.4-12.7,28.4-28.4c0-5-1.4-9.6-3.7-13.7c-4.9-8.7-14.1-14.7-24.8-14.7h-32.8c-12.1,0-21.9-9.8-21.9-21.9   c0-5.2,1.9-10,5-13.7c4-5,10.1-8.2,17-8.2h259.4c42.1,0,77.3-29.7,85.7-69.3H268.4z"/>
	<path fill="#99E0FE" d="M903.4,1153c0,10.9-8.8,19.7-19.7,19.7H535.5c-10.9,0-19.7-8.8-19.7-19.7l0,0c0-10.9,8.8-19.7,19.7-19.7   h348.2C894.6,1133.2,903.4,1142.1,903.4,1153L903.4,1153z"/>
	<path fill="#4A936B" d="M848.7,1133.2c-5.1-8.7-14.5-14.5-25.3-14.5c-6,0-11.6,1.8-16.3,4.9c-6.8-9.9-18.1-16.4-31-16.4   c-16.7,0-30.8,10.9-35.7,26H848.7z"/>
	<path fill="#4A936B" d="M700.8,1208.1h-52.5c-5.1-4.3-11.6-6.9-18.8-6.9c-6,0-11.6,1.8-16.3,4.9c-6.8-9.9-18.1-16.4-31-16.4   c-13.7,0-25.7,7.4-32.3,18.4h-87.9c-6.7,0-12.1,5.4-12.1,12.1s5.4,12.1,12.1,12.1h238.8c6.7,0,12.1-5.4,12.1-12.1   S707.5,1208.1,700.8,1208.1z"/>
	<path fill="#4A936B" d="M566.6,1133.2c3-4.5,8.1-7.5,13.9-7.5c0.6,0,1.2,0.1,1.9,0.2c5.7-10,16.5-16.8,28.8-16.8   c9.5,0,18,4,24.1,10.4c2-0.8,4.1-1.3,6.4-1.3c8.6,0,15.7,6.6,16.4,15.1H566.6z"/>
	<path fill="#4A936B" d="M989.8,1208.1h-23.6c-1.9-7-8.3-12.1-15.9-12.1c-2.3,0-4.4,0.5-6.4,1.3c-6-6.4-14.6-10.4-24.1-10.4   c-12.4,0-23.1,6.8-28.8,16.8c-0.6-0.1-1.2-0.2-1.9-0.2c-4.4,0-8.5,1.8-11.4,4.6h-16.2c-6.7,0-12.1,5.4-12.1,12.1   s5.4,12.1,12.1,12.1h128.3c6.7,0,12.1-5.4,12.1-12.1S996.5,1208.1,989.8,1208.1z"/>
	<path fill="#CFF5FE" d="M860.9,1175.6c0,6.3-5.1,11.3-11.3,11.3H717.1c-6.3,0-11.3-5.1-11.3-11.3l0,0c0-6.3,5.1-11.3,11.3-11.3   h132.5C855.9,1164.3,860.9,1169.3,860.9,1175.6L860.9,1175.6z"/>
	<path fill="#99E0FE" d="M1011.4,1116.6c0-8.3,6.7-15.1,15.1-15.1h193.4c8.3,0,15.1,6.7,15.1,15.1l0,0c0,8.3-6.7,15.1-15.1,15.1   h-193.4C1018.2,1131.6,1011.4,1124.9,1011.4,1116.6L1011.4,1116.6z"/>
	<path fill="#CFF5FE" d="M1074.2,1098.5c0,5.8-4.7,10.5-10.5,10.5h-78.1c-5.8,0-10.5-4.7-10.5-10.5l0,0c0-5.8,4.7-10.5,10.5-10.5   h78.1C1069.4,1088,1074.2,1092.7,1074.2,1098.5L1074.2,1098.5z"/>
	<path fill="#99E0FE" d="M487.8,1116.6c0-8.3-6.7-15.1-15.1-15.1h-84.6c-8.3,0-15.1,6.7-15.1,15.1l0,0c0,8.3,6.7,15.1,15.1,15.1   h84.6C481,1131.6,487.8,1124.9,487.8,1116.6L487.8,1116.6z"/>
	<path fill="#CFF5FE" d="M445.9,1100.8c0-7.1-5.7-12.8-12.8-12.8h-73.6c-7.1,0-12.8,5.7-12.8,12.8l0,0c0,7.1,5.7,12.8,12.8,12.8   h73.6C440.2,1113.7,445.9,1107.9,445.9,1100.8L445.9,1100.8z"/>
	<path fill="#4A936B" d="M1535.1,1025.9c0-20.1-16.3-36.4-36.4-36.4H69.4c-20.1,0-36.4,16.3-36.4,36.4l0,0   c0,20.1,16.3,36.4,36.4,36.4h1429.2C1518.7,1062.4,1535.1,1046,1535.1,1025.9L1535.1,1025.9z"/>
	<g>
		<path fill="#FFC55D" d="M247.4,897.7c0-26.8,21.8-48.6,48.6-48.6h10.4c6.5-44.3,44.7-78.3,90.8-78.3c4.1,0,8.2,0.4,12.2,0.9v217.8    h-162V897.7z"/>
		<path fill="#EBB555" d="M488,849.1h34.7c26.8,0,48.6,21.8,48.6,48.6v91.8h-162V771.7C449.8,777.1,482,808.8,488,849.1z"/>
	</g>
	<path fill="#6E5152" d="M956.8,689.1v-1.5c0-12.4-10.1-22.5-22.5-22.5h-7.4c-12.4,0-22.5,10.1-22.5,22.5v1.5H956.8z"/>
	<path fill="#6E5152" d="M873.8,689.1v-1.5c0-12.4-10.1-22.5-22.5-22.5h-7.4c-12.4,0-22.5,10.1-22.5,22.5v1.5H873.8z"/>
	<path fill="#6E5152" d="M790.7,689.1v-1.5c0-12.4-10.1-22.5-22.5-22.5h-7.4c-12.4,0-22.5,10.1-22.5,22.5v1.5H790.7z"/>
	<path fill="#6E5152" d="M996.6,643.2v-1.5c0-12.4-10.1-22.5-22.5-22.5h-7.4c-12.4,0-22.5,10.1-22.5,22.5v1.5H996.6z"/>
	<path fill="#6E5152" d="M913.5,643.2v-1.5c0-12.4-10.1-22.5-22.5-22.5h-7.4c-12.4,0-22.5,10.1-22.5,22.5v1.5H913.5z"/>
	<path fill="#6E5152" d="M830.5,643.2v-1.5c0-12.4-10.1-22.5-22.5-22.5h-7.4c-12.4,0-22.5,10.1-22.5,22.5v1.5H830.5z"/>
	<path fill="#6E5152" d="M1036.4,597.4v-1.5c0-12.4-10.1-22.5-22.5-22.5h-7.4c-12.4,0-22.5,10.1-22.5,22.5v1.5H1036.4z"/>
	<path fill="#6E5152" d="M953.3,597.4v-1.5c0-12.4-10.1-22.5-22.5-22.5h-7.4c-12.4,0-22.5,10.1-22.5,22.5v1.5H953.3z"/>
	<path fill="#6E5152" d="M870.3,597.4v-1.5c0-12.4-10.1-22.5-22.5-22.5h-7.4c-12.4,0-22.5,10.1-22.5,22.5v1.5H870.3z"/>
	<path fill="#6E5152" d="M787.3,597.4v-1.5c0-12.4-10.1-22.5-22.5-22.5h-7.4c-12.4,0-22.5,10.1-22.5,22.5v1.5H787.3z"/>
	<path fill="#CCCCCC" d="M701,466.8c0,3.9-3.2,7.1-7.1,7.1h-50.1c-3.9,0-7.1-3.2-7.1-7.1l0,0c0-3.9,3.2-7.1,7.1-7.1h50.1   C697.8,459.8,701,462.9,701,466.8L701,466.8z"/>
	<path fill="#CCCCCC" d="M490.3,554c0,3.9-3.2,7.1-7.1,7.1h-50.1c-3.9,0-7.1-3.2-7.1-7.1l0,0c0-3.9,3.2-7.1,7.1-7.1h50.1   C487.1,546.9,490.3,550.1,490.3,554L490.3,554z"/>
	<path fill="#CCCCCC" d="M490.3,615.4c0,3.9-3.2,7.1-7.1,7.1h-50.1c-3.9,0-7.1-3.2-7.1-7.1l0,0c0-3.9,3.2-7.1,7.1-7.1h50.1   C487.1,608.3,490.3,611.5,490.3,615.4L490.3,615.4z"/>
	<path fill="#CCCCCC" d="M490.3,676.8c0,3.9-3.2,7.1-7.1,7.1h-50.1c-3.9,0-7.1-3.2-7.1-7.1l0,0c0-3.9,3.2-7.1,7.1-7.1h50.1   C487.1,669.7,490.3,672.9,490.3,676.8L490.3,676.8z"/>
	<path fill="#CCCCCC" d="M490.3,738.2c0,3.9-3.2,7.1-7.1,7.1h-50.1c-3.9,0-7.1-3.2-7.1-7.1l0,0c0-3.9,3.2-7.1,7.1-7.1h50.1   C487.1,731.2,490.3,734.3,490.3,738.2L490.3,738.2z"/>
	<path fill="#CCCCCC" d="M701,529.6c0,3.9-3.2,7.1-7.1,7.1h-50.1c-3.9,0-7.1-3.2-7.1-7.1l0,0c0-3.9,3.2-7.1,7.1-7.1h50.1   C697.8,522.5,701,525.7,701,529.6L701,529.6z"/>
	<path fill="#CCCCCC" d="M701,592.4c0,3.9-3.2,7.1-7.1,7.1h-50.1c-3.9,0-7.1-3.2-7.1-7.1l0,0c0-3.9,3.2-7.1,7.1-7.1h50.1   C697.8,585.3,701,588.4,701,592.4L701,592.4z"/>
	<path fill="#CCCCCC" d="M701,655.1c0,3.9-3.2,7.1-7.1,7.1h-50.1c-3.9,0-7.1-3.2-7.1-7.1l0,0c0-3.9,3.2-7.1,7.1-7.1h50.1   C697.8,648,701,651.2,701,655.1L701,655.1z"/>
	<path fill="#CCCCCC" d="M701,717.9c0,3.9-3.2,7.1-7.1,7.1h-50.1c-3.9,0-7.1-3.2-7.1-7.1l0,0c0-3.9,3.2-7.1,7.1-7.1h50.1   C697.8,710.8,701,714,701,717.9L701,717.9z"/>
	<path fill="#3F805C" d="M930.5,1013.8c0-4.2-3.4-7.6-7.6-7.6H742.4c-4.2,0-7.6,3.4-7.6,7.6l0,0c0,4.2,3.4,7.6,7.6,7.6h180.5   C927.1,1021.4,930.5,1018,930.5,1013.8L930.5,1013.8z"/>
	<g>
		<path fill="#FFDA98" d="M797,856.5h-1.4h-30.4h-1.2c-1.4,0-2.5,1.1-2.5,2.5c0,1.4,1.1,2.5,2.5,2.5h4l12.3,21.4l12.3-21.4h4.3    c1.4,0,2.5-1.1,2.5-2.5C799.5,857.6,798.4,856.5,797,856.5z"/>
		<g>
			<path fill="#FFDA98" d="M799.5,875.3c-2.9-0.8-6-1.3-9.1-1.3h-19.9c-18.9,0-34.2,15.3-34.2,34.2v57.3v23.3v7.4     c0,8.7,7.2,15.9,15.9,15.9h53.4V916C805.6,896.5,801.9,882.4,799.5,875.3z"/>
			<path fill="#EBC88C" d="M799.5,875.3c2.4,7.1,6,21.1,6,40.7v96.2h3.1c8.7,0,15.9-7.2,15.9-15.9v-7.4v-23.3v-57.3     C824.6,892.5,814,879.3,799.5,875.3z"/>
		</g>
		<path fill="#694D4E" d="M791.7,871.6c0-1.4-1.1-2.5-2.5-2.5h-17.4c-1.4,0-2.5,1.1-2.5,2.5l0,0c0,1.4,1.1,2.5,2.5,2.5h17.4    C790.6,874.1,791.7,872.9,791.7,871.6L791.7,871.6z"/>
		<path fill="#FFDA98" d="M897.2,856.5h-1.4h-30.4h-1.2c-1.4,0-2.5,1.1-2.5,2.5c0,1.4,1.1,2.5,2.5,2.5h4l12.3,21.4l12.3-21.4h4.3    c1.4,0,2.5-1.1,2.5-2.5C899.7,857.6,898.6,856.5,897.2,856.5z"/>
		<g>
			<path fill="#FFDA98" d="M899.7,875.3c-2.9-0.8-6-1.3-9.1-1.3h-19.9c-18.9,0-34.2,15.3-34.2,34.2v57.3v23.3v7.4     c0,8.7,7.2,15.9,15.9,15.9h53.4V916C905.8,896.5,902.1,882.4,899.7,875.3z"/>
			<path fill="#EBC88C" d="M899.7,875.3c2.4,7.1,6,21.1,6,40.7v96.2h3.1c8.7,0,15.9-7.2,15.9-15.9v-7.4v-23.3v-57.3     C924.8,892.5,914.2,879.3,899.7,875.3z"/>
		</g>
		<path fill="#694D4E" d="M891.9,871.6c0-1.4-1.1-2.5-2.5-2.5h-17.4c-1.4,0-2.5,1.1-2.5,2.5l0,0c0,1.4,1.1,2.5,2.5,2.5h17.4    C890.8,874.1,891.9,872.9,891.9,871.6L891.9,871.6z"/>
	</g>
	<path fill="#FFFFFF" d="M643.7,261.2h10.1c0-10.1,8.2-18.2,18.2-18.2c2.7,0,5.3,0.6,7.7,1.7c4.9-7.7,13.6-12.9,23.4-12.9   c15.3,0,27.8,12.4,27.8,27.8c0,0.6,0,1.1-0.1,1.7h4.9c10.1,0,18.2,8.2,18.2,18.2c0,10.1-8.2,18.2-18.2,18.2h-92   c-10.1,0-18.2-8.2-18.2-18.2C625.5,269.4,633.6,261.2,643.7,261.2z"/>
	<path fill="#FFFFFF" d="M1031.5,317.4h-6.9c0.5-1.9,0.8-3.9,0.8-5.9c0-13.1-10.7-23.8-23.8-23.8c-2.7,0-5.2,0.5-7.6,1.3   c-7.5-18.9-25.9-32.4-47.5-32.4c-21.6,0-40,13.4-47.5,32.4c-4-2.4-8.7-3.9-13.7-3.9c-11.2,0-20.8,7-24.6,16.9   c-0.6-0.1-1.2-0.2-1.8-0.2c-8.6,0-15.6,7-15.6,15.6h-13.7c-5.9,0-10.7,4.8-10.7,10.7c0,5.9,4.8,10.7,10.7,10.7h201.9   c5.9,0,10.7-4.8,10.7-10.7C1042.2,322.2,1037.4,317.4,1031.5,317.4z"/>
</g>
</svg>
